SplineFontDB: 3.2
FontName: D-DIN-PRO-Regular
FullName: D-DIN-PRO-Regular
FamilyName: D-DIN-PRO
Weight: Regular
Copyright: Copyright (c) CyberFei. All rights reserved
Version: 1.1.0
ItalicAngle: 0
UnderlinePosition: -150
UnderlineWidth: 50
Ascent: 831
Descent: 169
InvalidEm: 0
sfntRevision: 0x00010000
LayerCount: 2
Layer: 0 0 "Back" 1
Layer: 1 0 "Fore" 0
XUID: [1021 868 -1451673819 20796]
StyleMap: 0x0040
FSType: 4
OS2Version: 3
OS2_WeightWidthSlopeOnly: 0
OS2_UseTypoMetrics: 0
CreationTime: 1462909513
ModificationTime: 1509658817
PfmFamily: 17
TTFWeight: 400
TTFWidth: 5
LineGap: 86
VLineGap: 0
Panose: 2 11 5 4 3 2 2 3 2 4
OS2TypoAscent: 831
OS2TypoAOffset: 0
OS2TypoDescent: -169
OS2TypoDOffset: 0
OS2TypoLinegap: 86
OS2WinAscent: 902
OS2WinAOffset: 0
OS2WinDescent: 184
OS2WinDOffset: 0
HheadAscent: 831
HheadAOffset: 0
HheadDescent: -169
HheadDOffset: 0
OS2SubXSize: 650
OS2SubYSize: 600
OS2SubXOff: 0
OS2SubYOff: 75
OS2SupXSize: 650
OS2SupYSize: 600
OS2SupXOff: 0
OS2SupYOff: 350
OS2StrikeYSize: 50
OS2StrikeYPos: 304
OS2CapHeight: 690
OS2XHeight: 507
OS2Vendor: 'MONO'
OS2CodePages: 20000001.00000000
OS2UnicodeRanges: 8000006f.4000000a.00000000.00000000
Lookup: 1 0 0 "'rtla' Right to Left Alternates lookup 0" { "'rtla' Right to Left Alternates lookup 0 subtable"  } ['rtla' ('DFLT' <'dflt' > ) ]
Lookup: 1 0 0 "'sups' Superscript lookup 1" { "'sups' Superscript lookup 1 subtable" ("superior") } ['sups' ('DFLT' <'dflt' > ) ]
Lookup: 4 0 0 "'frac' Diagonal Fractions lookup 2" { "'frac' Diagonal Fractions lookup 2 subtable"  } ['frac' ('DFLT' <'dflt' > ) ]
Lookup: 4 0 0 "'dlig' Discretionary Ligatures in Latin lookup 3" { "'dlig' Discretionary Ligatures in Latin lookup 3 subtable"  } ['dlig' ('latn' <'dflt' > ) ]
Lookup: 4 0 1 "'liga' Standard Ligatures in Latin lookup 4" { "'liga' Standard Ligatures in Latin lookup 4 subtable"  } ['liga' ('latn' <'dflt' > ) ]

StartChar: .notdef
Encoding: 65536 -1 0
Width: 600
GlyphClass: 1
Flags: W
LayerCount: 2
Fore
SplineSet
101 690 m 1
 498 690 l 1
 498 0 l 1
 101 0 l 1
 101 690 l 1
464 34 m 1
 464 656 l 1
 135 656 l 1
 135 34 l 1
 464 34 l 1
EndSplineSet
EndChar

StartChar: exclam
Encoding: 33 33 3
Width: 239
GlyphClass: 2
Flags: W
LayerCount: 2
Fore
SplineSet
78 690 m 1
 162 690 l 1
 148 196 l 1
 92 196 l 1
 78 690 l 1
75 93 m 1
 164 93 l 1
 164 0 l 1
 75 0 l 1
 75 93 l 1
EndSplineSet
EndChar

StartChar: quotedbl
Encoding: 34 34 4
Width: 308
GlyphClass: 2
Flags: W
LayerCount: 2
Fore
SplineSet
53 690 m 1
 119 690 l 1
 119 460 l 1
 53 460 l 1
 53 690 l 1
189 690 m 1
 255 690 l 1
 255 460 l 1
 189 460 l 1
 189 690 l 1
EndSplineSet
EndChar

StartChar: numbersign
Encoding: 35 35 5
Width: 511
GlyphClass: 2
Flags: W
LayerCount: 2
Fore
SplineSet
392 430 m 1
 372 277 l 1
 462 277 l 1
 462 221 l 1
 365 221 l 1
 336 0 l 1
 276 0 l 1
 305 221 l 1
 167 221 l 1
 138 0 l 1
 78 0 l 1
 107 221 l 1
 25 221 l 1
 25 277 l 1
 115 277 l 1
 135 430 l 1
 49 430 l 1
 49 485 l 1
 142 485 l 1
 169 690 l 1
 228 690 l 1
 201 485 l 1
 339 485 l 1
 366 690 l 1
 426 690 l 1
 399 485 l 1
 486 485 l 1
 486 430 l 1
 392 430 l 1
332 430 m 1
 194 430 l 1
 174 277 l 1
 312 277 l 1
 332 430 l 1
EndSplineSet
EndChar

StartChar: dollar
Encoding: 36 36 6
Width: 457
GlyphClass: 2
Flags: W
LayerCount: 2
Fore
SplineSet
368.5 83 m 0
 340.166992188 52.3330078125 301.000976562 34.3330078125 251.000976562 29 c 1
 251.000976562 -59 l 1
 193.000976562 -59 l 1
 193.000976562 28 l 1
 145.000976562 33.3330078125 107.333984375 51.3330078125 80.0009765625 82 c 0
 52.66796875 112.666992188 37.0009765625 155 33.0009765625 209 c 1
 102.000976562 209 l 1
 105.333984375 173.666992188 114.666992188 146.5 130 127.5 c 0
 145.333007812 108.5 166.333007812 96.6669921875 193 92 c 1
 193 322 l 1
 186 323 l 2
 139.333007812 332.333007812 104 349.833007812 80 375.5 c 0
 56 401.166992188 44 438 44 486 c 0
 44 535.333007812 57.5 575.166015625 84.5 605.499023438 c 0
 111.5 635.83203125 147.666992188 653.665039062 193 658.998046875 c 1
 193 740.998046875 l 1
 251 740.998046875 l 1
 251 659.998046875 l 1
 294.333984375 654.662109375 329.166992188 637.829101562 355.5 609.498046875 c 0
 381.833007812 581.1640625 397.333007812 540.331054688 402 486.999023438 c 1
 333 486.999023438 l 1
 328.333007812 550.33203125 301 586.999023438 251 596.999023438 c 1
 251 377.999023438 l 1
 268 374.999023438 l 2
 314.666992188 366.33203125 350.166992188 348.33203125 374.5 320.999023438 c 0
 398.833007812 293.666015625 411 255.333007812 411 206 c 0
 411 154.666992188 396.833007812 113.666992188 368.5 83 c 0
133.500976562 424.5 m 0
 146.500976562 408.166992188 166.333984375 396.666992188 193.000976562 390 c 1
 193.000976562 596 l 1
 167.000976562 591.333007812 147.333984375 579.833007812 134.000976562 561.5 c 0
 120.66796875 543.166992188 114.000976562 519.666992188 114.000976562 491 c 0
 114.000976562 463 120.500976562 440.833007812 133.500976562 424.5 c 0
318.500976562 125 m 0
 333.500976562 143.666992188 341 169 341 201 c 0
 341 233 333.833007812 257.333007812 319.5 274 c 0
 305.166992188 290.666992188 282.333984375 302.666992188 251.000976562 310 c 1
 251.000976562 91 l 1
 281.000976562 95 303.500976562 106.333007812 318.500976562 125 c 0
123 688 m 1024
EndSplineSet
EndChar

StartChar: percent
Encoding: 37 37 7
Width: 830
GlyphClass: 2
Flags: W
LayerCount: 2
Fore
SplineSet
71 304 m 0
 51.6669921875 328.666992188 42 365.666992188 42 415 c 2
 42 554 l 2
 42 601.333007812 52.1669921875 637 72.5 661 c 0
 92.8330078125 685 123 697 163 697 c 0
 205 697 235.833007812 685.166992188 255.5 661.5 c 0
 275.166992188 637.833007812 285 602 285 554 c 2
 285 415 l 2
 285 365.666992188 275.166992188 328.666992188 255.5 304 c 0
 235.833007812 279.333007812 205 267 163 267 c 0
 121 267 90.3330078125 279.333007812 71 304 c 0
570 690 m 1
 633 690 l 1
 260 0 l 1
 197 0 l 1
 570 690 l 1
205 346.5 m 0
 212.333007812 360.833984375 216 384.666015625 216 417.999023438 c 2
 216 547.999023438 l 2
 216 579.999023438 212.166992188 602.999023438 204.5 616.999023438 c 0
 196.833007812 630.999023438 183 637.999023438 163 637.999023438 c 0
 143 637.999023438 129.166992188 630.999023438 121.5 616.999023438 c 0
 113.833007812 602.999023438 110 579.999023438 110 547.999023438 c 2
 110 417.999023438 l 2
 110 384.666015625 113.833007812 360.833007812 121.5 346.5 c 0
 129.166992188 332.166992188 143 325 163 325 c 0
 183.666992188 325 197.666992188 332.166992188 205 346.5 c 0
574 30.9990234375 m 0
 554.666992188 55.666015625 545 92.666015625 545 141.999023438 c 2
 545 280.999023438 l 2
 545 328.33203125 555.166992188 363.999023438 575.5 387.999023438 c 0
 595.833007812 411.999023438 626 423.999023438 666 423.999023438 c 0
 708 423.999023438 738.833007812 412.166015625 758.5 388.499023438 c 0
 778.166992188 364.83203125 788 328.999023438 788 280.999023438 c 2
 788 141.999023438 l 2
 788 92.666015625 778.166992188 55.666015625 758.5 30.9990234375 c 0
 738.833007812 6.33203125 708 -6.0009765625 666 -6.0009765625 c 0
 624 -6.0009765625 593.333007812 6.33203125 574 30.9990234375 c 0
708 73.4990234375 m 0
 715.333007812 87.83203125 719 111.665039062 719 144.998046875 c 2
 719 274.998046875 l 2
 719 306.998046875 715.166992188 329.998046875 707.5 343.998046875 c 0
 699.833007812 357.998046875 686 364.998046875 666 364.998046875 c 0
 646 364.998046875 632.166992188 357.998046875 624.5 343.998046875 c 0
 616.833007812 329.998046875 613 306.998046875 613 274.998046875 c 2
 613 144.998046875 l 2
 613 111.665039062 616.833007812 87.83203125 624.5 73.4990234375 c 0
 632.166992188 59.166015625 646 51.9990234375 666 51.9990234375 c 0
 686.666992188 51.9990234375 700.666992188 59.166015625 708 73.4990234375 c 0
EndSplineSet
EndChar

StartChar: ampersand
Encoding: 38 38 8
Width: 597
GlyphClass: 2
Flags: W
LayerCount: 2
Fore
SplineSet
538 65 m 1
 537.999023438 0 l 1
 503.999023438 0 l 2
 485.999023438 0 471.666015625 3.1669921875 460.999023438 9.5 c 0
 450.33203125 15.8330078125 438.999023438 27.666015625 426.999023438 44.9990234375 c 2
 397.999023438 85.9990234375 l 1
 371.33203125 52.666015625 344.33203125 28.3330078125 316.999023438 13 c 0
 289.666015625 -2.3330078125 259.333007812 -10 226 -10 c 0
 173.333007812 -10 132.333007812 5.8330078125 103 37.5 c 0
 73.6669921875 69.1669921875 59 111 59 163 c 0
 59 200.333007812 69.6669921875 236 91 270 c 0
 112.333007812 304 145.666015625 341.333007812 190.999023438 382 c 1
 157.666015625 430.666992188 135.333007812 466.166992188 124 488.5 c 0
 112.666992188 510.833007812 107 533.333007812 107 556 c 0
 107 598 120.666992188 632.5 148 659.5 c 0
 175.333007812 686.5 210 700 252 700 c 0
 294 700 328.333007812 686.5 355 659.5 c 0
 381.666992188 632.5 395 598.666992188 395 558 c 0
 395 526.666015625 386.5 497.666015625 369.5 471 c 0
 352.5 444.333007812 322 411.666015625 278 373 c 1
 402 196 l 1
 474 292 l 1
 521 251 l 1
 440 142 l 1
 475 92 l 2
 487.666992188 74 501 65 515 65 c 2
 538 65 l 1
196.499023438 617.5 m 0
 182.166015625 602.5 175.000976562 582.666992188 175.000976562 558 c 0
 175.000976562 542.666992188 179.16796875 526.666992188 187.500976562 510 c 0
 195.833984375 493.333007812 213.666992188 465.333007812 241 426 c 1
 276.333007812 457.333007812 299.666015625 482 310.999023438 500 c 0
 322.33203125 518 327.999023438 537.666992188 327.999023438 559 c 0
 327.999023438 583 320.999023438 602.5 306.999023438 617.5 c 0
 292.999023438 632.5 274.666015625 640 251.999023438 640 c 0
 229.33203125 640 210.83203125 632.5 196.499023438 617.5 c 0
294.000976562 72.5 m 0
 313.333984375 85.5 335.334960938 108.000976562 360.001953125 140.000976562 c 1
 228.001953125 330.000976562 l 1
 192.668945312 298.66796875 167.001953125 270.16796875 151.001953125 244.500976562 c 0
 135.001953125 218.833984375 127.001953125 192.666992188 127.001953125 166 c 0
 127.001953125 131.333007812 136.168945312 103.833007812 154.501953125 83.5 c 0
 172.834960938 63.1669921875 198.001953125 53 230.001953125 53 c 0
 253.334960938 53 274.66796875 59.5 294.000976562 72.5 c 0
EndSplineSet
EndChar

StartChar: quotesingle
Encoding: 39 39 9
Width: 172
GlyphClass: 2
Flags: W
LayerCount: 2
Fore
SplineSet
53 690 m 1
 119 690 l 1
 119 460 l 1
 53 460 l 1
 53 690 l 1
EndSplineSet
EndChar

StartChar: parenleft
Encoding: 40 40 10
Width: 288
GlyphClass: 2
Flags: W
LayerCount: 2
Fore
SplineSet
59 328 m 0
 59 473.333007812 98.6669921875 610.666992188 178 740 c 1
 229 740 l 1
 195.666992188 674.666992188 170.5 607 153.5 537 c 0
 136.5 467 128 397.333007812 128 328 c 0
 128 258 136.5 187.833007812 153.5 117.5 c 0
 170.5 47.1669921875 195.666992188 -20 229 -84 c 1
 177 -84 l 1
 98.3330078125 46.6669921875 59 184 59 328 c 0
EndSplineSet
Substitution2: "'rtla' Right to Left Alternates lookup 0 subtable" parenright
EndChar

StartChar: parenright
Encoding: 41 41 11
Width: 288
GlyphClass: 2
Flags: W
LayerCount: 2
Fore
SplineSet
135 118 m 0
 152.333007812 188.666992188 161 258.666992188 161 328 c 0
 161 397.333007812 152.333007812 467 135 537 c 0
 117.666992188 607 92.333984375 674.666992188 59.0009765625 740 c 1
 110.000976562 740 l 1
 189.333984375 612 229.000976562 474.666992188 229.000976562 328 c 0
 229.000976562 184 189.66796875 46.6669921875 111.000976562 -84 c 1
 59.0009765625 -84 l 1
 92.333984375 -20 117.666992188 47.3330078125 135 118 c 0
EndSplineSet
Substitution2: "'rtla' Right to Left Alternates lookup 0 subtable" parenleft
EndChar

StartChar: asterisk
Encoding: 42 42 12
Width: 377
GlyphClass: 2
Flags: W
LayerCount: 2
Fore
SplineSet
166 519 m 1
 80 469 l 1
 59 505 l 1
 147 556 l 1
 59 606 l 1
 80 642 l 1
 166 592 l 1
 166 690 l 1
 211 690 l 1
 211 592 l 1
 298 642 l 1
 318 606 l 1
 230 556 l 1
 318 505 l 1
 298 469 l 1
 211 519 l 1
 211 415 l 1
 166 415 l 1
 166 519 l 1
EndSplineSet
EndChar

StartChar: plus
Encoding: 43 43 13
Width: 512
GlyphClass: 2
Flags: W
LayerCount: 2
Fore
SplineSet
223 243 m 1
 57 243 l 1
 57 309 l 1
 223 309 l 1
 223 475 l 1
 289 475 l 1
 289 309 l 1
 455 309 l 1
 455 243 l 1
 289 243 l 1
 289 77 l 1
 223 77 l 1
 223 243 l 1
EndSplineSet
EndChar

StartChar: comma
Encoding: 44 44 14
Width: 172
GlyphClass: 2
Flags: W
LayerCount: 2
Fore
SplineSet
53 93 m 1
 119 93 l 1
 119 -75 l 1
 53 -137 l 1
 53 93 l 1
EndSplineSet
EndChar

StartChar: hyphen
Encoding: 45 45 15
Width: 393
GlyphClass: 2
Flags: W
LayerCount: 2
Fore
SplineSet
59 380 m 1
 334 380 l 1
 334 314 l 1
 59 314 l 1
 59 380 l 1
EndSplineSet
EndChar

StartChar: period
Encoding: 46 46 16
Width: 194
GlyphClass: 2
Flags: W
LayerCount: 2
Fore
SplineSet
53 92 m 1
 141 92 l 1
 141 0 l 1
 53 0 l 1
 53 92 l 1
EndSplineSet
EndChar

StartChar: slash
Encoding: 47 47 17
Width: 392
GlyphClass: 2
Flags: W
LayerCount: 2
Fore
SplineSet
273 690 m 1
 333 690 l 1
 119 -10 l 1
 59 -10 l 1
 273 690 l 1
EndSplineSet
EndChar

StartChar: zero
Encoding: 48 48 18
Width: 493
GlyphClass: 2
Flags: W
LayerCount: 2
Fore
SplineSet
66 211 m 2
 66 483 l 2
 66 627.666992188 126 700 246 700 c 0
 366.666992188 700 427 627.666992188 427 483 c 2
 427 211 l 2
 427 63.6669921875 366.666992188 -10 246 -10 c 0
 126 -10 66 63.6669921875 66 211 c 2
329 95 m 0
 345.666992188 121 353.999023438 164.333007812 353.999023438 225 c 2
 353.999023438 465 l 2
 353.999023438 525.666992188 345.666015625 569 328.999023438 595 c 0
 312.33203125 621 284.665039062 634 245.999023438 634 c 0
 207.33203125 634 179.83203125 621 163.499023438 595 c 0
 147.166015625 569 138.999023438 525.666992188 138.999023438 465 c 2
 138.999023438 225 l 2
 138.999023438 164.333007812 147.166015625 121 163.499023438 95 c 0
 179.83203125 69 207.33203125 56 245.999023438 56 c 0
 284.666015625 56 312.333007812 69 329 95 c 0
EndSplineSet
EndChar

StartChar: one
Encoding: 49 49 19
Width: 329
GlyphClass: 2
Flags: W
LayerCount: 2
Fore
SplineSet
169 606 m 1
 50 517 l 1
 50 599 l 1
 168 690 l 1
 241 690 l 1
 241 0 l 1
 169 0 l 1
 169 606 l 1
EndSplineSet
Substitution2: "'sups' Superscript lookup 1 subtable" uni00B9
EndChar

StartChar: two
Encoding: 50 50 20
Width: 468
GlyphClass: 2
Flags: W
LayerCount: 2
Fore
SplineSet
59 59 m 1
 290.999023438 391 l 2
 320.33203125 434.333984375 334.999023438 474.666992188 334.999023438 512 c 2
 334.999023438 527 l 2
 334.999023438 560.333007812 325.666015625 586.666015625 306.999023438 605.999023438 c 0
 288.33203125 625.33203125 263.33203125 634.999023438 231.999023438 634.999023438 c 0
 200.666015625 634.999023438 175.999023438 625.499023438 157.999023438 606.499023438 c 0
 139.999023438 587.499023438 130.999023438 559.666015625 130.999023438 522.999023438 c 2
 130.999023438 504.999023438 l 1
 58.9990234375 504.999023438 l 1
 58.9990234375 526.999023438 l 2
 58.9990234375 578.999023438 74.83203125 620.83203125 106.499023438 652.499023438 c 0
 138.166015625 684.166015625 180.666015625 699.999023438 233.999023438 699.999023438 c 0
 268.666015625 699.999023438 299.333007812 692.499023438 326 677.499023438 c 0
 352.666992188 662.499023438 373.166992188 641.999023438 387.5 615.999023438 c 0
 401.833007812 589.999023438 409 560.999023438 409 528.999023438 c 2
 409 511.999023438 l 2
 409 483.999023438 404 457.33203125 394 431.999023438 c 0
 384 406.666015625 369 380.333007812 349 353 c 2
 149 65 l 1
 409 65 l 1
 409 0 l 1
 59 0 l 1
 59 59 l 1
EndSplineSet
Substitution2: "'sups' Superscript lookup 1 subtable" uni00B2
EndChar

StartChar: three
Encoding: 51 51 21
Width: 495
GlyphClass: 2
Flags: W
LayerCount: 2
Fore
SplineSet
110 34.5 m 0
 77.3330078125 64.1669921875 61.0009765625 104.330078125 61.0009765625 154.997070312 c 2
 61.0009765625 170.997070312 l 1
 134.000976562 170.997070312 l 1
 134.000976562 157.997070312 l 2
 134.000976562 125.997070312 143.833984375 100.830078125 163.500976562 82.4970703125 c 0
 183.16796875 64.1640625 209.66796875 54.9970703125 243.000976562 54.9970703125 c 0
 278.333984375 54.9970703125 306.000976562 65.830078125 326.000976562 87.4970703125 c 0
 346.000976562 109.1640625 356.000976562 138.331054688 356.000976562 174.998046875 c 2
 356.000976562 200.998046875 l 2
 356.000976562 238.998046875 345.500976562 269.165039062 324.500976562 291.498046875 c 0
 303.500976562 313.831054688 274.66796875 324.998046875 238.000976562 324.998046875 c 2
 202.000976562 324.998046875 l 1
 202.000976562 390.998046875 l 1
 237.000976562 390.998046875 l 2
 270.334960938 390.998046875 296.66796875 401.498046875 316.000976562 422.498046875 c 0
 335.333984375 443.498046875 345.000976562 470.998046875 345.000976562 504.998046875 c 2
 345.000976562 524.998046875 l 2
 345.000976562 558.331054688 335.66796875 584.998046875 317.000976562 604.998046875 c 0
 298.333984375 624.998046875 273.000976562 634.998046875 241.000976562 634.998046875 c 0
 209.000976562 634.998046875 184.000976562 625.665039062 166.000976562 606.998046875 c 0
 148.000976562 588.331054688 139.000976562 563.331054688 139.000976562 531.998046875 c 2
 139.000976562 515.998046875 l 1
 69.0009765625 515.998046875 l 1
 69.0009765625 533.998046875 l 2
 69.0009765625 584.665039062 84.5009765625 624.998046875 115.500976562 654.998046875 c 0
 146.500976562 684.998046875 189.000976562 699.998046875 243.000976562 699.998046875 c 0
 296.333984375 699.998046875 338.666992188 684.498046875 370 653.498046875 c 0
 401.333007812 622.498046875 417 580.998046875 417 528.998046875 c 2
 417 506.998046875 l 2
 417 473.665039062 409 444.665039062 393 419.998046875 c 0
 377 395.331054688 356 376.998046875 330 364.998046875 c 1
 362 352.998046875 386.5 332.831054688 403.5 304.498046875 c 0
 420.5 276.165039062 429 242.33203125 429 202.999023438 c 2
 429 178.999023438 l 2
 429 121.666015625 411.833007812 75.8330078125 377.5 41.5 c 0
 343.166992188 7.1669921875 298 -10 242 -10 c 0
 186.666992188 -10 142.666992188 4.8330078125 110 34.5 c 0
EndSplineSet
Substitution2: "'sups' Superscript lookup 1 subtable" uni00B3
EndChar

StartChar: four
Encoding: 52 52 22
Width: 499
GlyphClass: 2
Flags: W
LayerCount: 2
Fore
SplineSet
453 135 m 1
 378 135 l 1
 378 0 l 1
 305 0 l 1
 305 135 l 1
 46 135 l 1
 46 201 l 1
 253 690 l 1
 326 690 l 1
 119 201 l 1
 305 201 l 1
 305 389 l 1
 378 389 l 1
 378 201 l 1
 453 201 l 1
 453 135 l 1
EndSplineSet
EndChar

StartChar: five
Encoding: 53 53 23
Width: 484
GlyphClass: 2
Flags: W
LayerCount: 2
Fore
SplineSet
112.5 33 m 0
 81.5 61.6669921875 65.9990234375 100.666992188 65.9990234375 150 c 2
 65.9990234375 163 l 1
 135.999023438 163 l 1
 135.999023438 156 l 2
 135.999023438 124 144.999023438 99.3330078125 162.999023438 82 c 0
 180.999023438 64.6669921875 206.666015625 56 239.999023438 56 c 0
 309.999023438 56 344.999023438 99.3330078125 344.999023438 186 c 2
 344.999023438 251 l 2
 344.999023438 295 336.499023438 327.833007812 319.499023438 349.5 c 0
 302.499023438 371.166992188 276.33203125 382 240.999023438 382 c 0
 216.33203125 382 195.33203125 375.833007812 177.999023438 363.5 c 0
 160.665039062 351.166992188 148.33203125 334 140.999023438 312 c 1
 76.9990234375 312 l 1
 76.9990234375 690 l 1
 406.999023438 690 l 1
 406.999023438 623 l 1
 143.999023438 623 l 1
 143.999023438 403 l 1
 155.999023438 416.334960938 171.33203125 427.16796875 189.999023438 435.5 c 0
 208.666015625 443.833007812 228.999023438 448 250.999023438 448 c 0
 306.33203125 448 347.999023438 431.333007812 375.999023438 398 c 0
 403.999023438 364.666992188 417.999023438 317 417.999023438 255 c 2
 417.999023438 180 l 2
 417.999023438 120 402.33203125 73.3330078125 370.999023438 40 c 0
 339.666015625 6.6669921875 296.333007812 -10 241 -10 c 0
 186.333007812 -10 143.5 4.3330078125 112.5 33 c 0
EndSplineSet
EndChar

StartChar: six
Encoding: 54 54 24
Width: 494
GlyphClass: 2
Flags: W
LayerCount: 2
Fore
SplineSet
110 42.5 m 0
 76 77.5 58.9990234375 124.666992188 58.9990234375 184 c 2
 58.9990234375 218 l 2
 58.9990234375 242.666992188 62.4990234375 266.666992188 69.4990234375 290 c 0
 76.4990234375 313.333007812 86.666015625 338.333007812 99.9990234375 365 c 2
 260.999023438 690 l 1
 336.999023438 690 l 1
 187.999023438 387 l 1
 195.999023438 393 206.83203125 398 220.499023438 402 c 0
 234.166015625 406 248.333007812 408 262.999023438 408 c 0
 314.33203125 408 355.83203125 391 387.499023438 357 c 0
 419.166015625 323 434.999023438 277.333007812 434.999023438 220 c 2
 434.999023438 186 l 2
 434.999023438 145.333007812 426.83203125 110.333007812 410.499023438 81 c 0
 394.166015625 51.6669921875 371.833007812 29.1669921875 343.5 13.5 c 0
 315.166992188 -2.1669921875 283 -10 247 -10 c 0
 189.666992188 -10 144 7.5 110 42.5 c 0
330.999023438 89.5 m 0
 351.666015625 112.5 362.000976562 143.33203125 362.000976562 181.999023438 c 2
 362.000976562 215.999023438 l 2
 362.000976562 254.666015625 351.66796875 285.333007812 331.000976562 308 c 0
 310.333984375 330.666992188 282.333984375 342 247.000976562 342 c 0
 212.333984375 342 184.666992188 330.833007812 164 308.5 c 0
 143.333007812 286.166992188 133 255.666992188 133 217 c 2
 133 183 l 2
 133 143.666992188 143.166992188 112.5 163.5 89.5 c 0
 183.833007812 66.5 211.666015625 55 246.999023438 55 c 0
 282.33203125 55 310.33203125 66.5 330.999023438 89.5 c 0
EndSplineSet
EndChar

StartChar: seven
Encoding: 55 55 25
Width: 431
GlyphClass: 2
Flags: W
LayerCount: 2
Fore
SplineSet
391 690 m 1
 391 624 l 1
 166 0 l 1
 93 0 l 1
 321 624 l 1
 40 624 l 1
 40 690 l 1
 391 690 l 1
EndSplineSet
EndChar

StartChar: eight
Encoding: 56 56 26
Width: 512
GlyphClass: 2
Flags: W
LayerCount: 2
Fore
SplineSet
157 13.5 m 0
 128.333007812 29.1669921875 105.998046875 51.333984375 89.998046875 80.0009765625 c 0
 73.998046875 108.66796875 65.998046875 141.66796875 65.998046875 179.000976562 c 2
 65.998046875 204.000976562 l 2
 65.998046875 240.000976562 74.498046875 272.16796875 91.498046875 300.500976562 c 0
 108.498046875 328.833984375 131.998046875 350.000976562 161.998046875 364.000976562 c 1
 136.665039062 376.66796875 116.665039062 395.16796875 101.998046875 419.500976562 c 0
 87.3310546875 443.834960938 79.998046875 472.66796875 79.998046875 506.000976562 c 2
 79.998046875 526.000976562 l 2
 79.998046875 558.66796875 87.3310546875 588.16796875 101.998046875 614.500976562 c 0
 116.665039062 640.833984375 137.33203125 661.666992188 163.999023438 677 c 0
 190.666015625 692.333007812 221.333007812 700 256 700 c 0
 291.333007812 700 322.5 692.333007812 349.5 677 c 0
 376.5 661.6640625 397.166992188 640.831054688 411.5 614.5 c 0
 425.833007812 588.166992188 433 558.666992188 433 526 c 2
 433 506 l 2
 433 472.666992188 425.5 443.833984375 410.5 419.500976562 c 0
 395.5 395.16796875 375.333007812 376.66796875 350 364.000976562 c 1
 380.666992188 349.333984375 404.333984375 327.833984375 421.000976562 299.500976562 c 0
 437.66796875 271.16796875 446.000976562 239.66796875 446.000976562 205.000976562 c 2
 446.000976562 180.000976562 l 2
 446.000976562 142.000976562 437.833984375 108.66796875 421.500976562 80.0009765625 c 0
 405.16796875 51.333984375 382.66796875 29.1669921875 354.000976562 13.5 c 0
 325.333984375 -2.1669921875 292.333984375 -10 255.000976562 -10 c 0
 218.333984375 -10 185.666992188 -2.1669921875 157 13.5 c 0
331.498046875 426 m 0
 350.498046875 446.666992188 359.998046875 473.333007812 359.998046875 506 c 2
 359.998046875 527 l 2
 359.998046875 558.333007812 350.331054688 584.166015625 330.998046875 604.499023438 c 0
 311.665039062 624.83203125 286.665039062 634.999023438 255.998046875 634.999023438 c 0
 225.331054688 634.999023438 200.498046875 624.83203125 181.498046875 604.499023438 c 0
 162.498046875 584.165039062 152.998046875 558.33203125 152.998046875 527 c 2
 152.998046875 506 l 2
 152.998046875 473.333007812 162.331054688 446.666015625 180.998046875 426 c 0
 199.665039062 405.333007812 224.665039062 395 255.998046875 395 c 0
 287.331054688 395 312.498046875 405.333007812 331.498046875 426 c 0
340.998046875 89.4990234375 m 0
 362.331054688 112.499023438 372.998046875 142.666015625 372.998046875 179.999023438 c 2
 372.998046875 204.999023438 l 2
 372.998046875 242.33203125 362.498046875 272.499023438 341.498046875 295.499023438 c 0
 320.498046875 318.499023438 291.998046875 329.999023438 255.998046875 329.999023438 c 0
 220.665039062 329.999023438 192.33203125 318.33203125 170.999023438 294.999023438 c 0
 149.666015625 271.666015625 138.999023438 241.666015625 138.999023438 204.999023438 c 2
 138.999023438 179.999023438 l 2
 138.999023438 143.33203125 149.666015625 113.33203125 170.999023438 89.9990234375 c 0
 192.33203125 66.666015625 220.665039062 54.9990234375 255.998046875 54.9990234375 c 0
 291.33203125 54.9990234375 319.665039062 66.4990234375 340.998046875 89.4990234375 c 0
EndSplineSet
EndChar

StartChar: nine
Encoding: 57 57 27
Width: 494
GlyphClass: 2
Flags: W
LayerCount: 2
Fore
SplineSet
306 303 m 1
 298 297 287.168945312 292 273.501953125 288 c 0
 259.834960938 284 245.66796875 282 231.000976562 282 c 0
 179.66796875 282 138.16796875 299.166992188 106.500976562 333.5 c 0
 74.833984375 367.833007812 59.0009765625 413.333007812 59.0009765625 470 c 2
 59.0009765625 504 l 2
 59.0009765625 544.666992188 67.16796875 579.666992188 83.5009765625 609 c 0
 99.833984375 638.333007812 122.166992188 660.833007812 150.5 676.5 c 0
 178.833007812 692.166992188 211 700 247 700 c 0
 304.333007812 700 350 682.5 384 647.5 c 0
 418 612.5 435 565.333007812 435 506 c 2
 435 472 l 2
 435 447.333007812 431.5 423.666015625 424.5 401 c 0
 417.5 378.333007812 407.333007812 353 394 325 c 2
 234 0 l 1
 158 0 l 1
 306 303 l 1
330.501953125 381.5 m 0
 350.834960938 403.833007812 361.000976562 434.333007812 361.000976562 473 c 2
 361.000976562 507 l 2
 361.000976562 546.333007812 350.833984375 577.5 330.500976562 600.5 c 0
 310.16796875 623.5 282.334960938 635 247.001953125 635 c 0
 211.668945312 635 183.668945312 623.5 163.001953125 600.5 c 0
 142.334960938 577.5 132.001953125 546.666992188 132.001953125 508 c 2
 132.001953125 474 l 2
 132.001953125 435.333007812 142.334960938 404.666015625 163.001953125 382 c 0
 183.668945312 359.333007812 211.668945312 348 247.001953125 348 c 0
 282.3359375 348 310.168945312 359.166992188 330.501953125 381.5 c 0
EndSplineSet
EndChar

StartChar: colon
Encoding: 58 58 28
Width: 194
GlyphClass: 2
Flags: W
LayerCount: 2
Fore
SplineSet
53 92 m 1
 141 92 l 1
 141 0 l 1
 53 0 l 1
 53 92 l 1
53 430 m 1
 141 430 l 1
 141 338 l 1
 53 338 l 1
 53 430 l 1
EndSplineSet
EndChar

StartChar: semicolon
Encoding: 59 59 29
Width: 194
GlyphClass: 2
Flags: W
LayerCount: 2
Fore
SplineSet
53 430 m 1
 141 430 l 1
 141 338 l 1
 53 338 l 1
 53 430 l 1
75 93 m 1
 141 93 l 1
 141 -75 l 1
 75 -137 l 1
 75 93 l 1
EndSplineSet
EndChar

StartChar: less
Encoding: 60 60 30
Width: 512
GlyphClass: 2
Flags: W
LayerCount: 2
Fore
SplineSet
57 247 m 1
 57 306 l 1
 455 468 l 1
 455 397 l 1
 150 276 l 1
 455 155 l 1
 455 84 l 1
 57 247 l 1
EndSplineSet
Substitution2: "'rtla' Right to Left Alternates lookup 0 subtable" greater
EndChar

StartChar: equal
Encoding: 61 61 31
Width: 512
GlyphClass: 2
Flags: W
LayerCount: 2
Fore
SplineSet
57 405 m 1
 455 405 l 1
 455 338 l 1
 57 338 l 1
 57 405 l 1
57 213 m 1
 455 213 l 1
 455 147 l 1
 57 147 l 1
 57 213 l 1
EndSplineSet
EndChar

StartChar: greater
Encoding: 62 62 32
Width: 512
GlyphClass: 2
Flags: W
LayerCount: 2
Fore
SplineSet
57 155 m 1
 362 276 l 1
 57 397 l 1
 57 468 l 1
 455 306 l 1
 455 247 l 1
 57 84 l 1
 57 155 l 1
EndSplineSet
Substitution2: "'rtla' Right to Left Alternates lookup 0 subtable" less
EndChar

StartChar: question
Encoding: 63 63 33
Width: 429
GlyphClass: 2
Flags: W
LayerCount: 2
Fore
SplineSet
172 237 m 2
 172 261 174.333984375 280.499023438 179.000976562 295.499023438 c 0
 183.66796875 310.499023438 193.66796875 328.33203125 209.000976562 348.999023438 c 2
 263.000976562 421.999023438 l 2
 281.000976562 445.999023438 293.16796875 465.83203125 299.500976562 481.499023438 c 0
 305.833984375 497.166015625 309.000976562 514.333007812 309.000976562 533 c 0
 309.000976562 565 300.333984375 589.833007812 283.000976562 607.5 c 0
 265.66796875 625.166992188 241.000976562 634 209.000976562 634 c 0
 144.333984375 634 111.333984375 597.666992188 110.000976562 525 c 1
 38.0009765625 525 l 1
 39.333984375 581 54.6669921875 624.166992188 84 654.5 c 0
 113.333007812 684.833007812 155.666015625 700 210.999023438 700 c 0
 263.666015625 700 305.333007812 684.666992188 336 654 c 0
 366.666992188 623.333007812 382 583 382 533 c 0
 382 509 378 487 370 467 c 0
 362 447 349 424.333007812 331 399 c 2
 274 319 l 2
 262.666992188 303 255 289.333007812 251 278 c 0
 247 266.666992188 245 252.666992188 245 236 c 2
 245 178 l 1
 172 178 l 1
 172 237 l 2
164.000976562 92.9990234375 m 1
 253.000976562 92.9990234375 l 1
 253.000976562 -0.0009765625 l 1
 164.000976562 -0.0009765625 l 1
 164.000976562 92.9990234375 l 1
EndSplineSet
EndChar

StartChar: at
Encoding: 64 64 34
Width: 872
GlyphClass: 2
Flags: W
LayerCount: 2
Fore
SplineSet
240 -80.5 m 0
 182.666992188 -48.8330078125 138.166992188 -4.4970703125 106.5 52.5029296875 c 0
 74.8330078125 109.502929688 59 175.002929688 59 249.002929688 c 2
 59 317.002929688 l 2
 59 390.336914062 75 455.169921875 107 511.502929688 c 0
 139 567.8359375 183.5 611.668945312 240.5 643.001953125 c 0
 297.5 674.334960938 362.666992188 690.001953125 436 690.001953125 c 0
 508.666992188 690.001953125 573.666992188 674.334960938 631 643.001953125 c 0
 688.333007812 611.66796875 733 567.834960938 765 511.502929688 c 0
 797 455.169921875 813 391.002929688 813 319.002929688 c 2
 813 252.002929688 l 2
 813 186.669921875 799 137.669921875 771 105.002929688 c 0
 743 72.3359375 706.666992188 56.0029296875 662 56.0029296875 c 0
 634.666992188 56.0029296875 611 62.169921875 591 74.5029296875 c 0
 571 86.8359375 556 104.3359375 546 127.002929688 c 1
 536 103.669921875 520.166992188 86.0029296875 498.5 74.0029296875 c 0
 476.833007812 62.0029296875 450 56.0029296875 418 56.0029296875 c 0
 366.666992188 56.0029296875 329 71.8359375 305 103.502929688 c 0
 281 135.169921875 269 179.669921875 269 237.002929688 c 2
 269 317.002929688 l 2
 269 375.002929688 281 419.8359375 305 451.502929688 c 0
 329 483.169921875 366 499.002929688 416 499.002929688 c 0
 441.333984375 499.002929688 463.666992188 494.169921875 482.999023438 484.502929688 c 0
 502.333984375 474.8359375 517.333984375 461.3359375 527.999023438 444.002929688 c 1
 527.999023438 489.002929688 l 1
 592.999023438 489.002929688 l 1
 592.999023438 200.002929688 l 2
 592.999023438 171.3359375 599.499023438 149.668945312 612.499023438 135.001953125 c 0
 625.499023438 120.334960938 642.33203125 113.001953125 662.999023438 113.001953125 c 0
 688.999023438 113.001953125 708.666015625 123.668945312 721.999023438 145.001953125 c 0
 735.33203125 166.334960938 741.999023438 201.66796875 741.999023438 251.000976562 c 2
 741.999023438 318.000976562 l 2
 741.999023438 380.000976562 729.666015625 434.16796875 704.999023438 480.500976562 c 0
 680.33203125 526.833984375 644.83203125 562.666992188 598.499023438 588 c 0
 552.166015625 613.333007812 497.999023438 626 435.999023438 626 c 0
 373.999023438 626 319.83203125 613.333007812 273.499023438 588 c 0
 227.166015625 562.666015625 191.666015625 526.833007812 166.999023438 480.5 c 0
 142.33203125 434.166992188 129.999023438 380.333984375 129.999023438 319.000976562 c 2
 129.999023438 248.000976562 l 2
 129.999023438 186.66796875 142.33203125 132.500976562 166.999023438 85.5009765625 c 0
 191.666015625 38.5009765625 226.999023438 2.0009765625 272.999023438 -23.9990234375 c 0
 318.999023438 -49.9990234375 373.33203125 -62.9990234375 435.999023438 -62.9990234375 c 0
 479.999023438 -62.9990234375 518.666015625 -58.83203125 551.999023438 -50.4990234375 c 0
 585.33203125 -42.166015625 618.33203125 -29.3330078125 650.999023438 -12 c 1
 674.999023438 -69 l 1
 638.999023438 -89.6669921875 602.166015625 -104.666992188 564.499023438 -114 c 0
 526.83203125 -123.333007812 483.999023438 -128 435.999023438 -128 c 0
 362.666015625 -128 297.333007812 -112.166992188 240 -80.5 c 0
525 237.002929688 m 2
 525 319.002929688 l 2
 525 400.3359375 494 441.002929688 432 441.002929688 c 0
 369.333007812 441.002929688 338 399.3359375 338 316.002929688 c 2
 338 242.002929688 l 2
 338 200.669921875 345.333007812 169.002929688 360 147.002929688 c 0
 374.666992188 125.002929688 398.666992188 114.002929688 432 114.002929688 c 0
 494 114.002929688 525 155.002929688 525 237.002929688 c 2
EndSplineSet
EndChar

StartChar: A
Encoding: 65 65 35
Width: 577
GlyphClass: 2
Flags: W
LayerCount: 2
Fore
SplineSet
435 166 m 1
 142 166 l 1
 84 0 l 1
 7 0 l 1
 258 690 l 1
 319 690 l 1
 570 0 l 1
 493 0 l 1
 435 166 l 1
414 228 m 1
 288 588 l 1
 163 228 l 1
 414 228 l 1
EndSplineSet
EndChar

StartChar: B
Encoding: 66 66 36
Width: 614
GlyphClass: 2
Flags: W
LayerCount: 2
Fore
SplineSet
518.5 294 m 0
 538.166992188 265.333007812 547.998046875 230.33203125 547.998046875 188.999023438 c 0
 547.998046875 129.666015625 529.331054688 83.3330078125 491.998046875 50 c 0
 454.665039062 16.6669921875 403.665039062 0 338.998046875 0 c 2
 79.998046875 0 l 1
 79.998046875 690 l 1
 332.998046875 690 l 2
 397.665039062 690 447.83203125 674.166992188 483.499023438 642.5 c 0
 519.166015625 610.833007812 536.999023438 566 536.999023438 508 c 0
 536.999023438 472.666992188 527.666015625 441 508.999023438 413 c 0
 490.33203125 385 464.33203125 365.666992188 430.999023438 355 c 1
 469.666015625 343 498.833007812 322.666992188 518.5 294 c 0
152.998046875 624.999023438 m 1
 152.998046875 384.999023438 l 1
 324.998046875 384.999023438 l 2
 368.331054688 384.999023438 402.331054688 394.83203125 426.998046875 414.499023438 c 0
 451.665039062 434.166015625 463.998046875 463.999023438 463.998046875 503.999023438 c 0
 463.998046875 543.999023438 451.998046875 574.166015625 427.998046875 594.499023438 c 0
 403.998046875 614.83203125 369.998046875 624.999023438 325.998046875 624.999023438 c 2
 152.998046875 624.999023438 l 1
436.998046875 97.9990234375 m 0
 462.331054688 119.999023438 474.998046875 152 474.998046875 194 c 0
 474.998046875 235.333007812 462.498046875 266.666015625 437.498046875 287.999023438 c 0
 412.498046875 309.33203125 376.998046875 319.999023438 330.998046875 319.999023438 c 2
 152.998046875 319.999023438 l 1
 152.998046875 64.9990234375 l 1
 329.998046875 64.9990234375 l 2
 375.998046875 64.9990234375 411.665039062 75.9990234375 436.998046875 97.9990234375 c 0
EndSplineSet
EndChar

StartChar: C
Encoding: 67 67 37
Width: 610
GlyphClass: 2
Flags: W
LayerCount: 2
Fore
SplineSet
132 55.5 m 0
 88 97.8330078125 65.9990234375 164.666015625 65.9990234375 255.999023438 c 2
 65.9990234375 434.999023438 l 2
 65.9990234375 526.33203125 87.9990234375 593.165039062 131.999023438 635.498046875 c 0
 175.999023438 677.831054688 234.999023438 698.998046875 308.999023438 698.998046875 c 0
 355.666015625 698.998046875 396.833007812 690.331054688 432.5 672.998046875 c 0
 468.166992188 655.665039062 495.666992188 630.998046875 515 598.998046875 c 0
 534.333007812 566.998046875 544 529.998046875 544 487.998046875 c 2
 544 484.998046875 l 1
 471 484.998046875 l 1
 471 487.998046875 l 2
 471 532.665039062 456.5 567.998046875 427.5 593.998046875 c 0
 398.5 619.998046875 359 632.998046875 309 632.998046875 c 0
 253.666992188 632.998046875 211.5 617.331054688 182.5 585.998046875 c 0
 153.5 554.665039062 139 503.33203125 139 431.999023438 c 2
 139 251.999023438 l 2
 139 123.33203125 196 58.9990234375 310 58.9990234375 c 0
 360 58.9990234375 399.333007812 71.83203125 428 97.4990234375 c 0
 456.666992188 123.166015625 471 158.333007812 471 203 c 2
 471 207 l 1
 542 207 l 1
 542 203 l 2
 542 138.333007812 521 87 479 49 c 0
 437 11 380.333007812 -8 309 -8 c 0
 235 -8 176 13.1669921875 132 55.5 c 0
EndSplineSet
EndChar

StartChar: D
Encoding: 68 68 38
Width: 621
GlyphClass: 2
Flags: W
LayerCount: 2
Fore
SplineSet
80 690 m 1
 316 689.999023438 l 2
 389.333007812 689.999023438 447.5 668.83203125 490.5 626.499023438 c 0
 533.5 584.165039062 555 517.33203125 555 425.999023438 c 2
 555 263.999023438 l 2
 555 172.666015625 533.5 105.833007812 490.5 63.5 c 0
 447.5 21.1669921875 389.333007812 0 316 0 c 2
 80 0 l 1
 80 690 l 1
317 65.9990234375 m 2
 426.333007812 65.9990234375 481 130.666015625 481 259.999023438 c 2
 481 422.999023438 l 2
 481 492.999023438 466.833007812 543.999023438 438.5 575.999023438 c 0
 410.166992188 607.999023438 369.666992188 623.999023438 317 623.999023438 c 2
 154 623.999023438 l 1
 154 65.9990234375 l 1
 317 65.9990234375 l 2
EndSplineSet
EndChar

StartChar: E
Encoding: 69 69 39
Width: 547
GlyphClass: 2
Flags: W
LayerCount: 2
Fore
SplineSet
153 624 m 1
 153 384 l 1
 449 384 l 1
 449 318 l 1
 153 318 l 1
 153 66 l 1
 499 66 l 1
 499 0 l 1
 80 0 l 1
 80 690 l 1
 499 690 l 1
 499 624 l 1
 153 624 l 1
EndSplineSet
EndChar

StartChar: F
Encoding: 70 70 40
Width: 539
GlyphClass: 2
Flags: W
LayerCount: 2
Fore
SplineSet
153 624 m 1
 153 382 l 1
 449 382 l 1
 449 316 l 1
 153 316 l 1
 153 0 l 1
 80 0 l 1
 80 690 l 1
 499 690 l 1
 499 624 l 1
 153 624 l 1
EndSplineSet
EndChar

StartChar: G
Encoding: 71 71 41
Width: 610
GlyphClass: 2
Flags: W
LayerCount: 2
Fore
SplineSet
131.5 55.5 m 0
 87.8330078125 97.8330078125 65.9990234375 164.66796875 65.9990234375 256.000976562 c 2
 65.9990234375 435.000976562 l 2
 65.9990234375 526.333984375 87.83203125 593.166992188 131.499023438 635.5 c 0
 175.166015625 677.833007812 233.666015625 699 306.999023438 699 c 0
 354.333007812 699 395.666015625 690.333007812 430.999023438 673 c 0
 466.333007812 655.666992188 493.666015625 631.166992188 512.999023438 599.5 c 0
 532.33203125 567.833007812 541.999023438 531.333007812 541.999023438 490 c 2
 541.999023438 486 l 1
 468.999023438 486 l 1
 468.999023438 490 l 2
 468.999023438 534 454.499023438 568.833007812 425.499023438 594.5 c 0
 396.499023438 620.166992188 357.33203125 633 307.999023438 633 c 0
 252.666015625 633 210.666015625 617.166992188 181.999023438 585.5 c 0
 153.33203125 553.833007812 138.999023438 502.666015625 138.999023438 431.999023438 c 2
 138.999023438 251.999023438 l 2
 138.999023438 123.33203125 195.666015625 58.9990234375 308.999023438 58.9990234375 c 0
 361.666015625 58.9990234375 401.833007812 73.33203125 429.5 101.999023438 c 0
 457.166992188 130.666015625 471 176.333007812 471 239 c 2
 471 292 l 1
 306 292 l 1
 306 355 l 1
 544 355 l 1
 544 252 l 2
 544 161.333007812 522.666992188 95.3330078125 480 54 c 0
 437.333007812 12.6669921875 379.666015625 -8 307 -8 c 0
 233.666992188 -8 175.166992188 13.1669921875 131.5 55.5 c 0
EndSplineSet
EndChar

StartChar: H
Encoding: 72 72 42
Width: 629
GlyphClass: 2
Flags: W
LayerCount: 2
Fore
SplineSet
549 690 m 1
 549 0 l 1
 476 0 l 1
 476 320 l 1
 153 320 l 1
 153 0 l 1
 80 0 l 1
 80 690 l 1
 153 690 l 1
 153 386 l 1
 476 386 l 1
 476 690 l 1
 549 690 l 1
EndSplineSet
EndChar

StartChar: I
Encoding: 73 73 43
Width: 249
GlyphClass: 2
Flags: W
LayerCount: 2
Fore
SplineSet
88 690 m 1
 161 690 l 1
 161 0 l 1
 88 0 l 1
 88 690 l 1
EndSplineSet
EndChar

StartChar: J
Encoding: 74 74 44
Width: 313
GlyphClass: 2
Flags: W
LayerCount: 2
Fore
SplineSet
32 66 m 1
 88.9990234375 66 l 2
 111.666015625 66 127.833007812 72 137.5 84 c 0
 147.166992188 96 152 115.333007812 152 142 c 2
 152 690 l 1
 225 690 l 1
 225 133 l 2
 225 89.6669921875 214.333007812 56.6669921875 193 34 c 0
 171.666992188 11.3330078125 140.666992188 0 100 0 c 2
 32 0 l 1
 32 66 l 1
EndSplineSet
EndChar

StartChar: K
Encoding: 75 75 45
Width: 598
GlyphClass: 2
Flags: W
LayerCount: 2
Fore
SplineSet
294 364 m 1
 153 190 l 1
 153 0 l 1
 80 0 l 1
 80 690 l 1
 153 690 l 1
 153 288 l 1
 472 690 l 1
 559 690 l 1
 341 421 l 1
 590 0 l 1
 505 0 l 1
 294 364 l 1
EndSplineSet
EndChar

StartChar: L
Encoding: 76 76 46
Width: 529
GlyphClass: 2
Flags: W
LayerCount: 2
Fore
SplineSet
80 690 m 1
 153 690 l 1
 153 66 l 1
 497 66 l 1
 497 0 l 1
 80 0 l 1
 80 690 l 1
EndSplineSet
EndChar

StartChar: M
Encoding: 77 77 47
Width: 753
GlyphClass: 2
Flags: W
LayerCount: 2
Fore
SplineSet
673 690 m 1
 673 0 l 1
 600 0 l 1
 600 540 l 1
 405 138 l 1
 349 138 l 1
 153 540 l 1
 153 0 l 1
 80 0 l 1
 80 690 l 1
 153 690 l 1
 377 225 l 1
 600 690 l 1
 673 690 l 1
EndSplineSet
EndChar

StartChar: N
Encoding: 78 78 48
Width: 663
GlyphClass: 2
Flags: W
LayerCount: 2
Fore
SplineSet
583 690 m 1
 583 0 l 1
 510 0 l 1
 153 556 l 1
 153 0 l 1
 80 0 l 1
 80 690 l 1
 153 690 l 1
 510 136 l 1
 510 690 l 1
 583 690 l 1
EndSplineSet
EndChar

StartChar: O
Encoding: 79 79 49
Width: 610
GlyphClass: 2
Flags: W
LayerCount: 2
Fore
SplineSet
130.5 55.5 m 0
 87.5 97.8330078125 66.0009765625 164.666992188 66.0009765625 256 c 2
 66.0009765625 435 l 2
 66.0009765625 526.333007812 87.66796875 593.166015625 131.000976562 635.499023438 c 0
 174.333984375 677.83203125 232.666992188 698.999023438 306 698.999023438 c 0
 378.666992188 698.999023438 436.5 677.83203125 479.5 635.499023438 c 0
 522.5 593.165039062 544 526.33203125 544 434.999023438 c 2
 544 255.999023438 l 2
 544 164.666015625 522.333007812 97.8330078125 479 55.5 c 0
 435.666992188 13.1669921875 377.666992188 -8 305 -8 c 0
 231.666992188 -8 173.5 13.1669921875 130.5 55.5 c 0
471.000976562 252.000976562 m 2
 471.000976562 432.001953125 l 2
 471.000976562 566.001953125 416.000976562 633.001953125 306.000976562 633.001953125 c 0
 250.66796875 633.001953125 209.000976562 617.168945312 181.000976562 585.501953125 c 0
 153.000976562 553.834960938 139.000976562 502.66796875 139.000976562 432.000976562 c 2
 139.000976562 252.000976562 l 2
 139.000976562 184.66796875 153.16796875 135.66796875 181.500976562 105.000976562 c 0
 209.833984375 74.333984375 251.333984375 59.0009765625 306.000976562 59.0009765625 c 0
 416.000976562 59.0009765625 471.000976562 123.333984375 471.000976562 252.000976562 c 2
EndSplineSet
EndChar

StartChar: P
Encoding: 80 80 50
Width: 577
GlyphClass: 2
Flags: W
LayerCount: 2
Fore
SplineSet
487 636.5 m 0
 525.666992188 600.833007812 545 550 545 484 c 0
 545 422 525.5 373.333007812 486.5 338 c 0
 447.5 302.666992188 394.666992188 285 328 285 c 2
 153 285 l 1
 153 0 l 1
 80 0 l 1
 80 690 l 1
 328 690 l 2
 395.333007812 690 448.333007812 672.166992188 487 636.5 c 0
433 384 m 0
 459 406 472 439.333007812 472 484 c 0
 472 531.333007812 459 566.5 433 589.5 c 0
 407 612.5 370 624 322 624 c 2
 153 624 l 1
 153 351 l 1
 322 351 l 2
 370 351 407 362 433 384 c 0
EndSplineSet
EndChar

StartChar: Q
Encoding: 81 81 51
Width: 610
GlyphClass: 2
Flags: W
LayerCount: 2
Fore
SplineSet
432 20 m 1
 507.000976562 -118.998046875 l 1
 450.000976562 -150.998046875 l 1
 369.000976562 -1.998046875 l 1
 349.000976562 -5.998046875 327.66796875 -7.998046875 305.000976562 -7.998046875 c 0
 231.66796875 -7.998046875 173.500976562 13.1689453125 130.500976562 55.501953125 c 0
 87.5009765625 97.8349609375 66.0009765625 164.66796875 66.0009765625 256.000976562 c 2
 66.0009765625 435.000976562 l 2
 66.0009765625 526.333984375 87.66796875 593.166992188 131.000976562 635.5 c 0
 174.333984375 677.833007812 232.666992188 699 306 699 c 0
 378.666992188 699 436.5 677.833007812 479.5 635.5 c 0
 522.5 593.166015625 544 526.333007812 544 435 c 2
 544 256 l 2
 544 138 506.666992188 59.3330078125 432 20 c 1
471.000976562 432.001953125 m 2
 471.000976562 566.001953125 416.000976562 633.002929688 306.000976562 633.002929688 c 0
 250.66796875 633.002929688 209.000976562 617.169921875 181.000976562 585.502929688 c 0
 153.000976562 553.8359375 139.000976562 502.668945312 139.000976562 432.001953125 c 2
 139.000976562 252.001953125 l 2
 139.000976562 184.668945312 153.16796875 135.668945312 181.500976562 105.001953125 c 0
 209.833984375 74.3349609375 251.333984375 59.001953125 306.000976562 59.001953125 c 0
 416.000976562 59.001953125 471.000976562 123.334960938 471.000976562 252.001953125 c 2
 471.000976562 432.001953125 l 2
EndSplineSet
EndChar

StartChar: R
Encoding: 82 82 52
Width: 599
GlyphClass: 2
Flags: W
LayerCount: 2
Fore
SplineSet
319 303 m 1
 153 303 l 1
 153 0 l 1
 80 0 l 1
 80 690 l 1
 336 690 l 2
 400.666992188 690 451.5 673.166992188 488.5 639.5 c 0
 525.5 605.833007812 544 558 544 496 c 0
 544 446.666992188 531 406 505 374 c 0
 479 342 442.666992188 320.666992188 396 310 c 1
 559 0 l 1
 475 0 l 1
 319 303 l 1
153 366 m 1
 329.998046875 365.999023438 l 2
 374.665039062 365.999023438 409.33203125 377.166015625 433.999023438 399.499023438 c 0
 458.666015625 421.833007812 470.999023438 453.666015625 470.999023438 494.999023438 c 0
 470.999023438 537.666992188 458.83203125 569.833984375 434.499023438 591.5 c 0
 410.166015625 613.166992188 375.333007812 624 330 624 c 2
 153 624 l 1
 153 366 l 1
EndSplineSet
EndChar

StartChar: S
Encoding: 83 83 53
Width: 546
GlyphClass: 2
Flags: W
LayerCount: 2
Fore
SplineSet
101 45 m 0
 61.6669921875 79 38.9970703125 129.001953125 32.9970703125 195.001953125 c 1
 104.997070312 195.001953125 l 1
 114.330078125 103.668945312 168.997070312 58.001953125 268.997070312 58.001953125 c 0
 320.997070312 58.001953125 360.497070312 69.001953125 387.497070312 91.001953125 c 0
 414.497070312 113.001953125 427.997070312 145.001953125 427.997070312 187.001953125 c 0
 427.997070312 225.001953125 417.330078125 253.668945312 395.997070312 273.001953125 c 0
 374.6640625 292.3359375 342.331054688 305.668945312 298.998046875 313.000976562 c 2
 220.998046875 326.000976562 l 2
 164.998046875 335.333984375 121.998046875 354.500976562 91.998046875 383.500976562 c 0
 61.998046875 412.500976562 46.998046875 453.333984375 46.998046875 506.000976562 c 0
 46.998046875 566.66796875 67.3310546875 614.000976562 107.998046875 648.000976562 c 0
 148.665039062 682.000976562 202.33203125 699.000976562 268.999023438 699.000976562 c 0
 330.33203125 699.000976562 380.499023438 683.16796875 419.499023438 651.500976562 c 0
 458.499023438 619.833984375 481.666015625 571.666992188 488.999023438 507 c 1
 416.999023438 507 l 1
 408.999023438 593 359.33203125 636 267.999023438 636 c 0
 220.666015625 636 183.833007812 624.833007812 157.5 602.5 c 0
 131.166992188 580.166992188 118 549.666992188 118 511 c 0
 118 477 128.166992188 450.5 148.5 431.5 c 0
 168.833007812 412.5 199.666015625 399.333007812 240.999023438 392 c 2
 320.999023438 378 l 2
 378.999023438 368 423.33203125 348 453.999023438 318 c 0
 484.666015625 288 499.999023438 245.666992188 499.999023438 191 c 0
 499.999023438 128.333007812 478.999023438 79.8330078125 436.999023438 45.5 c 0
 394.999023438 11.1669921875 337.33203125 -6 263.999023438 -6 c 0
 194.666015625 -6 140.333007812 11 101 45 c 0
EndSplineSet
EndChar

StartChar: T
Encoding: 84 84 54
Width: 482
GlyphClass: 2
Flags: W
LayerCount: 2
Fore
SplineSet
474 624 m 1
 277 624 l 1
 277 0 l 1
 205 0 l 1
 205 624 l 1
 8 624 l 1
 8 690 l 1
 474 690 l 1
 474 624 l 1
EndSplineSet
EndChar

StartChar: U
Encoding: 85 85 55
Width: 635
GlyphClass: 2
Flags: W
LayerCount: 2
Fore
SplineSet
196 23 m 0
 160 42.3330078125 131.666992188 69.6669921875 111 105 c 0
 90.3330078125 140.333007812 80 180.333007812 80 225 c 2
 80 690 l 1
 154 690 l 1
 154 231 l 2
 154 178.333007812 168.833007812 136.5 198.5 105.5 c 0
 228.166992188 74.5 268 59 318 59 c 0
 367.333007812 59 407 74.5 437 105.5 c 0
 467 136.5 482 178.333007812 482 231 c 2
 482 690 l 1
 555 690 l 1
 555 225 l 2
 555 179.666992188 544.833007812 139.5 524.5 104.5 c 0
 504.166992188 69.5 476 42.3330078125 440 23 c 0
 404 3.6669921875 363.333007812 -6 318 -6 c 0
 272.666992188 -6 232 3.6669921875 196 23 c 0
EndSplineSet
EndChar

StartChar: V
Encoding: 86 86 56
Width: 523
GlyphClass: 2
Flags: W
LayerCount: 2
Fore
SplineSet
7 690 m 1
 83 690 l 1
 262 118 l 1
 440 690 l 1
 516 690 l 1
 291 0 l 1
 231 0 l 1
 7 690 l 1
EndSplineSet
EndChar

StartChar: W
Encoding: 87 87 57
Width: 796
GlyphClass: 2
Flags: W
LayerCount: 2
Fore
SplineSet
789 690 m 1
 616 0 l 1
 551 0 l 1
 398 599 l 1
 249 0 l 1
 184 0 l 1
 7 690 l 1
 78 690 l 1
 218 118 l 1
 353 690 l 1
 446 690 l 1
 586 118 l 1
 721 690 l 1
 789 690 l 1
EndSplineSet
EndChar

StartChar: X
Encoding: 88 88 58
Width: 566
GlyphClass: 2
Flags: W
LayerCount: 2
Fore
SplineSet
239 359 m 1
 26 690 l 1
 114 690 l 1
 283 419 l 1
 452 690 l 1
 537 690 l 1
 326 362 l 1
 559 0 l 1
 471 0 l 1
 281 301 l 1
 92 0 l 1
 7 0 l 1
 239 359 l 1
EndSplineSet
EndChar

StartChar: Y
Encoding: 89 89 59
Width: 499
GlyphClass: 2
Flags: W
LayerCount: 2
Fore
SplineSet
286 289 m 1
 286 0 l 1
 213 0 l 1
 213 290 l 1
 7 690 l 1
 86 690 l 1
 249 359 l 1
 413 690 l 1
 492 690 l 1
 286 289 l 1
EndSplineSet
EndChar

StartChar: Z
Encoding: 90 90 60
Width: 516
GlyphClass: 2
Flags: W
LayerCount: 2
Fore
SplineSet
480 66 m 1
 480 0 l 1
 40 0 l 1
 40 66 l 1
 394 624 l 1
 53 624 l 1
 53 690 l 1
 477 690 l 1
 477 624 l 1
 123 66 l 1
 480 66 l 1
EndSplineSet
EndChar

StartChar: bracketleft
Encoding: 91 91 61
Width: 295
GlyphClass: 2
Flags: W
LayerCount: 2
Fore
SplineSet
80 740 m 1
 236 740 l 1
 236 674 l 1
 150 674 l 1
 150 -18 l 1
 236 -18 l 1
 236 -84 l 1
 80 -84 l 1
 80 740 l 1
EndSplineSet
Substitution2: "'rtla' Right to Left Alternates lookup 0 subtable" bracketright
EndChar

StartChar: backslash
Encoding: 92 92 62
Width: 392
GlyphClass: 2
Flags: W
LayerCount: 2
Fore
SplineSet
59 690 m 1
 119 690 l 1
 333 -10 l 1
 273 -10 l 1
 59 690 l 1
EndSplineSet
EndChar

StartChar: bracketright
Encoding: 93 93 63
Width: 295
GlyphClass: 2
Flags: W
LayerCount: 2
Fore
SplineSet
59 -18 m 1
 145 -18 l 1
 145 674 l 1
 59 674 l 1
 59 740 l 1
 215 740 l 1
 215 -84 l 1
 59 -84 l 1
 59 -18 l 1
EndSplineSet
Substitution2: "'rtla' Right to Left Alternates lookup 0 subtable" bracketleft
EndChar

StartChar: asciicircum
Encoding: 94 94 64
Width: 512
GlyphClass: 2
Flags: W
LayerCount: 2
Fore
SplineSet
227 690 m 1
 286 690 l 1
 459 285 l 1
 399 285 l 1
 256 626 l 1
 114 285 l 1
 54 285 l 1
 227 690 l 1
EndSplineSet
EndChar

StartChar: underscore
Encoding: 95 95 65
Width: 457
GlyphClass: 2
Flags: W
LayerCount: 2
Fore
SplineSet
0 -54 m 1
 457 -54 l 1
 457 -104 l 1
 0 -104 l 1
 0 -54 l 1
EndSplineSet
EndChar

StartChar: grave
Encoding: 96 96 66
Width: 500
GlyphClass: 2
Flags: W
LayerCount: 2
Fore
SplineSet
148 697 m 1
 232 697 l 1
 331 572 l 1
 268 572 l 1
 148 697 l 1
EndSplineSet
EndChar

StartChar: a
Encoding: 97 97 67
Width: 497
GlyphClass: 2
Flags: W
LayerCount: 2
Fore
SplineSet
374.5 471 m 0
 406.166992188 442.333007812 422.000976562 400.333007812 422.000976562 345 c 2
 422.000976562 0 l 1
 355.000976562 0 l 1
 355.000976562 54 l 1
 339.66796875 33.3330078125 320.66796875 18.166015625 298.000976562 8.4990234375 c 0
 275.333984375 -1.16796875 247.666992188 -6.0009765625 215 -6.0009765625 c 0
 161.666992188 -6.0009765625 120.333984375 6.666015625 91.0009765625 31.9990234375 c 0
 61.66796875 57.33203125 47.0009765625 94.33203125 47.0009765625 142.999023438 c 0
 47.0009765625 188.33203125 61.833984375 223.83203125 91.5009765625 249.499023438 c 0
 121.16796875 275.166015625 163.000976562 287.999023438 217.000976562 287.999023438 c 2
 354.000976562 287.999023438 l 1
 354.000976562 345.999023438 l 2
 354.000976562 382.666015625 344.000976562 410.333007812 324.000976562 429 c 0
 304.000976562 447.666992188 275.66796875 457 239.000976562 457 c 0
 204.333984375 457 177.166992188 449.166992188 157.5 433.5 c 0
 137.833007812 417.833007812 128 396.333007812 128 369 c 2
 128 366 l 1
 62 366 l 1
 62 371 l 2
 62 414.333007812 77.6669921875 449 109 475 c 0
 140.333007812 501 183.333007812 514 238 514 c 0
 297.333007812 514 342.833007812 499.666992188 374.5 471 c 0
323.500976562 79.5 m 0
 343.833984375 99.8330078125 354.000976562 130.666992188 354.000976562 172 c 2
 354.000976562 238 l 1
 227.000976562 238 l 2
 152.333984375 238 115.000976562 206.666992188 115.000976562 144 c 0
 115.000976562 80.6669921875 152.000976562 49 226.000976562 49 c 0
 270.66796875 49 303.16796875 59.1669921875 323.500976562 79.5 c 0
EndSplineSet
EndChar

StartChar: b
Encoding: 98 98 68
Width: 510
GlyphClass: 2
Flags: W
LayerCount: 2
Fore
SplineSet
143 67 m 1
 143.000976562 0.0009765625 l 1
 75.0009765625 0.0009765625 l 1
 75.0009765625 690.000976562 l 1
 143.000976562 690.000976562 l 1
 143.000976562 436.000976562 l 1
 157.000976562 461.334960938 175.16796875 480.66796875 197.500976562 494 c 0
 219.833984375 507.333007812 245.666992188 514 275 514 c 0
 327 514 369.333007812 497.166992188 402 463.5 c 0
 434.666992188 429.833007812 451 377.333007812 451 306 c 2
 451 202 l 2
 451 130.666992188 435 78.1669921875 403 44.5 c 0
 371 10.8330078125 330 -6 280 -6 c 0
 216.666992188 -6 171 18.3330078125 143 67 c 1
383.000976562 206.000976562 m 2
 383.001953125 302 l 2
 383.001953125 402 344.001953125 452 266.001953125 452 c 0
 225.334960938 452 194.66796875 437.833007812 174.000976562 409.5 c 0
 153.333984375 381.166992188 143.000976562 343.333984375 143.000976562 296.000976562 c 2
 143.000976562 207.000976562 l 2
 143.000976562 162.333984375 153.833984375 125.833984375 175.500976562 97.5009765625 c 0
 197.16796875 69.16796875 228.66796875 55.0009765625 270.000976562 55.0009765625 c 0
 345.333984375 55.0009765625 383.000976562 105.333984375 383.000976562 206.000976562 c 2
EndSplineSet
EndChar

StartChar: c
Encoding: 99 99 69
Width: 503
GlyphClass: 2
Flags: W
LayerCount: 2
Fore
SplineSet
112.5 43.5 m 0
 76.8330078125 76.5 59 129.33203125 59 201.999023438 c 2
 59 305.999023438 l 2
 59 377.999023438 76.8330078125 430.666015625 112.5 463.999023438 c 0
 148.166992188 497.33203125 196 513.999023438 256 513.999023438 c 0
 314 513.999023438 359.833007812 498.666015625 393.5 467.999023438 c 0
 427.166992188 437.33203125 444 396.33203125 444 344.999023438 c 2
 444 339.999023438 l 1
 378 339.999023438 l 1
 378 344.999023438 l 2
 378 378.999023438 367.333007812 405.33203125 346 423.999023438 c 0
 324.666992188 442.666015625 295.666992188 451.999023438 259 451.999023438 c 0
 217.666992188 451.999023438 185.333984375 440.83203125 162.000976562 418.499023438 c 0
 138.66796875 396.166015625 127.000976562 357.333007812 127.000976562 302 c 2
 127.000976562 206 l 2
 127.000976562 150 138.500976562 110.833007812 161.500976562 88.5 c 0
 184.500976562 66.1669921875 216.66796875 55 258.000976562 55 c 0
 295.334960938 55 324.66796875 64.3330078125 346.000976562 83 c 0
 367.333984375 101.666992188 378.000976562 128 378.000976562 162 c 2
 378.000976562 167 l 1
 444.000976562 167 l 1
 444.000976562 163 l 2
 444.000976562 111.666992188 427.000976562 70.6669921875 393.000976562 40 c 0
 359.000976562 9.3330078125 313.66796875 -6 257.000976562 -6 c 0
 196.333984375 -6 148.166992188 10.5 112.5 43.5 c 0
EndSplineSet
EndChar

StartChar: d
Encoding: 100 100 70
Width: 511
GlyphClass: 2
Flags: W
LayerCount: 2
Fore
SplineSet
107 44.5 m 0
 75 78.1669921875 59.0009765625 130.666992188 59.0009765625 202 c 2
 59.0009765625 306 l 2
 59.0009765625 377.333007812 75.0009765625 429.833007812 107.000976562 463.5 c 0
 139.000976562 497.166992188 180.333984375 514 231.000976562 514 c 0
 292.333984375 514 337.666992188 488 367 436 c 1
 367 690 l 1
 436 690 l 1
 436 0 l 1
 367 0 l 1
 367 67 l 1
 353.666992188 43 335.5 24.8330078125 312.5 12.5 c 0
 289.5 0.1669921875 262 -6 230 -6 c 0
 180 -6 139 10.8330078125 107 44.5 c 0
335.000976562 97 m 0
 356.333984375 125 367.000976562 161.666992188 367.000976562 207 c 2
 367.000976562 296 l 2
 367.000976562 343.333984375 356.66796875 381.166992188 336.000976562 409.5 c 0
 315.333984375 437.833007812 284.666992188 452 244.000976562 452 c 0
 166.66796875 452 128.000976562 402 128.000976562 302 c 2
 128.000976562 206 l 2
 128.000976562 105.333007812 165.333984375 55 240.000976562 55 c 0
 282.000976562 55 313.66796875 69 335.000976562 97 c 0
EndSplineSet
EndChar

StartChar: e
Encoding: 101 101 71
Width: 503
GlyphClass: 2
Flags: W
LayerCount: 2
Fore
SplineSet
127 240 m 1
 127 210 l 2
 127 152.666992188 138.666992188 112.5 162 89.5 c 0
 185.333007812 66.5 217.666015625 55 258.999023438 55 c 0
 294.999023438 55 323.166015625 63.6669921875 343.499023438 81 c 0
 363.83203125 98.3330078125 373.999023438 122.333007812 373.999023438 153 c 2
 373.999023438 156 l 1
 439.999023438 156 l 1
 439.999023438 151 l 2
 439.999023438 103.666992188 423.499023438 65.6669921875 390.499023438 37 c 0
 357.499023438 8.3330078125 311.999023438 -6 253.999023438 -6 c 0
 194.666015625 -6 147.333007812 11.6669921875 112 47 c 0
 76.6669921875 82.3330078125 59 137.333007812 59 212 c 2
 59 300 l 2
 59 372.666992188 76.6669921875 426.5 112 461.5 c 0
 147.333007812 496.5 194 514 252 514 c 0
 310 514 356.5 496.5 391.5 461.5 c 0
 426.5 426.5 444 372.666992188 444 300 c 2
 444 240 l 1
 127 240 l 1
161 418.5 m 0
 138.333007812 396.166992188 127 357.333007812 127 302 c 2
 127 291 l 1
 376 291 l 1
 376 309 l 2
 376 361.666992188 365 398.666992188 343 420 c 0
 321 441.333007812 290.666992188 452 252 452 c 0
 214 452 183.666992188 440.833007812 161 418.5 c 0
EndSplineSet
EndChar

StartChar: f
Encoding: 102 102 72
Width: 327
GlyphClass: 2
Flags: W
LayerCount: 2
Fore
SplineSet
183 567 m 2
 183 507 l 1
 289 507 l 1
 289 453 l 1
 183 453 l 1
 183 0 l 1
 114 0 l 1
 114 453 l 1
 50 453 l 1
 50 507 l 1
 114 507 l 1
 114 564 l 2
 114 602.66796875 124.833007812 633.334960938 146.5 656 c 0
 168.166992188 678.666992188 198 690 236 690 c 2
 289 690 l 1
 289 636 l 1
 247 636 l 2
 204.333007812 636 183 613 183 567 c 2
EndSplineSet
EndChar

StartChar: g
Encoding: 103 103 73
Width: 511
GlyphClass: 2
Flags: W
LayerCount: 2
Fore
SplineSet
120.5 -122 m 0
 88.8330078125 -98 71.3330078125 -65.66796875 68 -25.0009765625 c 1
 136 -25.0009765625 l 1
 139.333007812 -47.0009765625 150.833007812 -64.833984375 170.5 -78.5009765625 c 0
 190.166992188 -92.16796875 216 -99.0009765625 248 -99.0009765625 c 0
 327.333007812 -99.0009765625 367 -54.66796875 367 33.9990234375 c 2
 367 104.999023438 l 1
 353.666992188 80.9990234375 335.5 62.666015625 312.5 49.9990234375 c 0
 289.5 37.33203125 262 30.9990234375 230 30.9990234375 c 0
 180 30.9990234375 139 47.83203125 107 81.4990234375 c 0
 75 115.166015625 59 167.999023438 59 239.999023438 c 2
 59 309.999023438 l 2
 59 381.333007812 75 433.666015625 107 466.999023438 c 0
 139 500.33203125 180.333007812 516.999023438 231 516.999023438 c 0
 293 516.999023438 338.333007812 491.33203125 367 439.999023438 c 1
 367 510.999023438 l 1
 436 510.999023438 l 1
 436 39.9990234375 l 2
 436 -21.333984375 419.5 -69.6669921875 386.5 -105 c 0
 353.5 -140.333007812 307.333007812 -158 248 -158 c 0
 194.666992188 -158 152.166992188 -146 120.5 -122 c 0
335 134.999023438 m 0
 356.333007812 162.999023438 367 199.666015625 367 244.999023438 c 2
 367 299.999023438 l 2
 367 347.333007812 356.666992188 385.166015625 336 413.499023438 c 0
 315.333007812 441.83203125 284.666015625 455.999023438 244 455.999023438 c 0
 166.666992188 455.999023438 128 405.666015625 128 304.999023438 c 2
 128 243.999023438 l 2
 128 143.33203125 165.333007812 92.9990234375 240 92.9990234375 c 0
 282 92.9990234375 313.666992188 106.999023438 335 134.999023438 c 0
EndSplineSet
EndChar

StartChar: h
Encoding: 104 104 74
Width: 522
GlyphClass: 2
Flags: W
LayerCount: 2
Fore
SplineSet
75 690 m 1
 142.999023438 689.998046875 l 1
 142.999023438 444.998046875 l 1
 173.666015625 490.331054688 218.999023438 512.998046875 278.999023438 512.998046875 c 0
 331.666015625 512.998046875 372.833007812 497.331054688 402.5 465.998046875 c 0
 432.166992188 434.665039062 447 390.33203125 447 332.999023438 c 2
 447 -0.0009765625 l 1
 379 -0.0009765625 l 1
 379 322.999023438 l 2
 379 364.999023438 368.666992188 396.999023438 348 418.999023438 c 0
 327.333007812 440.999023438 298.666015625 451.999023438 262 451.999023438 c 0
 226 451.999023438 197.166992188 440.83203125 175.5 418.499023438 c 0
 153.833007812 396.166015625 143 364.333007812 143 323 c 2
 143 0 l 1
 75 0 l 1
 75 690 l 1
EndSplineSet
EndChar

StartChar: i
Encoding: 105 105 75
Width: 234
GlyphClass: 2
Flags: W
LayerCount: 2
Fore
SplineSet
83 507 m 1
 151 507 l 1
 151 0 l 1
 83 0 l 1
 83 507 l 1
81 680 m 1
 153 680 l 1
 153 590 l 1
 81 590 l 1
 81 680 l 1
EndSplineSet
EndChar

StartChar: j
Encoding: 106 106 76
Width: 226
GlyphClass: 2
Flags: W
LayerCount: 2
Fore
SplineSet
72 690 m 1
 144 690 l 1
 144 600 l 1
 72 600 l 1
 72 690 l 1
-30 -90 m 1
 11 -90 l 2
 33.6669921875 -90 50 -84 60 -72 c 0
 70 -60 75 -41 75 -15 c 2
 75 507 l 1
 143 507 l 1
 143 -19 l 2
 143 -62.3330078125 132.333007812 -95.3330078125 111 -118 c 0
 89.6669921875 -140.666992188 58.6669921875 -152 18 -152 c 2
 -30 -152 l 1
 -30 -90 l 1
EndSplineSet
EndChar

StartChar: k
Encoding: 107 107 77
Width: 494
GlyphClass: 2
Flags: W
LayerCount: 2
Fore
SplineSet
238 263 m 1
 143 151 l 1
 143 0 l 1
 75 0 l 1
 75 690 l 1
 143 690 l 1
 143 237 l 1
 364 507 l 1
 446 507 l 1
 283 315 l 1
 475 0 l 1
 392 0 l 1
 238 263 l 1
EndSplineSet
EndChar

StartChar: l
Encoding: 108 108 78
Width: 273
GlyphClass: 2
Flags: W
LayerCount: 2
Fore
SplineSet
107 34 m 0
 85.6669921875 56.6669921875 75 89.6669921875 75 133 c 2
 75 690 l 1
 143 690 l 1
 143 137 l 2
 143 111 148 92 158 80 c 0
 168 68 184.333007812 62 207 62 c 2
 248 62 l 1
 248 0 l 1
 200 0 l 2
 159.333007812 0 128.333007812 11.3330078125 107 34 c 0
EndSplineSet
EndChar

StartChar: m
Encoding: 109 109 79
Width: 825
GlyphClass: 2
Flags: W
LayerCount: 2
Fore
SplineSet
75 507 m 1
 141.998046875 506.998046875 l 1
 141.998046875 444.998046875 l 1
 156.665039062 466.998046875 175.83203125 483.831054688 199.499023438 495.498046875 c 0
 223.166015625 507.165039062 249.666015625 512.998046875 278.999023438 512.998046875 c 0
 313.666015625 512.998046875 343.333007812 505.665039062 368 490.998046875 c 0
 392.666992188 476.331054688 411.666992188 455.331054688 425 427.998046875 c 1
 458.333984375 484.665039062 509.666992188 512.998046875 579 512.998046875 c 0
 633 512.998046875 675 497.165039062 705 465.498046875 c 0
 735 433.831054688 750 389.6640625 750 332.998046875 c 2
 750 -0.001953125 l 1
 682 -0.001953125 l 1
 682 322.998046875 l 2
 682 364.998046875 671.833007812 396.998046875 651.5 418.998046875 c 0
 631.166992188 440.998046875 602.666992188 451.998046875 566 451.998046875 c 0
 528.666992188 451.998046875 499.5 440.831054688 478.5 418.498046875 c 0
 457.5 396.165039062 447 365.33203125 447 325.999023438 c 2
 447 -0.0009765625 l 1
 378 -0.0009765625 l 1
 378 322.999023438 l 2
 378 364.999023438 367.833007812 396.999023438 347.5 418.999023438 c 0
 327.166992188 440.999023438 298.666992188 451.999023438 262 451.999023438 c 0
 226 451.999023438 197.166992188 440.83203125 175.5 418.499023438 c 0
 153.833007812 396.166015625 143 364.333007812 143 323 c 2
 143 0 l 1
 75 0 l 1
 75 507 l 1
EndSplineSet
EndChar

StartChar: n
Encoding: 110 110 80
Width: 522
GlyphClass: 2
Flags: W
LayerCount: 2
Fore
SplineSet
75 507 m 1
 142 506.999023438 l 1
 142 444.999023438 l 1
 156.666992188 467.666015625 175.833984375 484.666015625 199.5 495.999023438 c 0
 223.166992188 507.33203125 249.666992188 512.999023438 279 512.999023438 c 0
 333 512.999023438 374.5 497.166015625 403.5 465.499023438 c 0
 432.5 433.83203125 447 389.665039062 447 332.999023438 c 2
 447 -0.0009765625 l 1
 379 -0.0009765625 l 1
 379 322.999023438 l 2
 379 364.999023438 368.666992188 396.999023438 348 418.999023438 c 0
 327.333007812 440.999023438 298.666015625 451.999023438 262 451.999023438 c 0
 226 451.999023438 197.166992188 440.83203125 175.5 418.499023438 c 0
 153.833007812 396.166015625 143 364.333007812 143 323 c 2
 143 0 l 1
 75 0 l 1
 75 507 l 1
EndSplineSet
EndChar

StartChar: o
Encoding: 111 111 81
Width: 505
GlyphClass: 2
Flags: W
LayerCount: 2
Fore
SplineSet
112 43.5 m 0
 76.6669921875 76.5 59 129.333007812 59 202 c 2
 59 306 l 2
 59 378 76.6669921875 430.666992188 112 464 c 0
 147.333007812 497.333007812 194.666015625 514 253.999023438 514 c 0
 311.999023438 514 358.499023438 497.333007812 393.499023438 464 c 0
 428.499023438 430.666992188 445.999023438 378 445.999023438 306 c 2
 445.999023438 202 l 2
 445.999023438 130 428.499023438 77.3330078125 393.499023438 44 c 0
 358.499023438 10.6669921875 311.999023438 -6 253.999023438 -6 c 0
 194.666015625 -6 147.333007812 10.5 112 43.5 c 0
344.5 88.5 m 0
 366.833007812 110.833007812 378 149.999023438 378 205.999023438 c 2
 378 301.999023438 l 2
 378 357.333007812 366.833007812 396.166015625 344.5 418.499023438 c 0
 322.166992188 440.83203125 292 451.999023438 254 451.999023438 c 0
 214.666992188 451.999023438 183.666992188 440.83203125 161 418.499023438 c 0
 138.333007812 396.166015625 127 357.333007812 127 302 c 2
 127 206 l 2
 127 150 138.333007812 110.833007812 161 88.5 c 0
 183.666992188 66.1669921875 214.666992188 55 254 55 c 0
 292 55 322.166992188 66.1669921875 344.5 88.5 c 0
EndSplineSet
EndChar

StartChar: p
Encoding: 112 112 82
Width: 510
GlyphClass: 2
Flags: W
LayerCount: 2
Fore
SplineSet
75 507 m 1
 143 506.999023438 l 1
 143 435.999023438 l 1
 156.333007812 461.33203125 174.333007812 480.499023438 197 493.499023438 c 0
 219.666992188 506.499023438 245.666992188 512.999023438 275 512.999023438 c 0
 327 512.999023438 369.333007812 496.33203125 402 462.999023438 c 0
 434.666992188 429.666015625 451 377.333007812 451 306 c 2
 451 202 l 2
 451 130 435 77.3330078125 403 44 c 0
 371 10.6669921875 330 -6 280 -6 c 0
 216.666992188 -6 171 18.3330078125 143 67 c 1
 143 -152 l 1
 75 -152 l 1
 75 507 l 1
383 205.999023438 m 2
 383.000976562 300.998046875 l 2
 383.000976562 401.665039062 344.000976562 451.998046875 266.000976562 451.998046875 c 0
 225.333984375 451.998046875 194.666992188 437.831054688 174 409.498046875 c 0
 153.333007812 381.165039062 143 343.33203125 143 295.999023438 c 2
 143 206.999023438 l 2
 143 162.33203125 153.833007812 125.83203125 175.5 97.4990234375 c 0
 197.166992188 69.166015625 228.666992188 54.9990234375 270 54.9990234375 c 0
 345.333007812 54.9990234375 383 105.33203125 383 205.999023438 c 2
EndSplineSet
EndChar

StartChar: q
Encoding: 113 113 83
Width: 511
GlyphClass: 2
Flags: W
LayerCount: 2
Fore
SplineSet
367 67 m 1
 339 18.3330078125 293.333007812 -6 230 -6 c 0
 180 -6 139 10.6669921875 107 44 c 0
 75 77.3330078125 59 130 59 202 c 2
 59 306 l 2
 59 377.333984375 75.3330078125 429.666992188 108 463 c 0
 140.666992188 496.333007812 183 513 235 513 c 0
 264.333007812 513 290.333007812 506.5 313 493.5 c 0
 335.666992188 480.5 353.666992188 461.333007812 367 436 c 1
 367 507 l 1
 436 507 l 1
 436 -152 l 1
 367 -152 l 1
 367 67 l 1
335 97 m 0
 356.333007812 125 367 161.666992188 367 207 c 2
 367 296 l 2
 367 343.333984375 356.666992188 381.166992188 336 409.5 c 0
 315.333007812 437.833007812 284.666015625 452 244 452 c 0
 166.666992188 452 128 401.666992188 128 301 c 2
 128 206 l 2
 128 105.333007812 165.333007812 55 240 55 c 0
 282 55 313.666992188 69 335 97 c 0
EndSplineSet
EndChar

StartChar: r
Encoding: 114 114 84
Width: 337
GlyphClass: 2
Flags: W
LayerCount: 2
Fore
SplineSet
75 507 m 1
 142.000976562 507.000976562 l 1
 142.000976562 439.000976562 l 1
 156.000976562 464.334960938 174.500976562 483.16796875 197.500976562 495.5 c 0
 220.500976562 507.833007812 246.333984375 514 275.000976562 514 c 0
 287.66796875 514 300.000976562 513 312.000976562 511 c 1
 312.000976562 443 l 1
 296.000976562 448.333007812 278.66796875 451 260.000976562 451 c 0
 225.333984375 451 197.166992188 439 175.5 415 c 0
 153.833007812 391 143 359.666992188 143 321 c 2
 143 0 l 1
 75 0 l 1
 75 507 l 1
EndSplineSet
EndChar

StartChar: s
Encoding: 115 115 85
Width: 462
GlyphClass: 2
Flags: W
LayerCount: 2
Fore
SplineSet
97 34 m 0
 63.6669921875 60.6669921875 46.998046875 96.6650390625 46.998046875 141.998046875 c 2
 46.998046875 145.998046875 l 1
 112.998046875 145.998046875 l 1
 112.998046875 142.998046875 l 2
 112.998046875 114.998046875 123.831054688 92.8310546875 145.498046875 76.498046875 c 0
 167.165039062 60.1650390625 196.33203125 51.998046875 232.999023438 51.998046875 c 0
 270.999023438 51.998046875 300.83203125 59.6650390625 322.499023438 74.998046875 c 0
 344.166015625 90.3310546875 354.999023438 112.331054688 354.999023438 140.998046875 c 0
 354.999023438 166.331054688 347.499023438 184.998046875 332.499023438 196.998046875 c 0
 317.499023438 208.998046875 293.33203125 217.998046875 259.999023438 223.998046875 c 2
 196.999023438 234.998046875 l 2
 147.666015625 243.665039062 111.666015625 258.33203125 88.9990234375 278.999023438 c 0
 66.33203125 299.666015625 54.9990234375 329.666015625 54.9990234375 368.999023438 c 0
 54.9990234375 412.999023438 71.33203125 448.166015625 103.999023438 474.499023438 c 0
 136.666015625 500.83203125 178.999023438 513.999023438 230.999023438 513.999023438 c 0
 286.999023438 513.999023438 331.666015625 501.166015625 364.999023438 475.499023438 c 0
 398.33203125 449.83203125 414.999023438 416.33203125 414.999023438 374.999023438 c 2
 414.999023438 368.999023438 l 1
 348.999023438 368.999023438 l 1
 348.999023438 371.999023438 l 2
 348.999023438 398.666015625 338.666015625 419.666015625 317.999023438 434.999023438 c 0
 297.33203125 450.33203125 268.999023438 457.999023438 232.999023438 457.999023438 c 0
 197.666015625 457.999023438 170.166015625 450.33203125 150.499023438 434.999023438 c 0
 130.83203125 419.666015625 120.999023438 398.666015625 120.999023438 371.999023438 c 0
 120.999023438 349.999023438 127.999023438 332.83203125 141.999023438 320.499023438 c 0
 155.999023438 308.166015625 178.33203125 299.333007812 208.999023438 294 c 2
 274.999023438 282 l 2
 324.999023438 272.666992188 361.83203125 257.5 385.499023438 236.5 c 0
 409.166015625 215.5 420.999023438 185 420.999023438 145 c 0
 420.999023438 97 403.666015625 59.8330078125 368.999023438 33.5 c 0
 334.33203125 7.1669921875 287.999023438 -6 229.999023438 -6 c 0
 174.666015625 -6 130.333007812 7.3330078125 97 34 c 0
EndSplineSet
EndChar

StartChar: t
Encoding: 116 116 86
Width: 340
GlyphClass: 2
Flags: W
LayerCount: 2
Fore
SplineSet
182 453 m 1
 182.000976562 129.000976562 l 2
 182.000976562 83.0009765625 203.66796875 60.0009765625 247.000976562 60.0009765625 c 2
 287.000976562 60.0009765625 l 1
 287.000976562 0.0009765625 l 1
 236.000976562 0.0009765625 l 2
 197.333984375 0.0009765625 167.166992188 11.16796875 145.5 33.5009765625 c 0
 123.833007812 55.833984375 113 86.6669921875 113 126 c 2
 113 453 l 1
 34 453 l 1
 34 507 l 1
 113 507 l 1
 113 623 l 1
 182 655 l 1
 182 507 l 1
 296 507 l 1
 296 453 l 1
 182 453 l 1
EndSplineSet
EndChar

StartChar: u
Encoding: 117 117 87
Width: 522
GlyphClass: 2
Flags: W
LayerCount: 2
Fore
SplineSet
121.5 43.5 m 0
 90.5 76.5 75 124 75 186 c 2
 75 507 l 1
 143 507 l 1
 143 195 l 2
 143 148.333007812 152 113.333007812 170 90 c 0
 188 66.6669921875 218.333007812 55 261 55 c 0
 303.666992188 55 334 66.3330078125 352 89 c 0
 370 111.666992188 379 147 379 195 c 2
 379 507 l 1
 447 507 l 1
 447 186 l 2
 447 124 431.5 76.5 400.5 43.5 c 0
 369.5 10.5 322.666992188 -6 260 -6 c 0
 198.666992188 -6 152.5 10.5 121.5 43.5 c 0
EndSplineSet
EndChar

StartChar: v
Encoding: 118 118 88
Width: 439
GlyphClass: 2
Flags: W
LayerCount: 2
Fore
SplineSet
14 507 m 1
 88 507 l 1
 220 100 l 1
 352 507 l 1
 425 507 l 1
 250 0 l 1
 189 0 l 1
 14 507 l 1
EndSplineSet
EndChar

StartChar: w
Encoding: 119 119 89
Width: 714
GlyphClass: 2
Flags: W
LayerCount: 2
Fore
SplineSet
14 507 m 1
 88 507 l 1
 202 101 l 1
 328 507 l 1
 385 507 l 1
 511 101 l 1
 626 507 l 1
 700 507 l 1
 546 0 l 1
 484 0 l 1
 356 409 l 1
 229 0 l 1
 168 0 l 1
 14 507 l 1
EndSplineSet
EndChar

StartChar: x
Encoding: 120 120 90
Width: 421
GlyphClass: 2
Flags: W
LayerCount: 2
Fore
SplineSet
334 0 m 1
 210 203 l 1
 87 0 l 1
 14 0 l 1
 174 261 l 1
 24 507 l 1
 97 507 l 1
 212 319 l 1
 324 507 l 1
 397 507 l 1
 245 265 l 1
 407 0 l 1
 334 0 l 1
EndSplineSet
EndChar

StartChar: y
Encoding: 121 121 91
Width: 439
GlyphClass: 2
Flags: W
LayerCount: 2
Fore
SplineSet
425 507 m 1
 230 -55 l 2
 218 -89 201.5 -113.666992188 180.5 -129 c 0
 159.5 -144.333007812 131.666992188 -152 97 -152 c 2
 67 -152 l 1
 67 -90 l 1
 92 -90 l 2
 116.666992188 -90 135.166992188 -85 147.5 -75 c 0
 159.833007812 -65 170 -48.6669921875 178 -26 c 2
 188 5 l 1
 14 507 l 1
 88 507 l 1
 221 104 l 1
 354 507 l 1
 425 507 l 1
EndSplineSet
EndChar

StartChar: z
Encoding: 122 122 92
Width: 456
GlyphClass: 2
Flags: W
LayerCount: 2
Fore
SplineSet
397 444 m 1
 135 63 l 1
 397 63 l 1
 397 0 l 1
 59 0 l 1
 59 63 l 1
 319 444 l 1
 59 444 l 1
 59 507 l 1
 397 507 l 1
 397 444 l 1
EndSplineSet
EndChar

StartChar: braceleft
Encoding: 123 123 93
Width: 340
GlyphClass: 2
Flags: W
LayerCount: 2
Fore
SplineSet
154.5 -57 m 0
 137.5 -39 129 -11.3330078125 129 26 c 2
 129 217 l 2
 129 245.666992188 123.666992188 266.166992188 113 278.5 c 0
 102.333007812 290.833007812 84.3330078125 297.333007812 59 298 c 1
 59 363 l 1
 84.3330078125 363.666992188 102.333007812 370.166992188 113 382.5 c 0
 123.666992188 394.833007812 129 415.333007812 129 444 c 2
 129 630 l 2
 129 667.333007812 137.5 695 154.5 713 c 0
 171.5 731 197 740 231 740 c 2
 281 740 l 1
 281 679 l 1
 246 679 l 2
 230 679 218.333007812 675 211 667 c 0
 203.666992188 659 200 646 200 628 c 2
 200 449 l 2
 200 411.666992188 195.5 384.5 186.5 367.5 c 0
 177.5 350.5 162 338 140 330 c 1
 162.666992188 322 178.333984375 309.5 187 292.5 c 0
 195.666992188 275.5 200 248.666992188 200 212 c 2
 200 28 l 2
 200 10 203.666992188 -3 211 -11 c 0
 218.333007812 -19 230 -23 246 -23 c 2
 281 -23 l 1
 281 -84 l 1
 231 -84 l 2
 197 -84 171.5 -75 154.5 -57 c 0
EndSplineSet
Substitution2: "'rtla' Right to Left Alternates lookup 0 subtable" braceright
EndChar

StartChar: bar
Encoding: 124 124 94
Width: 303
GlyphClass: 2
Flags: W
LayerCount: 2
Fore
SplineSet
118 740 m 1
 185 740 l 1
 185 -83 l 1
 118 -83 l 1
 118 740 l 1
EndSplineSet
EndChar

StartChar: braceright
Encoding: 125 125 95
Width: 340
GlyphClass: 2
Flags: W
LayerCount: 2
Fore
SplineSet
59 -23 m 1
 94 -23 l 2
 110 -23 121.666992188 -19 129 -11 c 0
 136.333007812 -3 140 10 140 28 c 2
 140 212 l 2
 140 248.666992188 144.333007812 275.5 153 292.5 c 0
 161.666992188 309.5 177.333984375 322 200 330 c 1
 178 338 162.5 350.5 153.5 367.5 c 0
 144.5 384.5 140 411.666992188 140 449 c 2
 140 628 l 2
 140 646 136.333007812 659 129 667 c 0
 121.666992188 675 110 679 94 679 c 2
 59 679 l 1
 59 740 l 1
 109 740 l 2
 143 740 168.5 731 185.5 713 c 0
 202.5 695 211 667.333007812 211 630 c 2
 211 444 l 2
 211 415.333007812 216.333007812 394.833007812 227 382.5 c 0
 237.666992188 370.166992188 255.666992188 363.666992188 281 363 c 1
 281 298 l 1
 255.666992188 297.333007812 237.666992188 290.833007812 227 278.5 c 0
 216.333007812 266.166992188 211 245.666992188 211 217 c 2
 211 26 l 2
 211 -11.3330078125 202.5 -39 185.5 -57 c 0
 168.5 -75 143 -84 109 -84 c 2
 59 -84 l 1
 59 -23 l 1
EndSplineSet
Substitution2: "'rtla' Right to Left Alternates lookup 0 subtable" braceleft
EndChar

StartChar: asciitilde
Encoding: 126 126 96
Width: 512
GlyphClass: 2
Flags: W
LayerCount: 2
Fore
SplineSet
290 221 m 0
 276 227 260.33203125 235.666992188 242.999023438 247 c 0
 227.666015625 257 214.999023438 264.333007812 204.999023438 269 c 0
 194.999023438 273.666992188 184.33203125 276 172.999023438 276 c 0
 156.999023438 276 143.499023438 271.666992188 132.499023438 263 c 0
 121.499023438 254.333007812 109.33203125 238.666015625 95.9990234375 215.999023438 c 1
 46.9990234375 245.999023438 l 1
 60.9990234375 276.666015625 78.9990234375 299.833007812 100.999023438 315.5 c 0
 122.999023438 331.166992188 147.33203125 339 173.999023438 339 c 0
 190.666015625 339 205.666015625 336 218.999023438 330 c 0
 232.33203125 324 248.33203125 315.333007812 266.999023438 304 c 0
 282.999023438 294.666992188 295.83203125 287.666992188 305.499023438 283 c 0
 315.166015625 278.333007812 325.666015625 276 336.999023438 276 c 0
 352.999023438 276 366.83203125 280.5 378.499023438 289.5 c 0
 390.166015625 298.5 402.333007812 314 415 336 c 1
 464 305 l 1
 449.333007812 275 431 252 409 236 c 0
 387 220 362.666992188 212 336 212 c 0
 319.333007812 212 304 215 290 221 c 0
EndSplineSet
EndChar

StartChar: exclamdown
Encoding: 161 161 98
Width: 239
GlyphClass: 2
Flags: W
LayerCount: 2
Fore
SplineSet
75 507 m 1
 165 507 l 1
 165 413 l 1
 75 413 l 1
 75 507 l 1
92 311 m 1
 148 311 l 1
 162 -152 l 1
 78 -152 l 1
 92 311 l 1
EndSplineSet
EndChar

StartChar: cent
Encoding: 162 162 99
Width: 503
GlyphClass: 2
Flags: W
LayerCount: 2
Fore
SplineSet
378 340 m 1
 378 345.000976562 l 2
 378 376.334960938 369 401.16796875 351 419.500976562 c 0
 333 437.833984375 307.666992188 448.333984375 275 451.000976562 c 1
 275 56.0009765625 l 1
 307 58.66796875 332.166992188 69.16796875 350.5 87.5009765625 c 0
 368.833007812 105.833984375 378 130.666992188 378 162 c 2
 378 167 l 1
 444 167 l 1
 444 163 l 2
 444 114.333007812 428.833007812 74.8330078125 398.5 44.5 c 0
 368.166992188 14.1669921875 327 -2.3330078125 275 -5 c 1
 275 -100 l 1
 217 -100 l 1
 217 -3 l 1
 168.333007812 3.6669921875 129.833007812 23.5 101.5 56.5 c 0
 73.1669921875 89.5 59 138 59 202 c 2
 59 306 l 2
 59 370 73 418.666992188 101 452 c 0
 129 485.333007812 167.666992188 505.333007812 217 512 c 1
 217 607 l 1
 275 607 l 1
 275 513 l 1
 327 510.333007812 368.166992188 493.833007812 398.5 463.5 c 0
 428.833007812 433.166992188 444 393.666992188 444 345 c 2
 444 340 l 1
 378 340 l 1
150.5 102.500976562 m 0
 166.166992188 79.5009765625 188.333984375 65.001953125 217.000976562 59.001953125 c 1
 217.000976562 448.001953125 l 1
 188.333984375 441.333984375 166.166992188 426.666992188 150.5 404.000976562 c 0
 134.833007812 381.333984375 127 347.333984375 127 302.000976562 c 2
 127 206.000976562 l 2
 127 160.000976562 134.833007812 125.500976562 150.5 102.500976562 c 0
EndSplineSet
EndChar

StartChar: sterling
Encoding: 163 163 100
Width: 436
GlyphClass: 2
Flags: W
LayerCount: 2
Fore
SplineSet
403 68 m 1
 403 0.0009765625 l 1
 54 0.0009765625 l 1
 54 62.0009765625 l 1
 70 72.0009765625 81.5 85.0009765625 88.5 101.000976562 c 0
 95.5 117.000976562 99 138.333984375 99 165.000976562 c 2
 99 290.000976562 l 1
 33 290.000976562 l 1
 33 356.000976562 l 1
 99 356.000976562 l 1
 99 528.000976562 l 2
 99 582.000976562 112.5 624.16796875 139.5 654.500976562 c 0
 166.5 684.833984375 203.666992188 700.000976562 251 700.000976562 c 0
 295.666992188 700.000976562 331.5 686.500976562 358.5 659.500976562 c 0
 385.5 632.500976562 399 595.333984375 399 548.000976562 c 1
 327 548.000976562 l 1
 327 574.000976562 320.166992188 594.500976562 306.5 609.500976562 c 0
 292.833007812 624.500976562 274 632.000976562 250 632.000976562 c 0
 225.333007812 632.000976562 206.333007812 624.16796875 193 608.500976562 c 0
 179.666992188 592.833984375 173 569.666992188 173 539 c 2
 173 356 l 1
 312 356 l 1
 312 290 l 1
 173 290 l 1
 173 174 l 2
 173 150 170.333007812 129.5 165 112.5 c 0
 159.666015625 95.5 151.333007812 80.6669921875 140 68 c 1
 403 68 l 1
EndSplineSet
EndChar

StartChar: currency
Encoding: 164 164 101
Width: 613
GlyphClass: 2
Flags: W
LayerCount: 2
Fore
SplineSet
420 166 m 1
 386.666992188 142 348.665039062 130 305.998046875 130 c 0
 262.665039062 130 224.33203125 142 190.999023438 166 c 1
 120.999023438 96 l 1
 74.9990234375 144 l 1
 143.999023438 213 l 1
 120.666015625 247 108.999023438 285 108.999023438 327 c 0
 108.999023438 370.333007812 120.999023438 408.333007812 144.999023438 441 c 1
 74.9990234375 512 l 1
 120.999023438 559 l 1
 191.999023438 489 l 1
 224.666015625 512.333007812 262.666015625 524 305.999023438 524 c 0
 348.666015625 524 386.333007812 512.333007812 419 489 c 1
 490 559 l 1
 537 512 l 1
 467 442 l 1
 491 407.333007812 503 369 503 327 c 0
 503 284.333007812 491 246.333007812 467 213 c 1
 538 143 l 1
 491 95 l 1
 420 166 l 1
400.998046875 230 m 0
 426.331054688 256 438.998046875 288.333007812 438.998046875 327 c 0
 438.998046875 365.666992188 426.331054688 398 400.998046875 424 c 0
 375.665039062 450 343.998046875 463 305.998046875 463 c 0
 267.998046875 463 236.331054688 450 210.998046875 424 c 0
 185.665039062 398 172.998046875 365.666992188 172.998046875 327 c 0
 172.998046875 288.333007812 185.665039062 256 210.998046875 230 c 0
 236.331054688 204 267.998046875 191 305.998046875 191 c 0
 343.998046875 191 375.665039062 204 400.998046875 230 c 0
EndSplineSet
EndChar

StartChar: yen
Encoding: 165 165 102
Width: 454
GlyphClass: 2
Flags: W
LayerCount: 2
Fore
SplineSet
191 155 m 1
 49 155 l 1
 49 211 l 1
 191 211 l 1
 191 278 l 1
 49 278 l 1
 49 335 l 1
 172 335 l 1
 10 690 l 1
 92 690 l 1
 228 365 l 1
 363 690 l 1
 444 690 l 1
 283 335 l 1
 405 335 l 1
 405 278 l 1
 264 278 l 1
 264 211 l 1
 405 211 l 1
 405 155 l 1
 264 155 l 1
 264 0 l 1
 191 0 l 1
 191 155 l 1
EndSplineSet
EndChar

StartChar: brokenbar
Encoding: 166 166 103
Width: 303
GlyphClass: 2
Flags: W
LayerCount: 2
Fore
SplineSet
118 740 m 1
 185 740 l 1
 185 388 l 1
 118 388 l 1
 118 740 l 1
118 271 m 1
 185 271 l 1
 185 -83 l 1
 118 -83 l 1
 118 271 l 1
EndSplineSet
EndChar

StartChar: section
Encoding: 167 167 104
Width: 511
GlyphClass: 2
Flags: W
LayerCount: 2
Fore
SplineSet
134 -126.5 m 0
 106.666992188 -98.8330078125 92.99609375 -58 92.99609375 -4 c 1
 161.99609375 -4 l 1
 161.99609375 -38.6669921875 169.663085938 -64 184.99609375 -80 c 0
 200.329101562 -96 222.99609375 -104 252.99609375 -104 c 0
 281.663085938 -104 303.830078125 -96.3330078125 319.497070312 -81 c 0
 335.1640625 -65.6669921875 342.997070312 -44 342.997070312 -16 c 0
 342.997070312 14.6669921875 333.6640625 38.333984375 314.997070312 55.0009765625 c 0
 296.330078125 71.66796875 263.997070312 85.3349609375 217.997070312 96.001953125 c 0
 170.6640625 106.668945312 135.831054688 127.001953125 113.498046875 157.001953125 c 0
 91.1650390625 187.001953125 79.998046875 226.334960938 79.998046875 275.001953125 c 0
 79.998046875 313.668945312 88.498046875 347.168945312 105.498046875 375.501953125 c 0
 122.498046875 403.8359375 147.331054688 423.668945312 179.998046875 435.001953125 c 1
 151.998046875 449.001953125 131.998046875 466.334960938 119.998046875 487.001953125 c 0
 107.998046875 507.668945312 101.998046875 534.001953125 101.998046875 566.001953125 c 0
 101.998046875 609.334960938 116.331054688 644.834960938 144.998046875 672.501953125 c 0
 173.665039062 700.168945312 211.33203125 714.001953125 257.999023438 714.001953125 c 0
 309.999023438 714.001953125 348.83203125 700.001953125 374.499023438 672.001953125 c 0
 400.166015625 644.001953125 412.999023438 605.668945312 412.999023438 557.001953125 c 1
 343.999023438 557.001953125 l 1
 343.999023438 619.001953125 315.666015625 650.001953125 258.999023438 650.001953125 c 0
 232.33203125 650.001953125 211.499023438 642.668945312 196.499023438 628.001953125 c 0
 181.499023438 613.334960938 173.999023438 592.66796875 173.999023438 566.000976562 c 0
 173.999023438 536.000976562 182.83203125 512.66796875 200.499023438 496.000976562 c 0
 218.166015625 479.333007812 249.333007812 465.666015625 294 455 c 0
 341.333007812 444.333007812 376 424 398 394 c 0
 420 364 431 324.333007812 431 275 c 0
 431 237 422.5 203.666992188 405.5 175 c 0
 388.5 146.333007812 364.666992188 127 334 117 c 1
 362 104.333007812 382.5 87.166015625 395.5 65.4990234375 c 0
 408.5 43.83203125 415 15.9990234375 415 -18.0009765625 c 0
 415 -63.333984375 400.166992188 -99.6669921875 370.5 -127 c 0
 340.833007812 -154.333007812 302 -168 254 -168 c 0
 201.333007812 -168 161.333007812 -154.166992188 134 -126.5 c 0
331.49609375 189.5 m 0
 349.829101562 209.833007812 358.99609375 238.33203125 358.99609375 274.999023438 c 0
 358.99609375 312.333007812 349.99609375 341.166015625 331.99609375 361.499023438 c 0
 313.99609375 381.83203125 288.663085938 391.999023438 255.99609375 391.999023438 c 0
 223.329101562 391.999023438 197.829101562 381.83203125 179.49609375 361.499023438 c 0
 161.163085938 341.166015625 151.99609375 312.333007812 151.99609375 275 c 0
 151.99609375 238.333007812 161.329101562 209.833007812 179.99609375 189.5 c 0
 198.663085938 169.166992188 223.99609375 159 255.99609375 159 c 0
 287.99609375 159 313.163085938 169.166992188 331.49609375 189.5 c 0
236.99609375 706.999023438 m 1024
EndSplineSet
EndChar

StartChar: dieresis
Encoding: 168 168 105
Width: 500
GlyphClass: 2
Flags: W
LayerCount: 2
Fore
SplineSet
126 664 m 1
 202 664 l 1
 202 578 l 1
 126 578 l 1
 126 664 l 1
297 664 m 1
 373 664 l 1
 373 578 l 1
 297 578 l 1
 297 664 l 1
EndSplineSet
EndChar

StartChar: copyright
Encoding: 169 169 106
Width: 821
GlyphClass: 2
Flags: W
LayerCount: 2
Fore
SplineSet
231 34.5 m 0
 179 64.1669921875 138.5 105.499023438 109.5 158.499023438 c 0
 80.5 211.499023438 66 271.999023438 66 339.999023438 c 0
 66 407.999023438 80.5 468.499023438 109.5 521.499023438 c 0
 138.5 574.499023438 179 615.83203125 231 645.499023438 c 0
 283 675.166015625 342.666992188 689.999023438 410 689.999023438 c 0
 477.333007812 689.999023438 537.166015625 675.166015625 589.499023438 645.499023438 c 0
 641.83203125 615.83203125 682.499023438 574.499023438 711.499023438 521.499023438 c 0
 740.499023438 468.499023438 754.999023438 407.999023438 754.999023438 339.999023438 c 0
 754.999023438 271.999023438 740.499023438 211.33203125 711.499023438 157.999023438 c 0
 682.499023438 104.666015625 641.83203125 63.3330078125 589.499023438 34 c 0
 537.166015625 4.6669921875 477.333007812 -10 410 -10 c 0
 342.666992188 -10 283 4.8330078125 231 34.5 c 0
561.5 79.9990234375 m 0
 605.16796875 104.666015625 638.834960938 139.333007812 662.5 184 c 0
 686.166992188 228.666992188 698 280.666992188 698 340 c 0
 698 399.333007812 686.166992188 451.333007812 662.5 496 c 0
 638.833007812 540.66796875 605.166015625 575.334960938 561.499023438 600.000976562 c 0
 517.83203125 624.66796875 467.33203125 637.000976562 409.999023438 637.000976562 c 0
 352.666015625 637.000976562 302.333007812 624.66796875 259 600.000976562 c 0
 215.666992188 575.333984375 182.166992188 540.666992188 158.5 496 c 0
 134.833007812 451.333007812 123 399.333007812 123 340 c 0
 123 280.666992188 134.833007812 228.666992188 158.5 184 c 0
 182.166992188 139.333007812 215.666992188 104.666015625 259 79.9990234375 c 0
 302.333984375 55.33203125 352.666992188 42.9990234375 410 42.9990234375 c 0
 467.333984375 42.9990234375 517.833984375 55.33203125 561.5 79.9990234375 c 0
306 184.999023438 m 0
 279.333007812 209.666015625 265.999023438 249.331054688 265.999023438 303.998046875 c 2
 265.999023438 380.998046875 l 2
 265.999023438 435.665039062 279.33203125 475.33203125 305.999023438 499.999023438 c 0
 332.666015625 524.666015625 368.666015625 536.999023438 413.999023438 536.999023438 c 0
 457.33203125 536.999023438 491.499023438 525.666015625 516.499023438 502.999023438 c 0
 541.499023438 480.33203125 553.999023438 449.665039062 553.999023438 410.999023438 c 2
 553.999023438 405.999023438 l 1
 501.999023438 405.999023438 l 1
 501.999023438 408.999023438 l 2
 501.999023438 434.33203125 494.33203125 453.83203125 478.999023438 467.499023438 c 0
 463.666015625 481.166015625 442.666015625 487.999023438 415.999023438 487.999023438 c 0
 385.33203125 487.999023438 361.665039062 479.83203125 344.999023438 463.499023438 c 0
 328.33203125 447.166015625 319.999023438 418.666015625 319.999023438 377.999023438 c 2
 319.999023438 306.999023438 l 2
 319.999023438 265.666015625 328.33203125 236.833007812 344.999023438 220.5 c 0
 361.666015625 204.166992188 385.333007812 196 416 196 c 0
 442.666992188 196 463.666992188 203 479 217 c 0
 494.333007812 231 502 250.333007812 502 275 c 2
 502 279 l 1
 554 279 l 1
 554 274 l 2
 554 235.333007812 541.333007812 204.666015625 516 181.999023438 c 0
 490.666992188 159.33203125 456.666992188 147.999023438 414 147.999023438 c 0
 368.666992188 147.999023438 332.666992188 160.33203125 306 184.999023438 c 0
EndSplineSet
EndChar

StartChar: ordfeminine
Encoding: 170 170 107
Width: 330
GlyphClass: 2
Flags: W
LayerCount: 2
Fore
SplineSet
246 721 m 0
 266.666992188 703 277 676.333007812 277 641 c 2
 277 430 l 1
 215 430 l 1
 215 461 l 1
 205.666015625 449 194.833007812 440.166992188 182.5 434.5 c 0
 170.166992188 428.833007812 155 426 137 426 c 0
 104.333007812 426 79.166015625 434.5 61.4990234375 451.5 c 0
 43.83203125 468.5 34.9990234375 492.333007812 34.9990234375 523 c 0
 34.9990234375 551 44.4990234375 573 63.4990234375 589 c 0
 82.4990234375 605 108.33203125 613 140.999023438 613 c 2
 212.999023438 613 l 1
 212.999023438 644 l 2
 212.999023438 662 208.166015625 675.666992188 198.499023438 685 c 0
 188.83203125 694.333007812 174.999023438 699 156.999023438 699 c 0
 139.666015625 699 126.333007812 695 117 687 c 0
 107.666992188 679 103 668 103 654 c 2
 103 652 l 1
 43 652 l 1
 43 654 l 2
 43 682.666992188 53.1669921875 705.5 73.5 722.5 c 0
 93.8330078125 739.5 121.666015625 748 156.999023438 748 c 0
 195.666015625 748 225.333007812 739 246 721 c 0
198 494 m 0
 208 504.001953125 213 519.334960938 213 540 c 2
 213 568 l 1
 151 568 l 2
 115 568 97 553.333007812 97 524 c 0
 97 494 114.666992188 479 150 479 c 0
 172 479 188 484 198 494 c 0
165 847 m 1024
EndSplineSet
EndChar

StartChar: guillemotleft
Encoding: 171 171 108
Width: 478
GlyphClass: 2
Flags: W
LayerCount: 2
Fore
SplineSet
25 264 m 1
 220 462 l 1
 220 379 l 1
 107 264 l 1
 220 149 l 1
 220 66 l 1
 25 264 l 1
208 264 m 1
 403 462 l 1
 403 379 l 1
 290 264 l 1
 403 149 l 1
 403 66 l 1
 208 264 l 1
EndSplineSet
EndChar

StartChar: logicalnot
Encoding: 172 172 109
Width: 512
GlyphClass: 2
Flags: W
LayerCount: 2
Fore
SplineSet
387 264 m 1
 56 264 l 1
 56 326 l 1
 456 326 l 1
 456 130 l 1
 387 130 l 1
 387 264 l 1
EndSplineSet
EndChar

StartChar: uni00AD
Encoding: 173 173 110
Width: 393
GlyphClass: 2
Flags: W
LayerCount: 2
Fore
SplineSet
59 380 m 1
 334 380 l 1
 334 314 l 1
 59 314 l 1
 59 380 l 1
EndSplineSet
EndChar

StartChar: registered
Encoding: 174 174 111
Width: 537
GlyphClass: 2
Flags: W
LayerCount: 2
Fore
SplineSet
172 331 m 0
 143.333007812 347.666992188 120.833007812 370.666992188 104.5 400 c 0
 88.1669921875 429.333007812 80 462 80 498 c 0
 80 534 88.1669921875 566.5 104.5 595.5 c 0
 120.833007812 624.5 143.333007812 647.333007812 172 664 c 0
 200.666992188 680.666992188 232.666992188 689 268 689 c 0
 304 689 336.333007812 680.666992188 365 664 c 0
 393.666992188 647.333007812 416.166992188 624.5 432.5 595.5 c 0
 448.833007812 566.5 457 534 457 498 c 0
 457 461.333007812 448.833007812 428.5 432.5 399.5 c 0
 416.166992188 370.5 393.666992188 347.666992188 365 331 c 0
 336.333007812 314.333007812 304 306 268 306 c 0
 232.666992188 306 200.666992188 314.333007812 172 331 c 0
380 382.5 m 0
 409.333007812 412.833007812 424 451.333007812 424 498 c 0
 424 528.666992188 417.333007812 556.166992188 404 580.5 c 0
 390.666992188 604.833007812 372 623.833007812 348 637.5 c 0
 324 651.166992188 297.333007812 658 268 658 c 0
 223.333007812 658 186.5 643 157.5 613 c 0
 128.5 583 114 544.666992188 114 498 c 0
 114 450.666992188 128.5 412 157.5 382 c 0
 186.5 352 223.333007812 337 268 337 c 0
 313.333984375 337 350.666992188 352.166992188 380 382.5 c 0
198 606 m 1
 280 606 l 2
 302 606 319.166992188 600.5 331.5 589.5 c 0
 343.833007812 578.5 350 563 350 543 c 0
 350 528.333007812 346.666992188 516 340 506 c 0
 333.333007812 496 323.666015625 488.666992188 311 484 c 1
 355 392 l 1
 316 392 l 1
 274 480 l 1
 234 480 l 1
 234 392 l 1
 198 392 l 1
 198 606 l 1
279 512 m 2
 303 512 315 522.333007812 315 543 c 0
 315 563.666992188 303 574 279 574 c 2
 234 574 l 1
 234 512 l 1
 279 512 l 2
EndSplineSet
EndChar

StartChar: macron
Encoding: 175 175 112
Width: 500
GlyphClass: 2
Flags: W
LayerCount: 2
Fore
SplineSet
120 652 m 1
 380 652 l 1
 380 590 l 1
 120 590 l 1
 120 652 l 1
EndSplineSet
EndChar

StartChar: degree
Encoding: 176 176 113
Width: 411
GlyphClass: 2
Flags: W
LayerCount: 2
Fore
SplineSet
105.5 460 m 0
 79.1669921875 486.666992188 66 520 66 560 c 0
 66 600 79.1669921875 633.333007812 105.5 660 c 0
 131.833007812 686.666992188 165.333007812 700 206 700 c 0
 245.333007812 700 278.333007812 686.666992188 305 660 c 0
 331.666992188 633.333007812 345 600 345 560 c 0
 345 520 331.666992188 486.666992188 305 460 c 0
 278.333007812 433.333007812 245.333007812 420 206 420 c 0
 165.333007812 420 131.833007812 433.333007812 105.5 460 c 0
269 495 m 0
 285.666992188 512.333007812 294 534 294 560 c 0
 294 586.666992188 285.666992188 608.666992188 269 626 c 0
 252.333007812 643.333007812 231.333007812 652 206 652 c 0
 180 652 158.666992188 643.333007812 142 626 c 0
 125.333007812 608.666992188 117 586.666992188 117 560 c 0
 117 534 125.333007812 512.333007812 142 495 c 0
 158.666992188 477.666992188 180 469 206 469 c 0
 231.333007812 469 252.333007812 477.666992188 269 495 c 0
EndSplineSet
EndChar

StartChar: plusminus
Encoding: 177 177 114
Width: 512
GlyphClass: 2
Flags: W
LayerCount: 2
Fore
SplineSet
223 279 m 1
 57 279 l 1
 57 345 l 1
 223 345 l 1
 223 511 l 1
 289 511 l 1
 289 345 l 1
 455 345 l 1
 455 279 l 1
 289 279 l 1
 289 113 l 1
 223 113 l 1
 223 279 l 1
57 62 m 1
 455 62 l 1
 455 -4 l 1
 57 -4 l 1
 57 62 l 1
EndSplineSet
EndChar

StartChar: uni00B2
Encoding: 178 178 115
Width: 321
GlyphClass: 2
Flags: W
LayerCount: 2
Fore
SplineSet
45 482 m 1
 184 670 l 2
 192.666992188 682 199 693 203 703 c 0
 207 713 209 723.666992188 209 735 c 2
 209 743 l 2
 209 760.333007812 204.5 773.833007812 195.5 783.5 c 0
 186.5 793.166992188 174.333007812 798 159 798 c 0
 143 798 130.5 793 121.5 783 c 0
 112.5 773 108 758 108 738 c 2
 108 727 l 1
 42 727 l 1
 42 742 l 2
 42 776 52.8330078125 803.166992188 74.5 823.5 c 0
 96.1669921875 843.833007812 125 854 161 854 c 0
 196.333007812 854 224.666015625 844 245.999023438 824 c 0
 267.33203125 804 277.999023438 778 277.999023438 746 c 2
 277.999023438 735 l 2
 277.999023438 717 274.83203125 700.333007812 268.499023438 685 c 0
 262.166015625 669.6640625 252.333007812 653.331054688 239 636 c 2
 132 489 l 1
 279 489 l 1
 279 430 l 1
 45 430 l 1
 45 482 l 1
EndSplineSet
EndChar

StartChar: uni00B3
Encoding: 179 179 116
Width: 319
GlyphClass: 2
Flags: W
LayerCount: 2
Fore
SplineSet
70 452.5 m 0
 49.3330078125 471.5 39 497.666992188 39 531 c 2
 39 542 l 1
 99 542 l 1
 99 532 l 2
 99 516 104 503.166992188 114 493.5 c 0
 124 483.833007812 137.666992188 479 155 479 c 0
 173 479 187 484.5 197 495.5 c 0
 207 506.5 212 521.666992188 212 541 c 2
 212 554 l 2
 212 573.333007812 206.5 588.833007812 195.5 600.5 c 0
 184.5 612.166992188 169.666992188 618 151 618 c 2
 130 618 l 1
 130 674 l 1
 151 674 l 2
 167.666992188 674 180.833984375 679.166992188 190.5 689.5 c 0
 200.166992188 699.833007812 205 713.666015625 205 730.999023438 c 2
 205 740.999023438 l 2
 205 758.999023438 200.5 772.999023438 191.5 782.999023438 c 0
 182.5 792.999023438 170 797.999023438 154 797.999023438 c 0
 137.333007812 797.999023438 124.5 793.33203125 115.5 783.999023438 c 0
 106.5 774.666015625 102 761.999023438 102 745.999023438 c 2
 102 735.999023438 l 1
 41 735.999023438 l 1
 41 746.999023438 l 2
 41 779.666015625 51.3330078125 805.666015625 72 824.999023438 c 0
 92.6669921875 844.33203125 120.666992188 853.999023438 156 853.999023438 c 0
 191.333007812 853.999023438 219.333007812 844.166015625 240 824.499023438 c 0
 260.666992188 804.83203125 271 778.999023438 271 746.999023438 c 2
 271 736.999023438 l 2
 271 716.999023438 266.333007812 699.666015625 257 684.999023438 c 0
 247.666992188 670.33203125 235.333984375 658.999023438 220.000976562 650.999023438 c 1
 238.000976562 643.661132812 252.000976562 631.328125 262.000976562 614 c 0
 272.000976562 596.6640625 277.000976562 576.331054688 277.000976562 553 c 2
 277.000976562 541 l 2
 277.000976562 506.333007812 265.833984375 478.166015625 243.500976562 456.5 c 0
 221.16796875 434.833007812 192.000976562 424 156.000976562 424 c 0
 119.333984375 424 90.6669921875 433.5 70 452.5 c 0
EndSplineSet
EndChar

StartChar: acute
Encoding: 180 180 117
Width: 500
GlyphClass: 2
Flags: W
LayerCount: 2
Fore
SplineSet
268 697 m 1
 352 697 l 1
 232 572 l 1
 169 572 l 1
 268 697 l 1
EndSplineSet
EndChar

StartChar: uni00B5
Encoding: 181 181 118
Width: 515
GlyphClass: 2
Flags: W
LayerCount: 2
Fore
SplineSet
75 507 m 1
 143 507 l 1
 143 178 l 2
 143 137.333007812 153 106.5 173 85.5 c 0
 193 64.5 220.333007812 54 255 54 c 0
 288.333007812 54 316 64.8330078125 338 86.5 c 0
 360 108.166992188 371 138.666992188 371 178 c 2
 371 507 l 1
 440 507 l 1
 440 0 l 1
 372 0 l 1
 372 60 l 1
 358 37.3330078125 340 20.3330078125 318 9 c 0
 296 -2.3330078125 271 -8 243 -8 c 0
 200.333007812 -8 167 5 143 31 c 1
 143 -152 l 1
 75 -152 l 1
 75 507 l 1
EndSplineSet
EndChar

StartChar: paragraph
Encoding: 182 182 119
Width: 613
GlyphClass: 2
Flags: W
LayerCount: 2
Fore
SplineSet
268 272 m 1
 211.333007812 276 165.833007812 297.333007812 131.5 336 c 0
 97.1669921875 374.666992188 80 423 80 481 c 0
 80 520.333007812 88.5 555.833007812 105.5 587.5 c 0
 122.5 619.166992188 147.333007812 644.166992188 180 662.5 c 0
 212.666992188 680.833007812 251.666992188 690 297 690 c 2
 493 690 l 1
 493 -152 l 1
 426 -152 l 1
 426 625 l 1
 335 625 l 1
 335 -152 l 1
 268 -152 l 1
 268 272 l 1
EndSplineSet
EndChar

StartChar: periodcentered
Encoding: 183 183 120
Width: 194
GlyphClass: 2
Flags: W
LayerCount: 2
Fore
SplineSet
53 315 m 1
 141 315 l 1
 141 223 l 1
 53 223 l 1
 53 315 l 1
EndSplineSet
EndChar

StartChar: cedilla
Encoding: 184 184 121
Width: 500
GlyphClass: 2
Flags: W
LayerCount: 2
Fore
SplineSet
251 12 m 1
 312 12 l 1
 259 -150 l 1
 188 -150 l 1
 251 12 l 1
EndSplineSet
EndChar

StartChar: uni00B9
Encoding: 185 185 122
Width: 222
GlyphClass: 2
Flags: W
LayerCount: 2
Fore
SplineSet
99 774 m 1
 26 719 l 1
 26 793 l 1
 99 847 l 1
 168 847 l 1
 168 430 l 1
 99 430 l 1
 99 774 l 1
EndSplineSet
EndChar

StartChar: ordmasculine
Encoding: 186 186 123
Width: 330
GlyphClass: 2
Flags: W
LayerCount: 2
Fore
SplineSet
74 458 m 0
 52 479.333984375 41 512.333984375 41 557 c 2
 41 617 l 2
 41 661.666992188 52 694.666992188 74 716 c 0
 96 737.333007812 126.333007812 748 165 748 c 0
 203.666992188 748 234 737.333007812 256 716 c 0
 278 694.666992188 289 661.666992188 289 617 c 2
 289 557 l 2
 289 512.333007812 278 479.333007812 256 458 c 0
 234 436.666992188 203.666992188 426 165 426 c 0
 126.333007812 426 96 436.666992188 74 458 c 0
225 557 m 2
 225 617 l 2
 225 665.666992188 205 690 165 690 c 0
 125 690 105 665.666992188 105 617 c 2
 105 557 l 2
 105 508.333007812 125 484 165 484 c 0
 205 484 225 508.333007812 225 557 c 2
165 847 m 1024
EndSplineSet
EndChar

StartChar: guillemotright
Encoding: 187 187 124
Width: 478
GlyphClass: 2
Flags: W
LayerCount: 2
Fore
SplineSet
75 149 m 1
 188 264 l 1
 75 379 l 1
 75 462 l 1
 270 264 l 1
 75 66 l 1
 75 149 l 1
257 149 m 1
 371 264 l 1
 257 379 l 1
 257 462 l 1
 453 264 l 1
 257 66 l 1
 257 149 l 1
EndSplineSet
EndChar

StartChar: onequarter
Encoding: 188 188 125
Width: 730
GlyphClass: 3
Flags: W
LayerCount: 2
Fore
SplineSet
99 617 m 1
 26 562 l 1
 26 636 l 1
 99 690 l 1
 168 690 l 1
 168 273 l 1
 99 273 l 1
 99 617 l 1
699 75 m 1
 660 75 l 1
 660 0 l 1
 591 0 l 1
 591 75 l 1
 434 75 l 1
 434 134 l 1
 551 417 l 1
 619 417 l 1
 503 134 l 1
 591 134 l 1
 591 232 l 1
 660 232 l 1
 660 134 l 1
 699 134 l 1
 699 75 l 1
465 690 m 1
 528 690 l 1
 155 0 l 1
 92 0 l 1
 465 690 l 1
EndSplineSet
Ligature2: "'frac' Diagonal Fractions lookup 2 subtable" one slash four
EndChar

StartChar: onehalf
Encoding: 189 189 126
Width: 719
GlyphClass: 3
Flags: W
LayerCount: 2
Fore
SplineSet
99 617 m 1
 26 562 l 1
 26 636 l 1
 99 690 l 1
 168 690 l 1
 168 273 l 1
 99 273 l 1
 99 617 l 1
443 52 m 1
 582.000976562 240 l 2
 590.66796875 252 597.000976562 263 601.000976562 273 c 0
 605.000976562 283 607.000976562 293.666992188 607.000976562 305 c 2
 607.000976562 313 l 2
 607.000976562 330.333007812 602.500976562 343.833007812 593.500976562 353.5 c 0
 584.500976562 363.166992188 572.333984375 368 557.000976562 368 c 0
 541.000976562 368 528.500976562 363 519.500976562 353 c 0
 510.500976562 343 506.000976562 328 506.000976562 308 c 2
 506.000976562 297 l 1
 440.000976562 297 l 1
 440.000976562 312 l 2
 440.000976562 346 450.833984375 373.166992188 472.500976562 393.5 c 0
 494.16796875 413.833007812 523.000976562 424 559.000976562 424 c 0
 594.333984375 424 622.666992188 414 644 394 c 0
 665.333007812 374 676 348 676 316 c 2
 676 305 l 2
 676 287 672.833007812 270.333007812 666.5 255 c 0
 660.165039062 239.666015625 650.33203125 223.333007812 637 206 c 2
 530 59 l 1
 677 59 l 1
 677 0 l 1
 443 0 l 1
 443 52 l 1
465.000976562 690 m 1
 528.000976562 690 l 1
 155.000976562 0 l 1
 92.0009765625 0 l 1
 465.000976562 690 l 1
EndSplineSet
Ligature2: "'frac' Diagonal Fractions lookup 2 subtable" one slash two
EndChar

StartChar: threequarters
Encoding: 190 190 127
Width: 827
GlyphClass: 3
Flags: W
LayerCount: 2
Fore
SplineSet
70 295.5 m 0
 49.3330078125 314.5 39 340.666015625 39 373.999023438 c 2
 39 384.999023438 l 1
 99 384.999023438 l 1
 99 374.999023438 l 2
 99 358.999023438 104 346.166015625 114 336.499023438 c 0
 124 326.83203125 137.666992188 321.999023438 155 321.999023438 c 0
 173 321.999023438 187 327.499023438 197 338.499023438 c 0
 207 349.499023438 212 364.666015625 212 383.999023438 c 2
 212 396.999023438 l 2
 212 416.33203125 206.5 431.83203125 195.5 443.499023438 c 0
 184.5 455.166015625 169.666992188 460.999023438 151 460.999023438 c 2
 130 460.999023438 l 1
 130 516.999023438 l 1
 151 516.999023438 l 2
 167.666992188 516.999023438 180.833984375 522.166015625 190.5 532.499023438 c 0
 200.166992188 542.83203125 205 556.665039062 205 573.998046875 c 2
 205 583.998046875 l 2
 205 601.998046875 200.5 615.998046875 191.5 625.998046875 c 0
 182.5 635.998046875 170 640.998046875 154 640.998046875 c 0
 137.333007812 640.998046875 124.5 636.331054688 115.5 626.998046875 c 0
 106.5 617.665039062 102 604.998046875 102 588.998046875 c 2
 102 578.998046875 l 1
 41 578.998046875 l 1
 41 589.998046875 l 2
 41 622.665039062 51.3330078125 648.665039062 72 667.998046875 c 0
 92.6669921875 687.331054688 120.666992188 696.998046875 156 696.998046875 c 0
 191.333007812 696.998046875 219.333007812 687.165039062 240 667.498046875 c 0
 260.666992188 647.831054688 271 621.998046875 271 589.998046875 c 2
 271 579.998046875 l 2
 271 559.998046875 266.333007812 542.665039062 257 527.998046875 c 0
 247.666992188 513.331054688 235.333984375 501.998046875 220.000976562 493.998046875 c 1
 238.000976562 486.665039062 252.000976562 474.33203125 262.000976562 456.999023438 c 0
 272.000976562 439.666015625 277.000976562 419.333007812 277.000976562 396 c 2
 277.000976562 384 l 2
 277.000976562 349.333007812 265.833984375 321.166015625 243.500976562 299.5 c 0
 221.16796875 277.833007812 192.000976562 267 156.000976562 267 c 0
 119.333984375 267 90.6669921875 276.5 70 295.5 c 0
796 74.9990234375 m 1
 757 74.9990234375 l 1
 757 -0.0009765625 l 1
 688 -0.0009765625 l 1
 688 74.9990234375 l 1
 531 74.9990234375 l 1
 531 133.999023438 l 1
 648 416.999023438 l 1
 716 416.999023438 l 1
 600 133.999023438 l 1
 688 133.999023438 l 1
 688 231.999023438 l 1
 757 231.999023438 l 1
 757 133.999023438 l 1
 796 133.999023438 l 1
 796 74.9990234375 l 1
562 689.999023438 m 1
 625 689.999023438 l 1
 252 -0.0009765625 l 1
 189 -0.0009765625 l 1
 562 689.999023438 l 1
EndSplineSet
Ligature2: "'frac' Diagonal Fractions lookup 2 subtable" three slash four
EndChar

StartChar: questiondown
Encoding: 191 191 128
Width: 429
GlyphClass: 2
Flags: W
LayerCount: 2
Fore
SplineSet
177 507 m 1
 266 507 l 1
 266 414 l 1
 177 414 l 1
 177 507 l 1
93.5 -116 m 0
 62.5 -85.3330078125 46.9990234375 -44.9990234375 46.9990234375 5.0009765625 c 0
 46.9990234375 29.66796875 51.166015625 52.16796875 59.4990234375 72.5009765625 c 0
 67.83203125 92.833984375 82.6650390625 116.666992188 103.998046875 144 c 2
 150.998046875 204 l 2
 164.998046875 221.333007812 173.998046875 236 177.998046875 248 c 0
 181.998046875 260 183.998046875 276.333007812 183.998046875 297 c 2
 183.998046875 332 l 1
 256.998046875 332 l 1
 256.998046875 296 l 2
 256.998046875 270 254.165039062 248.833007812 248.498046875 232.5 c 0
 242.831054688 216.166992188 230.998046875 196.666992188 212.998046875 174 c 2
 165.998046875 116 l 2
 147.998046875 94 135.831054688 75 129.498046875 59 c 0
 123.165039062 43 119.998046875 25 119.998046875 5 c 0
 119.998046875 -26.3330078125 128.831054688 -51 146.498046875 -69 c 0
 164.165039062 -87 188.998046875 -96 220.998046875 -96 c 0
 284.998046875 -96 317.665039062 -59.6669921875 318.998046875 13 c 1
 391.998046875 13 l 1
 390.665039062 -43.6669921875 375.33203125 -87 345.999023438 -117 c 0
 316.666015625 -147 274.333007812 -162 219 -162 c 0
 166.333007812 -162 124.5 -146.666992188 93.5 -116 c 0
EndSplineSet
EndChar

StartChar: Agrave
Encoding: 192 192 129
Width: 577
GlyphClass: 2
Flags: W
LayerCount: 2
Fore
SplineSet
435 166 m 1
 142 166 l 1
 84 0 l 1
 7 0 l 1
 258 690 l 1
 319 690 l 1
 570 0 l 1
 493 0 l 1
 435 166 l 1
414 228 m 1
 288 588 l 1
 163 228 l 1
 414 228 l 1
163 880 m 1
 247 880 l 1
 346 755 l 1
 283 755 l 1
 163 880 l 1
EndSplineSet
EndChar

StartChar: Aacute
Encoding: 193 193 130
Width: 577
GlyphClass: 2
Flags: W
LayerCount: 2
Fore
SplineSet
435 166 m 1
 142 166 l 1
 84 0 l 1
 7 0 l 1
 258 690 l 1
 319 690 l 1
 570 0 l 1
 493 0 l 1
 435 166 l 1
414 228 m 1
 288 588 l 1
 163 228 l 1
 414 228 l 1
313 880 m 1
 397 880 l 1
 277 755 l 1
 214 755 l 1
 313 880 l 1
EndSplineSet
EndChar

StartChar: Acircumflex
Encoding: 194 194 131
Width: 577
GlyphClass: 2
Flags: W
LayerCount: 2
Fore
SplineSet
435 166 m 1
 142 166 l 1
 84 0 l 1
 7 0 l 1
 258 690 l 1
 319 690 l 1
 570 0 l 1
 493 0 l 1
 435 166 l 1
414 228 m 1
 288 588 l 1
 163 228 l 1
 414 228 l 1
261 889 m 1
 316 889 l 1
 423 745 l 1
 361 745 l 1
 289 840 l 1
 216 745 l 1
 154 745 l 1
 261 889 l 1
EndSplineSet
EndChar

StartChar: Atilde
Encoding: 195 195 132
Width: 577
GlyphClass: 2
Flags: W
LayerCount: 2
Fore
SplineSet
435 166 m 1
 142 166 l 1
 84 0 l 1
 7 0 l 1
 258 690 l 1
 319 690 l 1
 570 0 l 1
 493 0 l 1
 435 166 l 1
414 228 m 1
 288 588 l 1
 163 228 l 1
 414 228 l 1
165 813 m 1
 176.333007812 826.333007812 187.333984375 836.002929688 198.000976562 842.002929688 c 0
 208.66796875 848.002929688 220.66796875 851.002929688 234.000976562 851.002929688 c 0
 244.66796875 851.002929688 254.334960938 849.3359375 263.000976562 846.002929688 c 0
 271.66796875 842.669921875 282.000976562 837.669921875 294.000976562 831.002929688 c 0
 304.000976562 825.002929688 312.833984375 820.3359375 320.500976562 817.002929688 c 0
 328.16796875 813.669921875 336.66796875 812.002929688 346.000976562 812.002929688 c 0
 358.000976562 812.002929688 368.500976562 814.8359375 377.500976562 820.502929688 c 0
 386.500976562 826.169921875 398.000976562 836.336914062 412.000976562 851.002929688 c 1
 412.000976562 790.002929688 l 1
 390.66796875 765.3359375 367.66796875 753.002929688 343.000976562 753.002929688 c 0
 331.66796875 753.002929688 321.66796875 754.669921875 313.000976562 758.002929688 c 0
 304.333007812 761.3359375 293.666015625 766.668945312 281 774.001953125 c 0
 279 775.334960938 274.666992188 777.66796875 268 781.000976562 c 0
 261.333007812 784.333984375 255 786.833984375 249 788.500976562 c 0
 243 790.16796875 237.333007812 791.000976562 232 791.000976562 c 0
 219.333007812 791.000976562 208.333007812 788.16796875 199 782.500976562 c 0
 189.666015625 776.833984375 178.333007812 766.666992188 165 752 c 1
 165 813 l 1
EndSplineSet
EndChar

StartChar: Adieresis
Encoding: 196 196 133
Width: 577
GlyphClass: 2
Flags: W
LayerCount: 2
Fore
SplineSet
435 166 m 1
 142 166 l 1
 84 0 l 1
 7 0 l 1
 258 690 l 1
 319 690 l 1
 570 0 l 1
 493 0 l 1
 435 166 l 1
414 228 m 1
 288 588 l 1
 163 228 l 1
 414 228 l 1
165 847 m 1
 241 847 l 1
 241 761 l 1
 165 761 l 1
 165 847 l 1
336 847 m 1
 412 847 l 1
 412 761 l 1
 336 761 l 1
 336 847 l 1
EndSplineSet
EndChar

StartChar: Aring
Encoding: 197 197 134
Width: 577
GlyphClass: 2
Flags: W
LayerCount: 2
Fore
SplineSet
435 166 m 1
 142 166 l 1
 84 0 l 1
 7 0 l 1
 258 689 l 1
 240 695 225.5 705.833007812 214.5 721.5 c 0
 203.5 737.166992188 198 755 198 775 c 0
 198 801.666992188 206.5 823.666992188 223.5 841 c 0
 240.5 858.333007812 262.333007812 867 289 867 c 0
 315 867 336.666992188 858.333007812 354 841 c 0
 371.333007812 823.666992188 380 801.666992188 380 775 c 0
 380 755 374.333007812 737.166992188 363 721.5 c 0
 351.666992188 705.833007812 337 695 319 689 c 1
 570 0 l 1
 493 0 l 1
 435 166 l 1
252 737 m 0
 262 727 274.333007812 722.000976562 289 722.000976562 c 0
 303.666992188 722.000976562 316 727.000976562 326 737.000976562 c 0
 336 747.000976562 341 759.66796875 341 775.000976562 c 0
 341 790.333984375 336 803.166992188 326 813.5 c 0
 316 823.833007812 303.666992188 829 289 829 c 0
 274.333007812 829 262 823.833007812 252 813.5 c 0
 242 803.16015625 237 790.327148438 237 775 c 0
 237 759.666992188 242 747 252 737 c 0
414 228.000976562 m 1
 288 588.000976562 l 1
 163 228.000976562 l 1
 414 228.000976562 l 1
295 690.000976562 m 1024
EndSplineSet
EndChar

StartChar: AE
Encoding: 198 198 135
Width: 866
GlyphClass: 2
Flags: W
LayerCount: 2
Fore
SplineSet
498 624 m 1
 498 384 l 1
 767 384 l 1
 767 318 l 1
 498 318 l 1
 498 66 l 1
 818 66 l 1
 818 0 l 1
 425 0 l 1
 425 171 l 1
 178 171 l 1
 86 0 l 1
 7 0 l 1
 382 690 l 1
 818 690 l 1
 818 624 l 1
 498 624 l 1
425 233 m 1
 425 627 l 1
 212 233 l 1
 425 233 l 1
EndSplineSet
EndChar

StartChar: Ccedilla
Encoding: 199 199 136
Width: 610
GlyphClass: 2
Flags: W
LayerCount: 2
Fore
SplineSet
471 485 m 1
 470.999023438 487.999023438 l 2
 470.999023438 532.666015625 456.499023438 567.999023438 427.499023438 593.999023438 c 0
 398.499023438 619.999023438 358.999023438 632.999023438 308.999023438 632.999023438 c 0
 253.666015625 632.999023438 211.499023438 617.33203125 182.499023438 585.999023438 c 0
 153.499023438 554.666015625 138.999023438 503.333007812 138.999023438 432 c 2
 138.999023438 252 l 2
 138.999023438 123.333007812 195.999023438 59 309.999023438 59 c 0
 359.999023438 59 399.33203125 71.8330078125 427.999023438 97.5 c 0
 456.666015625 123.166992188 470.999023438 158.333984375 470.999023438 203.000976562 c 2
 470.999023438 207.000976562 l 1
 541.999023438 207.000976562 l 1
 541.999023438 203.000976562 l 2
 541.999023438 147.000976562 525.999023438 100.833984375 493.999023438 64.5009765625 c 0
 461.999023438 28.16796875 417.999023438 5.3349609375 361.999023438 -3.998046875 c 1
 313.999023438 -149.998046875 l 1
 242.999023438 -149.998046875 l 1
 297.999023438 -7.998046875 l 1
 227.33203125 -5.998046875 170.999023438 16.1689453125 128.999023438 58.501953125 c 0
 86.9990234375 100.834960938 65.9990234375 166.66796875 65.9990234375 256.000976562 c 2
 65.9990234375 435.000976562 l 2
 65.9990234375 526.333984375 87.9990234375 593.166992188 131.999023438 635.5 c 0
 175.999023438 677.833007812 234.999023438 699 308.999023438 699 c 0
 355.666015625 699 396.833007812 690.333007812 432.5 673 c 0
 468.166992188 655.666992188 495.666992188 631 515 599 c 0
 534.333007812 567 544 530 544 488 c 2
 544 485 l 1
 471 485 l 1
EndSplineSet
EndChar

StartChar: Egrave
Encoding: 200 200 137
Width: 547
GlyphClass: 2
Flags: W
LayerCount: 2
Fore
SplineSet
153 624 m 1
 153 384 l 1
 449 384 l 1
 449 318 l 1
 153 318 l 1
 153 66 l 1
 499 66 l 1
 499 0 l 1
 80 0 l 1
 80 690 l 1
 499 690 l 1
 499 624 l 1
 153 624 l 1
154 880 m 1
 238 880 l 1
 337 755 l 1
 274 755 l 1
 154 880 l 1
EndSplineSet
EndChar

StartChar: Eacute
Encoding: 201 201 138
Width: 547
GlyphClass: 2
Flags: W
LayerCount: 2
Fore
SplineSet
153 624 m 1
 153 384 l 1
 449 384 l 1
 449 318 l 1
 153 318 l 1
 153 66 l 1
 499 66 l 1
 499 0 l 1
 80 0 l 1
 80 690 l 1
 499 690 l 1
 499 624 l 1
 153 624 l 1
304 880 m 1
 388 880 l 1
 268 755 l 1
 205 755 l 1
 304 880 l 1
EndSplineSet
EndChar

StartChar: Ecircumflex
Encoding: 202 202 139
Width: 547
GlyphClass: 2
Flags: W
LayerCount: 2
Fore
SplineSet
153 624 m 1
 153 384 l 1
 449 384 l 1
 449 318 l 1
 153 318 l 1
 153 66 l 1
 499 66 l 1
 499 0 l 1
 80 0 l 1
 80 690 l 1
 499 690 l 1
 499 624 l 1
 153 624 l 1
252 889 m 1
 307 889 l 1
 414 745 l 1
 352 745 l 1
 280 840 l 1
 207 745 l 1
 145 745 l 1
 252 889 l 1
EndSplineSet
EndChar

StartChar: Edieresis
Encoding: 203 203 140
Width: 547
GlyphClass: 2
Flags: W
LayerCount: 2
Fore
SplineSet
153 624 m 1
 153 384 l 1
 449 384 l 1
 449 318 l 1
 153 318 l 1
 153 66 l 1
 499 66 l 1
 499 0 l 1
 80 0 l 1
 80 690 l 1
 499 690 l 1
 499 624 l 1
 153 624 l 1
156 847 m 1
 232 847 l 1
 232 761 l 1
 156 761 l 1
 156 847 l 1
327 847 m 1
 403 847 l 1
 403 761 l 1
 327 761 l 1
 327 847 l 1
EndSplineSet
EndChar

StartChar: Igrave
Encoding: 204 204 141
Width: 249
GlyphClass: 2
Flags: W
LayerCount: 2
Fore
SplineSet
88 690 m 1
 161 690 l 1
 161 0 l 1
 88 0 l 1
 88 690 l 1
-1 880 m 1
 83 880 l 1
 182 755 l 1
 119 755 l 1
 -1 880 l 1
EndSplineSet
EndChar

StartChar: Iacute
Encoding: 205 205 142
Width: 249
GlyphClass: 2
Flags: W
LayerCount: 2
Fore
SplineSet
88 690 m 1
 161 690 l 1
 161 0 l 1
 88 0 l 1
 88 690 l 1
149 880 m 1
 233 880 l 1
 113 755 l 1
 50 755 l 1
 149 880 l 1
EndSplineSet
EndChar

StartChar: Icircumflex
Encoding: 206 206 143
Width: 249
GlyphClass: 2
Flags: W
LayerCount: 2
Fore
SplineSet
88 690 m 1
 161 690 l 1
 161 0 l 1
 88 0 l 1
 88 690 l 1
97 889 m 1
 152 889 l 1
 259 745 l 1
 197 745 l 1
 125 840 l 1
 52 745 l 1
 -10 745 l 1
 97 889 l 1
EndSplineSet
EndChar

StartChar: Idieresis
Encoding: 207 207 144
Width: 249
GlyphClass: 2
Flags: W
LayerCount: 2
Fore
SplineSet
88 690 m 1
 161 690 l 1
 161 0 l 1
 88 0 l 1
 88 690 l 1
1 847 m 1
 77 847 l 1
 77 761 l 1
 1 761 l 1
 1 847 l 1
172 847 m 1
 248 847 l 1
 248 761 l 1
 172 761 l 1
 172 847 l 1
EndSplineSet
EndChar

StartChar: Eth
Encoding: 208 208 145
Width: 669
GlyphClass: 2
Flags: W
LayerCount: 2
Fore
SplineSet
538.5 626.5 m 0
 581.5 584.166015625 603 517.33203125 603 425.999023438 c 2
 603 263.999023438 l 2
 603 172.666015625 581.5 105.833007812 538.5 63.5 c 0
 495.5 21.1669921875 437.333007812 0 364 0 c 2
 128 0 l 1
 128 316 l 1
 38 316 l 1
 38 382 l 1
 128 382 l 1
 128 690 l 1
 364 690 l 2
 437.333007812 690 495.5 668.833007812 538.5 626.5 c 0
529 422.999023438 m 2
 529 492.999023438 514.833007812 543.999023438 486.5 575.999023438 c 0
 458.166992188 607.999023438 417.666992188 623.999023438 365 623.999023438 c 2
 202 623.999023438 l 1
 202 381.999023438 l 1
 342 381.999023438 l 1
 342 315.999023438 l 1
 202 315.999023438 l 1
 202 65.9990234375 l 1
 365 65.9990234375 l 2
 474.333007812 65.9990234375 529 130.666015625 529 259.999023438 c 2
 529 422.999023438 l 2
EndSplineSet
EndChar

StartChar: Ntilde
Encoding: 209 209 146
Width: 663
GlyphClass: 2
Flags: W
LayerCount: 2
Fore
SplineSet
583 690 m 1
 583 0 l 1
 510 0 l 1
 153 556 l 1
 153 0 l 1
 80 0 l 1
 80 690 l 1
 153 690 l 1
 510 136 l 1
 510 690 l 1
 583 690 l 1
207 813 m 1
 218.333007812 826.333007812 229.33203125 836.002929688 239.999023438 842.002929688 c 0
 250.666015625 848.002929688 262.666015625 851.002929688 275.999023438 851.002929688 c 0
 286.666015625 851.002929688 296.333007812 849.3359375 305 846.002929688 c 0
 313.666992188 842.669921875 324 837.669921875 336 831.002929688 c 0
 346 825.002929688 354.833007812 820.3359375 362.5 817.002929688 c 0
 370.166992188 813.669921875 378.666992188 812.002929688 388 812.002929688 c 0
 400 812.002929688 410.5 814.8359375 419.5 820.502929688 c 0
 428.5 826.169921875 440 836.336914062 454 851.002929688 c 1
 454 790.002929688 l 1
 432.666992188 765.3359375 409.666992188 753.002929688 385 753.002929688 c 0
 373.666992188 753.002929688 363.666992188 754.669921875 355 758.002929688 c 0
 346.33203125 761.3359375 335.665039062 766.668945312 323 774.001953125 c 0
 321 775.334960938 316.666992188 777.66796875 310 781.000976562 c 0
 303.333007812 784.333984375 297 786.833984375 291 788.500976562 c 0
 285 790.16796875 279.333007812 791.000976562 274 791.000976562 c 0
 261.333007812 791.000976562 250.333007812 788.16796875 241 782.500976562 c 0
 231.666015625 776.833984375 220.333007812 766.666992188 207 752 c 1
 207 813 l 1
EndSplineSet
EndChar

StartChar: Ograve
Encoding: 210 210 147
Width: 610
GlyphClass: 2
Flags: W
LayerCount: 2
Fore
SplineSet
130.5 55.5 m 0
 87.5 97.8330078125 66.0009765625 164.666992188 66.0009765625 256 c 2
 66.0009765625 435 l 2
 66.0009765625 526.333007812 87.66796875 593.166015625 131.000976562 635.499023438 c 0
 174.333984375 677.83203125 232.666992188 698.999023438 306 698.999023438 c 0
 378.666992188 698.999023438 436.5 677.83203125 479.5 635.499023438 c 0
 522.5 593.165039062 544 526.33203125 544 434.999023438 c 2
 544 255.999023438 l 2
 544 164.666015625 522.333007812 97.8330078125 479 55.5 c 0
 435.666992188 13.1669921875 377.666992188 -8 305 -8 c 0
 231.666992188 -8 173.5 13.1669921875 130.5 55.5 c 0
471.000976562 252.000976562 m 2
 471.000976562 432.001953125 l 2
 471.000976562 566.001953125 416.000976562 633.001953125 306.000976562 633.001953125 c 0
 250.66796875 633.001953125 209.000976562 617.168945312 181.000976562 585.501953125 c 0
 153.000976562 553.834960938 139.000976562 502.66796875 139.000976562 432.000976562 c 2
 139.000976562 252.000976562 l 2
 139.000976562 184.66796875 153.16796875 135.66796875 181.500976562 105.000976562 c 0
 209.833984375 74.333984375 251.333984375 59.0009765625 306.000976562 59.0009765625 c 0
 416.000976562 59.0009765625 471.000976562 123.333984375 471.000976562 252.000976562 c 2
179.000976562 880.001953125 m 1
 263.000976562 880.001953125 l 1
 362.000976562 755.001953125 l 1
 299.000976562 755.001953125 l 1
 179.000976562 880.001953125 l 1
EndSplineSet
EndChar

StartChar: Oacute
Encoding: 211 211 148
Width: 610
GlyphClass: 2
Flags: W
LayerCount: 2
Fore
SplineSet
130.5 55.5 m 0
 87.5 97.8330078125 66.0009765625 164.666992188 66.0009765625 256 c 2
 66.0009765625 435 l 2
 66.0009765625 526.333007812 87.66796875 593.166015625 131.000976562 635.499023438 c 0
 174.333984375 677.83203125 232.666992188 698.999023438 306 698.999023438 c 0
 378.666992188 698.999023438 436.5 677.83203125 479.5 635.499023438 c 0
 522.5 593.165039062 544 526.33203125 544 434.999023438 c 2
 544 255.999023438 l 2
 544 164.666015625 522.333007812 97.8330078125 479 55.5 c 0
 435.666992188 13.1669921875 377.666992188 -8 305 -8 c 0
 231.666992188 -8 173.5 13.1669921875 130.5 55.5 c 0
471.000976562 252.000976562 m 2
 471.000976562 432.001953125 l 2
 471.000976562 566.001953125 416.000976562 633.001953125 306.000976562 633.001953125 c 0
 250.66796875 633.001953125 209.000976562 617.168945312 181.000976562 585.501953125 c 0
 153.000976562 553.834960938 139.000976562 502.66796875 139.000976562 432.000976562 c 2
 139.000976562 252.000976562 l 2
 139.000976562 184.66796875 153.16796875 135.66796875 181.500976562 105.000976562 c 0
 209.833984375 74.333984375 251.333984375 59.0009765625 306.000976562 59.0009765625 c 0
 416.000976562 59.0009765625 471.000976562 123.333984375 471.000976562 252.000976562 c 2
329.000976562 880.001953125 m 1
 413.000976562 880.001953125 l 1
 293.000976562 755.001953125 l 1
 230.000976562 755.001953125 l 1
 329.000976562 880.001953125 l 1
EndSplineSet
EndChar

StartChar: Ocircumflex
Encoding: 212 212 149
Width: 610
GlyphClass: 2
Flags: W
LayerCount: 2
Fore
SplineSet
130.5 55.5 m 0
 87.5 97.8330078125 66.0009765625 164.666992188 66.0009765625 256 c 2
 66.0009765625 435 l 2
 66.0009765625 526.333007812 87.66796875 593.166015625 131.000976562 635.499023438 c 0
 174.333984375 677.83203125 232.666992188 698.999023438 306 698.999023438 c 0
 378.666992188 698.999023438 436.5 677.83203125 479.5 635.499023438 c 0
 522.5 593.165039062 544 526.33203125 544 434.999023438 c 2
 544 255.999023438 l 2
 544 164.666015625 522.333007812 97.8330078125 479 55.5 c 0
 435.666992188 13.1669921875 377.666992188 -8 305 -8 c 0
 231.666992188 -8 173.5 13.1669921875 130.5 55.5 c 0
471.000976562 252.000976562 m 2
 471.000976562 432.001953125 l 2
 471.000976562 566.001953125 416.000976562 633.001953125 306.000976562 633.001953125 c 0
 250.66796875 633.001953125 209.000976562 617.168945312 181.000976562 585.501953125 c 0
 153.000976562 553.834960938 139.000976562 502.66796875 139.000976562 432.000976562 c 2
 139.000976562 252.000976562 l 2
 139.000976562 184.66796875 153.16796875 135.66796875 181.500976562 105.000976562 c 0
 209.833984375 74.333984375 251.333984375 59.0009765625 306.000976562 59.0009765625 c 0
 416.000976562 59.0009765625 471.000976562 123.333984375 471.000976562 252.000976562 c 2
277.000976562 889.001953125 m 1
 332.000976562 889.001953125 l 1
 439.000976562 745.001953125 l 1
 377.000976562 745.001953125 l 1
 305.000976562 840.001953125 l 1
 232.000976562 745.001953125 l 1
 170.000976562 745.001953125 l 1
 277.000976562 889.001953125 l 1
EndSplineSet
EndChar

StartChar: Otilde
Encoding: 213 213 150
Width: 610
GlyphClass: 2
Flags: W
LayerCount: 2
Fore
SplineSet
130.5 55.5 m 0
 87.5 97.8330078125 66.0009765625 164.666992188 66.0009765625 256 c 2
 66.0009765625 435 l 2
 66.0009765625 526.333007812 87.66796875 593.166015625 131.000976562 635.499023438 c 0
 174.333984375 677.83203125 232.666992188 698.999023438 306 698.999023438 c 0
 378.666992188 698.999023438 436.5 677.83203125 479.5 635.499023438 c 0
 522.5 593.165039062 544 526.33203125 544 434.999023438 c 2
 544 255.999023438 l 2
 544 164.666015625 522.333007812 97.8330078125 479 55.5 c 0
 435.666992188 13.1669921875 377.666992188 -8 305 -8 c 0
 231.666992188 -8 173.5 13.1669921875 130.5 55.5 c 0
471.000976562 252.000976562 m 2
 471.000976562 432.001953125 l 2
 471.000976562 566.001953125 416.000976562 633.001953125 306.000976562 633.001953125 c 0
 250.66796875 633.001953125 209.000976562 617.168945312 181.000976562 585.501953125 c 0
 153.000976562 553.834960938 139.000976562 502.66796875 139.000976562 432.000976562 c 2
 139.000976562 252.000976562 l 2
 139.000976562 184.66796875 153.16796875 135.66796875 181.500976562 105.000976562 c 0
 209.833984375 74.333984375 251.333984375 59.0009765625 306.000976562 59.0009765625 c 0
 416.000976562 59.0009765625 471.000976562 123.333984375 471.000976562 252.000976562 c 2
181.000976562 813.001953125 m 1
 192.333984375 826.334960938 203.333007812 836.004882812 214 842.004882812 c 0
 224.666992188 848.004882812 236.666992188 851.004882812 250 851.004882812 c 0
 260.666992188 851.004882812 270.333984375 849.337890625 279.000976562 846.004882812 c 0
 287.66796875 842.671875 298.000976562 837.671875 310.000976562 831.004882812 c 0
 320.000976562 825.004882812 328.833984375 820.337890625 336.500976562 817.004882812 c 0
 344.16796875 813.671875 352.66796875 812.004882812 362.000976562 812.004882812 c 0
 374.000976562 812.004882812 384.500976562 814.837890625 393.500976562 820.504882812 c 0
 402.500976562 826.171875 414.000976562 836.338867188 428.000976562 851.004882812 c 1
 428.000976562 790.004882812 l 1
 406.66796875 765.337890625 383.66796875 753.004882812 359.000976562 753.004882812 c 0
 347.66796875 753.004882812 337.66796875 754.671875 329.000976562 758.004882812 c 0
 320.333007812 761.337890625 309.666015625 766.670898438 297.000976562 774.00390625 c 0
 295.000976562 775.336914062 290.66796875 777.669921875 284.000976562 781.002929688 c 0
 277.333984375 784.3359375 271.000976562 786.8359375 265.000976562 788.502929688 c 0
 259.000976562 790.169921875 253.333984375 791.002929688 248.000976562 791.002929688 c 0
 235.333984375 791.002929688 224.333984375 788.169921875 215.000976562 782.502929688 c 0
 205.666992188 776.8359375 194.333984375 766.668945312 181.000976562 752.001953125 c 1
 181.000976562 813.001953125 l 1
EndSplineSet
EndChar

StartChar: Odieresis
Encoding: 214 214 151
Width: 610
GlyphClass: 2
Flags: W
LayerCount: 2
Fore
SplineSet
130.5 55.5 m 0
 87.5 97.8330078125 66.0009765625 164.666992188 66.0009765625 256 c 2
 66.0009765625 435 l 2
 66.0009765625 526.333007812 87.66796875 593.166015625 131.000976562 635.499023438 c 0
 174.333984375 677.83203125 232.666992188 698.999023438 306 698.999023438 c 0
 378.666992188 698.999023438 436.5 677.83203125 479.5 635.499023438 c 0
 522.5 593.165039062 544 526.33203125 544 434.999023438 c 2
 544 255.999023438 l 2
 544 164.666015625 522.333007812 97.8330078125 479 55.5 c 0
 435.666992188 13.1669921875 377.666992188 -8 305 -8 c 0
 231.666992188 -8 173.5 13.1669921875 130.5 55.5 c 0
471.000976562 252.000976562 m 2
 471.000976562 432.001953125 l 2
 471.000976562 566.001953125 416.000976562 633.001953125 306.000976562 633.001953125 c 0
 250.66796875 633.001953125 209.000976562 617.168945312 181.000976562 585.501953125 c 0
 153.000976562 553.834960938 139.000976562 502.66796875 139.000976562 432.000976562 c 2
 139.000976562 252.000976562 l 2
 139.000976562 184.66796875 153.16796875 135.66796875 181.500976562 105.000976562 c 0
 209.833984375 74.333984375 251.333984375 59.0009765625 306.000976562 59.0009765625 c 0
 416.000976562 59.0009765625 471.000976562 123.333984375 471.000976562 252.000976562 c 2
181.000976562 847.001953125 m 1
 257.000976562 847.001953125 l 1
 257.000976562 761.001953125 l 1
 181.000976562 761.001953125 l 1
 181.000976562 847.001953125 l 1
352.000976562 847.001953125 m 1
 428.000976562 847.001953125 l 1
 428.000976562 761.001953125 l 1
 352.000976562 761.001953125 l 1
 352.000976562 847.001953125 l 1
EndSplineSet
EndChar

StartChar: multiply
Encoding: 215 215 152
Width: 512
GlyphClass: 2
Flags: W
LayerCount: 2
Fore
SplineSet
89 153 m 1
 212 277 l 1
 89 400 l 1
 133 444 l 1
 256 321 l 1
 379 444 l 1
 424 400 l 1
 301 277 l 1
 424 153 l 1
 379 109 l 1
 256 232 l 1
 133 109 l 1
 89 153 l 1
EndSplineSet
EndChar

StartChar: Oslash
Encoding: 216 216 153
Width: 610
GlyphClass: 2
Flags: W
LayerCount: 2
Fore
SplineSet
492 620 m 1
 526.666992188 576 544 514.333007812 544 435 c 2
 544 256 l 2
 544 164.666992188 522.333007812 97.833984375 479 55.5009765625 c 0
 435.666992188 13.16796875 377.666992188 -7.9990234375 305 -7.9990234375 c 0
 243.666992188 -7.9990234375 193.666992188 6.0009765625 155 34.0009765625 c 1
 124 -19.9990234375 l 1
 66 -19.9990234375 l 1
 118 70.0009765625 l 1
 83.3330078125 114.000976562 66 176.000976562 66 256.000976562 c 2
 66 435.000976562 l 2
 66 526.333984375 87.6669921875 593.166992188 131 635.5 c 0
 174.333007812 677.833007812 232.666015625 699 305.999023438 699 c 0
 366.666015625 699 416.333007812 685 455 657 c 1
 486 710 l 1
 544 710 l 1
 492 620 l 1
159 141 m 1
 419 594.000976562 l 1
 392.333007812 620.000976562 354.666015625 633.000976562 306 633.000976562 c 0
 250.666992188 633.000976562 209 617.16796875 181 585.500976562 c 0
 153 553.833984375 139 502.666992188 139 432 c 2
 139 252 l 2
 139 206.666992188 145.666992188 169.666992188 159 141 c 1
451 548.000976562 m 1
 191 96.0009765625 l 1
 217.666992188 71.333984375 256 59.0009765625 306 59.0009765625 c 0
 416 59.0009765625 471 123.333984375 471 252.000976562 c 2
 471 432.000976562 l 2
 471 479.333984375 464.333007812 518.000976562 451 548.000976562 c 1
EndSplineSet
EndChar

StartChar: Ugrave
Encoding: 217 217 154
Width: 635
GlyphClass: 2
Flags: W
LayerCount: 2
Fore
SplineSet
196 23 m 0
 160 42.3330078125 131.666992188 69.6669921875 111 105 c 0
 90.3330078125 140.333007812 80 180.333007812 80 225 c 2
 80 690 l 1
 154 690 l 1
 154 231 l 2
 154 178.333007812 168.833007812 136.5 198.5 105.5 c 0
 228.166992188 74.5 268 59 318 59 c 0
 367.333007812 59 407 74.5 437 105.5 c 0
 467 136.5 482 178.333007812 482 231 c 2
 482 690 l 1
 555 690 l 1
 555 225 l 2
 555 179.666992188 544.833007812 139.5 524.5 104.5 c 0
 504.166992188 69.5 476 42.3330078125 440 23 c 0
 404 3.6669921875 363.333007812 -6 318 -6 c 0
 272.666992188 -6 232 3.6669921875 196 23 c 0
191 880.000976562 m 1
 275 880.000976562 l 1
 374 755.000976562 l 1
 311 755.000976562 l 1
 191 880.000976562 l 1
EndSplineSet
EndChar

StartChar: Uacute
Encoding: 218 218 155
Width: 635
GlyphClass: 2
Flags: W
LayerCount: 2
Fore
SplineSet
196 23 m 0
 160 42.3330078125 131.666992188 69.6669921875 111 105 c 0
 90.3330078125 140.333007812 80 180.333007812 80 225 c 2
 80 690 l 1
 154 690 l 1
 154 231 l 2
 154 178.333007812 168.833007812 136.5 198.5 105.5 c 0
 228.166992188 74.5 268 59 318 59 c 0
 367.333007812 59 407 74.5 437 105.5 c 0
 467 136.5 482 178.333007812 482 231 c 2
 482 690 l 1
 555 690 l 1
 555 225 l 2
 555 179.666992188 544.833007812 139.5 524.5 104.5 c 0
 504.166992188 69.5 476 42.3330078125 440 23 c 0
 404 3.6669921875 363.333007812 -6 318 -6 c 0
 272.666992188 -6 232 3.6669921875 196 23 c 0
341 880.000976562 m 1
 425 880.000976562 l 1
 305 755.000976562 l 1
 242 755.000976562 l 1
 341 880.000976562 l 1
EndSplineSet
EndChar

StartChar: Ucircumflex
Encoding: 219 219 156
Width: 635
GlyphClass: 2
Flags: W
LayerCount: 2
Fore
SplineSet
196 23 m 0
 160 42.3330078125 131.666992188 69.6669921875 111 105 c 0
 90.3330078125 140.333007812 80 180.333007812 80 225 c 2
 80 690 l 1
 154 690 l 1
 154 231 l 2
 154 178.333007812 168.833007812 136.5 198.5 105.5 c 0
 228.166992188 74.5 268 59 318 59 c 0
 367.333007812 59 407 74.5 437 105.5 c 0
 467 136.5 482 178.333007812 482 231 c 2
 482 690 l 1
 555 690 l 1
 555 225 l 2
 555 179.666992188 544.833007812 139.5 524.5 104.5 c 0
 504.166992188 69.5 476 42.3330078125 440 23 c 0
 404 3.6669921875 363.333007812 -6 318 -6 c 0
 272.666992188 -6 232 3.6669921875 196 23 c 0
289 889.000976562 m 1
 344 889.000976562 l 1
 451 745.000976562 l 1
 389 745.000976562 l 1
 317 840.000976562 l 1
 244 745.000976562 l 1
 182 745.000976562 l 1
 289 889.000976562 l 1
EndSplineSet
EndChar

StartChar: Udieresis
Encoding: 220 220 157
Width: 635
GlyphClass: 2
Flags: W
LayerCount: 2
Fore
SplineSet
196 23 m 0
 160 42.3330078125 131.666992188 69.6669921875 111 105 c 0
 90.3330078125 140.333007812 80 180.333007812 80 225 c 2
 80 690 l 1
 154 690 l 1
 154 231 l 2
 154 178.333007812 168.833007812 136.5 198.5 105.5 c 0
 228.166992188 74.5 268 59 318 59 c 0
 367.333007812 59 407 74.5 437 105.5 c 0
 467 136.5 482 178.333007812 482 231 c 2
 482 690 l 1
 555 690 l 1
 555 225 l 2
 555 179.666992188 544.833007812 139.5 524.5 104.5 c 0
 504.166992188 69.5 476 42.3330078125 440 23 c 0
 404 3.6669921875 363.333007812 -6 318 -6 c 0
 272.666992188 -6 232 3.6669921875 196 23 c 0
193 847.000976562 m 1
 269 847.000976562 l 1
 269 761.000976562 l 1
 193 761.000976562 l 1
 193 847.000976562 l 1
364 847.000976562 m 1
 440 847.000976562 l 1
 440 761.000976562 l 1
 364 761.000976562 l 1
 364 847.000976562 l 1
EndSplineSet
EndChar

StartChar: Yacute
Encoding: 221 221 158
Width: 499
GlyphClass: 2
Flags: W
LayerCount: 2
Fore
SplineSet
286 289 m 1
 286 0 l 1
 213 0 l 1
 213 290 l 1
 7 690 l 1
 86 690 l 1
 249 359 l 1
 413 690 l 1
 492 690 l 1
 286 289 l 1
274 880 m 1
 358 880 l 1
 238 755 l 1
 175 755 l 1
 274 880 l 1
EndSplineSet
EndChar

StartChar: Thorn
Encoding: 222 222 159
Width: 577
GlyphClass: 2
Flags: W
LayerCount: 2
Fore
SplineSet
477 510.5 m 0
 515.666992188 474.833007812 535 424 535 358 c 0
 535 296 515.5 247.333007812 476.5 212 c 0
 437.5 176.666992188 384.666992188 159 318 159 c 2
 153 159 l 1
 153 0 l 1
 80 0 l 1
 80 690 l 1
 153 690 l 1
 153 564 l 1
 318 564 l 2
 385.333007812 564 438.333007812 546.166992188 477 510.5 c 0
423 258 m 0
 449 280 462 313.333007812 462 358 c 0
 462 405.333984375 449 440.666992188 423 464 c 0
 397 487.333007812 360 499 312 499 c 2
 153 499 l 1
 153 225 l 1
 312 225 l 2
 360 225 397 236 423 258 c 0
EndSplineSet
EndChar

StartChar: germandbls
Encoding: 223 223 160
Width: 505
GlyphClass: 2
Flags: W
LayerCount: 2
Fore
SplineSet
251 58 m 1
 276.999023438 58.0009765625 l 2
 307.666015625 58.0009765625 329.999023438 63.333984375 343.999023438 74.0009765625 c 0
 357.999023438 84.66796875 366.999023438 101.000976562 370.999023438 123.000976562 c 0
 374.999023438 145.000976562 376.999023438 179.000976562 376.999023438 225.000976562 c 0
 376.999023438 269.66796875 374.999023438 303.16796875 370.999023438 325.500976562 c 0
 366.999023438 347.834960938 357.499023438 364.66796875 342.499023438 376.000976562 c 0
 327.499023438 387.333984375 303.666015625 393.000976562 270.999023438 393.000976562 c 2
 249.999023438 393.000976562 l 1
 249.999023438 455.000976562 l 1
 276.999023438 455.000976562 l 2
 309.666015625 455.000976562 333.166015625 462.16796875 347.499023438 476.500976562 c 0
 361.83203125 490.833984375 368.999023438 513.000976562 368.999023438 543.000976562 c 0
 368.999023438 574.333984375 359.83203125 597.500976562 341.499023438 612.500976562 c 0
 323.166015625 627.500976562 295.666015625 635.000976562 258.999023438 635.000976562 c 0
 218.999023438 635.000976562 189.666015625 625.500976562 170.999023438 606.500976562 c 0
 152.33203125 587.500976562 142.999023438 557.000976562 142.999023438 515.000976562 c 2
 142.999023438 0.0009765625 l 1
 74.9990234375 0.0009765625 l 1
 74.9990234375 506.000976562 l 2
 74.9990234375 568.66796875 89.33203125 616.16796875 117.999023438 648.500976562 c 0
 146.666015625 680.833984375 193.333007812 697.000976562 258 697.000976562 c 0
 316 697.000976562 360.5 683.66796875 391.5 657.000976562 c 0
 422.5 630.333984375 438 592.666992188 438 544 c 0
 438 514.666015625 432.666992188 490.666015625 422 472 c 0
 411.333007812 453.333007812 395 438.333007812 373 427 c 1
 394.333984375 417 410.166992188 404 420.5 388 c 0
 430.836914062 372 437.669921875 351.833007812 441 327.5 c 0
 444.333007812 303.166992188 446 269 446 225 c 0
 446 166.333007812 442 121 434 89 c 0
 426 57 410.166992188 33.5 386.5 18.5 c 0
 362.833007812 3.5 327.333007812 -4 280 -4 c 2
 251 -4 l 1
 251 58 l 1
EndSplineSet
EndChar

StartChar: agrave
Encoding: 224 224 161
Width: 497
GlyphClass: 2
Flags: W
LayerCount: 2
Fore
SplineSet
374.5 471 m 0
 406.166992188 442.333007812 422.000976562 400.333007812 422.000976562 345 c 2
 422.000976562 0 l 1
 355.000976562 0 l 1
 355.000976562 54 l 1
 339.66796875 33.3330078125 320.66796875 18.166015625 298.000976562 8.4990234375 c 0
 275.333984375 -1.16796875 247.666992188 -6.0009765625 215 -6.0009765625 c 0
 161.666992188 -6.0009765625 120.333984375 6.666015625 91.0009765625 31.9990234375 c 0
 61.66796875 57.33203125 47.0009765625 94.33203125 47.0009765625 142.999023438 c 0
 47.0009765625 188.33203125 61.833984375 223.83203125 91.5009765625 249.499023438 c 0
 121.16796875 275.166015625 163.000976562 287.999023438 217.000976562 287.999023438 c 2
 354.000976562 287.999023438 l 1
 354.000976562 345.999023438 l 2
 354.000976562 382.666015625 344.000976562 410.333007812 324.000976562 429 c 0
 304.000976562 447.666992188 275.66796875 457 239.000976562 457 c 0
 204.333984375 457 177.166992188 449.166992188 157.5 433.5 c 0
 137.833007812 417.833007812 128 396.333007812 128 369 c 2
 128 366 l 1
 62 366 l 1
 62 371 l 2
 62 414.333007812 77.6669921875 449 109 475 c 0
 140.333007812 501 183.333007812 514 238 514 c 0
 297.333007812 514 342.833007812 499.666992188 374.5 471 c 0
323.500976562 79.5 m 0
 343.833984375 99.8330078125 354.000976562 130.666992188 354.000976562 172 c 2
 354.000976562 238 l 1
 227.000976562 238 l 2
 152.333984375 238 115.000976562 206.666992188 115.000976562 144 c 0
 115.000976562 80.6669921875 152.000976562 49 226.000976562 49 c 0
 270.66796875 49 303.16796875 59.1669921875 323.500976562 79.5 c 0
120.000976562 697.000976562 m 1
 204.000976562 697.000976562 l 1
 303.000976562 572.000976562 l 1
 240.000976562 572.000976562 l 1
 120.000976562 697.000976562 l 1
EndSplineSet
EndChar

StartChar: aacute
Encoding: 225 225 162
Width: 497
GlyphClass: 2
Flags: W
LayerCount: 2
Fore
SplineSet
374.5 471 m 0
 406.166992188 442.333007812 422.000976562 400.333007812 422.000976562 345 c 2
 422.000976562 0 l 1
 355.000976562 0 l 1
 355.000976562 54 l 1
 339.66796875 33.3330078125 320.66796875 18.166015625 298.000976562 8.4990234375 c 0
 275.333984375 -1.16796875 247.666992188 -6.0009765625 215 -6.0009765625 c 0
 161.666992188 -6.0009765625 120.333984375 6.666015625 91.0009765625 31.9990234375 c 0
 61.66796875 57.33203125 47.0009765625 94.33203125 47.0009765625 142.999023438 c 0
 47.0009765625 188.33203125 61.833984375 223.83203125 91.5009765625 249.499023438 c 0
 121.16796875 275.166015625 163.000976562 287.999023438 217.000976562 287.999023438 c 2
 354.000976562 287.999023438 l 1
 354.000976562 345.999023438 l 2
 354.000976562 382.666015625 344.000976562 410.333007812 324.000976562 429 c 0
 304.000976562 447.666992188 275.66796875 457 239.000976562 457 c 0
 204.333984375 457 177.166992188 449.166992188 157.5 433.5 c 0
 137.833007812 417.833007812 128 396.333007812 128 369 c 2
 128 366 l 1
 62 366 l 1
 62 371 l 2
 62 414.333007812 77.6669921875 449 109 475 c 0
 140.333007812 501 183.333007812 514 238 514 c 0
 297.333007812 514 342.833007812 499.666992188 374.5 471 c 0
323.500976562 79.5 m 0
 343.833984375 99.8330078125 354.000976562 130.666992188 354.000976562 172 c 2
 354.000976562 238 l 1
 227.000976562 238 l 2
 152.333984375 238 115.000976562 206.666992188 115.000976562 144 c 0
 115.000976562 80.6669921875 152.000976562 49 226.000976562 49 c 0
 270.66796875 49 303.16796875 59.1669921875 323.500976562 79.5 c 0
270.000976562 697.000976562 m 1
 354.000976562 697.000976562 l 1
 234.000976562 572.000976562 l 1
 171.000976562 572.000976562 l 1
 270.000976562 697.000976562 l 1
EndSplineSet
EndChar

StartChar: acircumflex
Encoding: 226 226 163
Width: 497
GlyphClass: 2
Flags: W
LayerCount: 2
Fore
SplineSet
374.5 471 m 0
 406.166992188 442.333007812 422.000976562 400.333007812 422.000976562 345 c 2
 422.000976562 0 l 1
 355.000976562 0 l 1
 355.000976562 54 l 1
 339.66796875 33.3330078125 320.66796875 18.166015625 298.000976562 8.4990234375 c 0
 275.333984375 -1.16796875 247.666992188 -6.0009765625 215 -6.0009765625 c 0
 161.666992188 -6.0009765625 120.333984375 6.666015625 91.0009765625 31.9990234375 c 0
 61.66796875 57.33203125 47.0009765625 94.33203125 47.0009765625 142.999023438 c 0
 47.0009765625 188.33203125 61.833984375 223.83203125 91.5009765625 249.499023438 c 0
 121.16796875 275.166015625 163.000976562 287.999023438 217.000976562 287.999023438 c 2
 354.000976562 287.999023438 l 1
 354.000976562 345.999023438 l 2
 354.000976562 382.666015625 344.000976562 410.333007812 324.000976562 429 c 0
 304.000976562 447.666992188 275.66796875 457 239.000976562 457 c 0
 204.333984375 457 177.166992188 449.166992188 157.5 433.5 c 0
 137.833007812 417.833007812 128 396.333007812 128 369 c 2
 128 366 l 1
 62 366 l 1
 62 371 l 2
 62 414.333007812 77.6669921875 449 109 475 c 0
 140.333007812 501 183.333007812 514 238 514 c 0
 297.333007812 514 342.833007812 499.666992188 374.5 471 c 0
323.500976562 79.5 m 0
 343.833984375 99.8330078125 354.000976562 130.666992188 354.000976562 172 c 2
 354.000976562 238 l 1
 227.000976562 238 l 2
 152.333984375 238 115.000976562 206.666992188 115.000976562 144 c 0
 115.000976562 80.6669921875 152.000976562 49 226.000976562 49 c 0
 270.66796875 49 303.16796875 59.1669921875 323.500976562 79.5 c 0
218.000976562 706.000976562 m 1
 273.000976562 706.000976562 l 1
 380.000976562 562.000976562 l 1
 318.000976562 562.000976562 l 1
 246.000976562 657.000976562 l 1
 173.000976562 562.000976562 l 1
 111.000976562 562.000976562 l 1
 218.000976562 706.000976562 l 1
EndSplineSet
EndChar

StartChar: atilde
Encoding: 227 227 164
Width: 497
GlyphClass: 2
Flags: W
LayerCount: 2
Fore
SplineSet
374.5 471 m 0
 406.166992188 442.333007812 422.000976562 400.333007812 422.000976562 345 c 2
 422.000976562 0 l 1
 355.000976562 0 l 1
 355.000976562 54 l 1
 339.66796875 33.3330078125 320.66796875 18.166015625 298.000976562 8.4990234375 c 0
 275.333984375 -1.16796875 247.666992188 -6.0009765625 215 -6.0009765625 c 0
 161.666992188 -6.0009765625 120.333984375 6.666015625 91.0009765625 31.9990234375 c 0
 61.66796875 57.33203125 47.0009765625 94.33203125 47.0009765625 142.999023438 c 0
 47.0009765625 188.33203125 61.833984375 223.83203125 91.5009765625 249.499023438 c 0
 121.16796875 275.166015625 163.000976562 287.999023438 217.000976562 287.999023438 c 2
 354.000976562 287.999023438 l 1
 354.000976562 345.999023438 l 2
 354.000976562 382.666015625 344.000976562 410.333007812 324.000976562 429 c 0
 304.000976562 447.666992188 275.66796875 457 239.000976562 457 c 0
 204.333984375 457 177.166992188 449.166992188 157.5 433.5 c 0
 137.833007812 417.833007812 128 396.333007812 128 369 c 2
 128 366 l 1
 62 366 l 1
 62 371 l 2
 62 414.333007812 77.6669921875 449 109 475 c 0
 140.333007812 501 183.333007812 514 238 514 c 0
 297.333007812 514 342.833007812 499.666992188 374.5 471 c 0
323.500976562 79.5 m 0
 343.833984375 99.8330078125 354.000976562 130.666992188 354.000976562 172 c 2
 354.000976562 238 l 1
 227.000976562 238 l 2
 152.333984375 238 115.000976562 206.666992188 115.000976562 144 c 0
 115.000976562 80.6669921875 152.000976562 49 226.000976562 49 c 0
 270.66796875 49 303.16796875 59.1669921875 323.500976562 79.5 c 0
122.000976562 630.000976562 m 1
 133.333984375 643.333984375 144.334960938 653.00390625 155.001953125 659.00390625 c 0
 165.668945312 665.00390625 177.668945312 668.00390625 191.001953125 668.00390625 c 0
 201.668945312 668.00390625 211.3359375 666.336914062 220.001953125 663.00390625 c 0
 228.668945312 659.670898438 239.001953125 654.670898438 251.001953125 648.00390625 c 0
 261.001953125 642.00390625 269.834960938 637.336914062 277.501953125 634.00390625 c 0
 285.168945312 630.670898438 293.668945312 629.00390625 303.001953125 629.00390625 c 0
 315.001953125 629.00390625 325.501953125 631.836914062 334.501953125 637.50390625 c 0
 343.501953125 643.172851562 355.001953125 653.33984375 369.001953125 668.00390625 c 1
 369.001953125 607.00390625 l 1
 347.668945312 582.336914062 324.668945312 570.00390625 300.001953125 570.00390625 c 0
 288.668945312 570.00390625 278.668945312 571.670898438 270.001953125 575.00390625 c 0
 261.334960938 578.336914062 250.66796875 583.669921875 238.000976562 591.002929688 c 0
 236.000976562 592.3359375 231.66796875 594.668945312 225.000976562 598.001953125 c 0
 218.333984375 601.334960938 212.000976562 603.834960938 206.000976562 605.501953125 c 0
 200.000976562 607.168945312 194.333984375 608.001953125 189.000976562 608.001953125 c 0
 176.333984375 608.001953125 165.333984375 605.168945312 156.000976562 599.501953125 c 0
 146.666992188 593.834960938 135.333984375 583.66796875 122.000976562 569.000976562 c 1
 122.000976562 630.000976562 l 1
EndSplineSet
EndChar

StartChar: adieresis
Encoding: 228 228 165
Width: 497
GlyphClass: 2
Flags: W
LayerCount: 2
Fore
SplineSet
374.5 471 m 0
 406.166992188 442.333007812 422.000976562 400.333007812 422.000976562 345 c 2
 422.000976562 0 l 1
 355.000976562 0 l 1
 355.000976562 54 l 1
 339.66796875 33.3330078125 320.66796875 18.166015625 298.000976562 8.4990234375 c 0
 275.333984375 -1.16796875 247.666992188 -6.0009765625 215 -6.0009765625 c 0
 161.666992188 -6.0009765625 120.333984375 6.666015625 91.0009765625 31.9990234375 c 0
 61.66796875 57.33203125 47.0009765625 94.33203125 47.0009765625 142.999023438 c 0
 47.0009765625 188.33203125 61.833984375 223.83203125 91.5009765625 249.499023438 c 0
 121.16796875 275.166015625 163.000976562 287.999023438 217.000976562 287.999023438 c 2
 354.000976562 287.999023438 l 1
 354.000976562 345.999023438 l 2
 354.000976562 382.666015625 344.000976562 410.333007812 324.000976562 429 c 0
 304.000976562 447.666992188 275.66796875 457 239.000976562 457 c 0
 204.333984375 457 177.166992188 449.166992188 157.5 433.5 c 0
 137.833007812 417.833007812 128 396.333007812 128 369 c 2
 128 366 l 1
 62 366 l 1
 62 371 l 2
 62 414.333007812 77.6669921875 449 109 475 c 0
 140.333007812 501 183.333007812 514 238 514 c 0
 297.333007812 514 342.833007812 499.666992188 374.5 471 c 0
323.500976562 79.5 m 0
 343.833984375 99.8330078125 354.000976562 130.666992188 354.000976562 172 c 2
 354.000976562 238 l 1
 227.000976562 238 l 2
 152.333984375 238 115.000976562 206.666992188 115.000976562 144 c 0
 115.000976562 80.6669921875 152.000976562 49 226.000976562 49 c 0
 270.66796875 49 303.16796875 59.1669921875 323.500976562 79.5 c 0
122.000976562 664.000976562 m 1
 198.000976562 664.000976562 l 1
 198.000976562 578.000976562 l 1
 122.000976562 578.000976562 l 1
 122.000976562 664.000976562 l 1
293.000976562 664.000976562 m 1
 369.000976562 664.000976562 l 1
 369.000976562 578.000976562 l 1
 293.000976562 578.000976562 l 1
 293.000976562 664.000976562 l 1
EndSplineSet
EndChar

StartChar: aring
Encoding: 229 229 166
Width: 497
GlyphClass: 2
Flags: W
LayerCount: 2
Fore
SplineSet
374.5 471 m 0
 406.166992188 442.333007812 422.000976562 400.333007812 422.000976562 345 c 2
 422.000976562 0 l 1
 355.000976562 0 l 1
 355.000976562 54 l 1
 339.66796875 33.3330078125 320.66796875 18.166015625 298.000976562 8.4990234375 c 0
 275.333984375 -1.16796875 247.666992188 -6.0009765625 215 -6.0009765625 c 0
 161.666992188 -6.0009765625 120.333984375 6.666015625 91.0009765625 31.9990234375 c 0
 61.66796875 57.33203125 47.0009765625 94.33203125 47.0009765625 142.999023438 c 0
 47.0009765625 188.33203125 61.833984375 223.83203125 91.5009765625 249.499023438 c 0
 121.16796875 275.166015625 163.000976562 287.999023438 217.000976562 287.999023438 c 2
 354.000976562 287.999023438 l 1
 354.000976562 345.999023438 l 2
 354.000976562 382.666015625 344.000976562 410.333007812 324.000976562 429 c 0
 304.000976562 447.666992188 275.66796875 457 239.000976562 457 c 0
 204.333984375 457 177.166992188 449.166992188 157.5 433.5 c 0
 137.833007812 417.833007812 128 396.333007812 128 369 c 2
 128 366 l 1
 62 366 l 1
 62 371 l 2
 62 414.333007812 77.6669921875 449 109 475 c 0
 140.333007812 501 183.333007812 514 238 514 c 0
 297.333007812 514 342.833007812 499.666992188 374.5 471 c 0
323.500976562 79.5 m 0
 343.833984375 99.8330078125 354.000976562 130.666992188 354.000976562 172 c 2
 354.000976562 238 l 1
 227.000976562 238 l 2
 152.333984375 238 115.000976562 206.666992188 115.000976562 144 c 0
 115.000976562 80.6669921875 152.000976562 49 226.000976562 49 c 0
 270.66796875 49 303.16796875 59.1669921875 323.500976562 79.5 c 0
180.500976562 585.000976562 m 0
 163.500976562 602.333984375 155.000976562 624.000976562 155.000976562 650.000976562 c 0
 155.000976562 676.66796875 163.500976562 698.66796875 180.500976562 716.000976562 c 0
 197.500976562 733.333984375 219.333984375 742.000976562 246.000976562 742.000976562 c 0
 272.000976562 742.000976562 293.66796875 733.333984375 311.000976562 716.000976562 c 0
 328.333984375 698.66796875 337.000976562 676.66796875 337.000976562 650.000976562 c 0
 337.000976562 624.000976562 328.333984375 602.333984375 311.000976562 585.000976562 c 0
 293.66796875 567.66796875 272.000976562 559.000976562 246.000976562 559.000976562 c 0
 219.333984375 559.000976562 197.500976562 567.66796875 180.500976562 585.000976562 c 0
283.000976562 612.000976562 m 0
 293.000976562 622.000976562 298.000976562 634.668945312 298.000976562 650.001953125 c 0
 298.000976562 665.334960938 293.000976562 678.16796875 283.000976562 688.500976562 c 0
 273.000976562 698.833984375 260.66796875 704.000976562 246.000976562 704.000976562 c 0
 231.333984375 704.000976562 219.000976562 698.833984375 209.000976562 688.500976562 c 0
 199.000976562 678.166992188 194.000976562 665.333984375 194.000976562 650.000976562 c 0
 194.000976562 634.66796875 199.000976562 622.000976562 209.000976562 612.000976562 c 0
 219.000976562 602.000976562 231.333984375 597.000976562 246.000976562 597.000976562 c 0
 260.66796875 597.000976562 273.000976562 602.000976562 283.000976562 612.000976562 c 0
EndSplineSet
EndChar

StartChar: ae
Encoding: 230 230 167
Width: 798
GlyphClass: 2
Flags: W
LayerCount: 2
Fore
SplineSet
422 240 m 1
 422.001953125 209.999023438 l 2
 422.001953125 152.666015625 433.668945312 112.499023438 457.001953125 89.4990234375 c 0
 480.334960938 66.4990234375 512.66796875 54.9990234375 554.000976562 54.9990234375 c 0
 590.000976562 54.9990234375 618.16796875 63.666015625 638.500976562 80.9990234375 c 0
 658.833984375 98.33203125 669.000976562 122.33203125 669.000976562 152.999023438 c 2
 669.000976562 155.999023438 l 1
 735.000976562 155.999023438 l 1
 735.000976562 150.999023438 l 2
 735.000976562 104.999023438 719.16796875 67.33203125 687.500976562 37.9990234375 c 0
 655.833984375 8.666015625 611.666992188 -6.0009765625 555 -6.0009765625 c 0
 519 -6.0009765625 486.833007812 0.4990234375 458.5 13.4990234375 c 0
 430.166992188 26.4990234375 407.333984375 46.9990234375 390.000976562 74.9990234375 c 1
 355.333984375 20.9990234375 299.000976562 -6.0009765625 221.000976562 -6.0009765625 c 0
 167.000976562 -6.0009765625 124.500976562 6.83203125 93.5009765625 32.4990234375 c 0
 62.5009765625 58.166015625 47.0009765625 94.9990234375 47.0009765625 142.999023438 c 0
 47.0009765625 188.33203125 61.833984375 223.83203125 91.5009765625 249.499023438 c 0
 121.16796875 275.166015625 163.000976562 287.999023438 217.000976562 287.999023438 c 2
 354.000976562 287.999023438 l 1
 354.000976562 345.999023438 l 2
 354.000976562 382.666015625 344.000976562 410.333007812 324.000976562 429 c 0
 304.000976562 447.666992188 275.66796875 457 239.000976562 457 c 0
 204.333984375 457 177.166992188 449.166992188 157.5 433.5 c 0
 137.833007812 417.833007812 128 396.333007812 128 369 c 2
 128 366 l 1
 62 366 l 1
 62 371 l 2
 62 414.333007812 77.6669921875 449 109 475 c 0
 140.333007812 501 183.333007812 514 238 514 c 0
 312 514 364.333007812 491.666992188 395 447 c 1
 428.333007812 491.666992188 479 514 547 514 c 0
 605 514 651.5 496.5 686.5 461.5 c 0
 721.5 426.5 739 372.666992188 739 300 c 2
 739 240 l 1
 422 240 l 1
456.001953125 418.499023438 m 0
 433.334960938 396.166015625 422.002929688 357.33203125 422.002929688 301.999023438 c 2
 422.002929688 290.999023438 l 1
 670.002929688 290.999023438 l 1
 670.002929688 308.999023438 l 2
 670.002929688 361.666015625 659.169921875 398.666015625 637.502929688 419.999023438 c 0
 615.8359375 441.33203125 585.668945312 451.999023438 547.001953125 451.999023438 c 0
 509.001953125 451.999023438 478.668945312 440.83203125 456.001953125 418.499023438 c 0
354.002929688 237.998046875 m 1
 227.002929688 237.998046875 l 2
 152.3359375 237.998046875 115.002929688 206.665039062 115.002929688 143.998046875 c 0
 115.002929688 80.6650390625 152.002929688 48.998046875 226.002929688 48.998046875 c 0
 311.3359375 48.998046875 354.002929688 91.6650390625 354.002929688 176.998046875 c 2
 354.002929688 237.998046875 l 1
EndSplineSet
EndChar

StartChar: ccedilla
Encoding: 231 231 168
Width: 503
GlyphClass: 2
Flags: W
LayerCount: 2
Fore
SplineSet
378 340 m 1
 377.998046875 344.999023438 l 2
 377.998046875 378.999023438 367.331054688 405.33203125 345.998046875 423.999023438 c 0
 324.665039062 442.666015625 295.665039062 451.999023438 258.998046875 451.999023438 c 0
 217.665039062 451.999023438 185.33203125 440.83203125 161.999023438 418.499023438 c 0
 138.666015625 396.166015625 126.999023438 357.333007812 126.999023438 302 c 2
 126.999023438 206 l 2
 126.999023438 150 138.499023438 110.833007812 161.499023438 88.5 c 0
 184.499023438 66.1669921875 216.666015625 55 257.999023438 55 c 0
 295.333007812 55 324.666015625 64.3330078125 345.999023438 83 c 0
 367.33203125 101.666992188 377.999023438 128 377.999023438 162 c 2
 377.999023438 167 l 1
 443.999023438 167 l 1
 443.999023438 163 l 2
 443.999023438 120.333007812 431.999023438 84.5 407.999023438 55.5 c 0
 383.999023438 26.5 350.999023438 7.6669921875 308.999023438 -1 c 1
 259.999023438 -150 l 1
 188.999023438 -150 l 1
 244.999023438 -6 l 1
 187.666015625 -4 142.333007812 13.6669921875 109 47 c 0
 75.6669921875 80.3330078125 59 132 59 202 c 2
 59 306 l 2
 59 378 76.8330078125 430.666992188 112.5 464 c 0
 148.166992188 497.333007812 196 514 256 514 c 0
 314 514 359.833007812 498.666992188 393.5 468 c 0
 427.166992188 437.333007812 444 396.333007812 444 345 c 2
 444 340 l 1
 378 340 l 1
EndSplineSet
EndChar

StartChar: egrave
Encoding: 232 232 169
Width: 503
GlyphClass: 2
Flags: W
LayerCount: 2
Fore
SplineSet
127 240 m 1
 127 210 l 2
 127 152.666992188 138.666992188 112.5 162 89.5 c 0
 185.333007812 66.5 217.666015625 55 258.999023438 55 c 0
 294.999023438 55 323.166015625 63.6669921875 343.499023438 81 c 0
 363.83203125 98.3330078125 373.999023438 122.333007812 373.999023438 153 c 2
 373.999023438 156 l 1
 439.999023438 156 l 1
 439.999023438 151 l 2
 439.999023438 103.666992188 423.499023438 65.6669921875 390.499023438 37 c 0
 357.499023438 8.3330078125 311.999023438 -6 253.999023438 -6 c 0
 194.666015625 -6 147.333007812 11.6669921875 112 47 c 0
 76.6669921875 82.3330078125 59 137.333007812 59 212 c 2
 59 300 l 2
 59 372.666992188 76.6669921875 426.5 112 461.5 c 0
 147.333007812 496.5 194 514 252 514 c 0
 310 514 356.5 496.5 391.5 461.5 c 0
 426.5 426.5 444 372.666992188 444 300 c 2
 444 240 l 1
 127 240 l 1
161 418.5 m 0
 138.333007812 396.166992188 127 357.333007812 127 302 c 2
 127 291 l 1
 376 291 l 1
 376 309 l 2
 376 361.666992188 365 398.666992188 343 420 c 0
 321 441.333007812 290.666992188 452 252 452 c 0
 214 452 183.666992188 440.833007812 161 418.5 c 0
126 696.999023438 m 1
 210 696.999023438 l 1
 309 571.999023438 l 1
 246 571.999023438 l 1
 126 696.999023438 l 1
EndSplineSet
EndChar

StartChar: eacute
Encoding: 233 233 170
Width: 503
GlyphClass: 2
Flags: W
LayerCount: 2
Fore
SplineSet
127 240 m 1
 127 210 l 2
 127 152.666992188 138.666992188 112.5 162 89.5 c 0
 185.333007812 66.5 217.666015625 55 258.999023438 55 c 0
 294.999023438 55 323.166015625 63.6669921875 343.499023438 81 c 0
 363.83203125 98.3330078125 373.999023438 122.333007812 373.999023438 153 c 2
 373.999023438 156 l 1
 439.999023438 156 l 1
 439.999023438 151 l 2
 439.999023438 103.666992188 423.499023438 65.6669921875 390.499023438 37 c 0
 357.499023438 8.3330078125 311.999023438 -6 253.999023438 -6 c 0
 194.666015625 -6 147.333007812 11.6669921875 112 47 c 0
 76.6669921875 82.3330078125 59 137.333007812 59 212 c 2
 59 300 l 2
 59 372.666992188 76.6669921875 426.5 112 461.5 c 0
 147.333007812 496.5 194 514 252 514 c 0
 310 514 356.5 496.5 391.5 461.5 c 0
 426.5 426.5 444 372.666992188 444 300 c 2
 444 240 l 1
 127 240 l 1
161 418.5 m 0
 138.333007812 396.166992188 127 357.333007812 127 302 c 2
 127 291 l 1
 376 291 l 1
 376 309 l 2
 376 361.666992188 365 398.666992188 343 420 c 0
 321 441.333007812 290.666992188 452 252 452 c 0
 214 452 183.666992188 440.833007812 161 418.5 c 0
276 696.999023438 m 1
 360 696.999023438 l 1
 240 571.999023438 l 1
 177 571.999023438 l 1
 276 696.999023438 l 1
EndSplineSet
EndChar

StartChar: ecircumflex
Encoding: 234 234 171
Width: 503
GlyphClass: 2
Flags: W
LayerCount: 2
Fore
SplineSet
127 240 m 1
 127 210 l 2
 127 152.666992188 138.666992188 112.5 162 89.5 c 0
 185.333007812 66.5 217.666015625 55 258.999023438 55 c 0
 294.999023438 55 323.166015625 63.6669921875 343.499023438 81 c 0
 363.83203125 98.3330078125 373.999023438 122.333007812 373.999023438 153 c 2
 373.999023438 156 l 1
 439.999023438 156 l 1
 439.999023438 151 l 2
 439.999023438 103.666992188 423.499023438 65.6669921875 390.499023438 37 c 0
 357.499023438 8.3330078125 311.999023438 -6 253.999023438 -6 c 0
 194.666015625 -6 147.333007812 11.6669921875 112 47 c 0
 76.6669921875 82.3330078125 59 137.333007812 59 212 c 2
 59 300 l 2
 59 372.666992188 76.6669921875 426.5 112 461.5 c 0
 147.333007812 496.5 194 514 252 514 c 0
 310 514 356.5 496.5 391.5 461.5 c 0
 426.5 426.5 444 372.666992188 444 300 c 2
 444 240 l 1
 127 240 l 1
161 418.5 m 0
 138.333007812 396.166992188 127 357.333007812 127 302 c 2
 127 291 l 1
 376 291 l 1
 376 309 l 2
 376 361.666992188 365 398.666992188 343 420 c 0
 321 441.333007812 290.666992188 452 252 452 c 0
 214 452 183.666992188 440.833007812 161 418.5 c 0
224 705.999023438 m 1
 279 705.999023438 l 1
 386 561.999023438 l 1
 324 561.999023438 l 1
 252 656.999023438 l 1
 179 561.999023438 l 1
 117 561.999023438 l 1
 224 705.999023438 l 1
EndSplineSet
EndChar

StartChar: edieresis
Encoding: 235 235 172
Width: 503
GlyphClass: 2
Flags: W
LayerCount: 2
Fore
SplineSet
127 240 m 1
 127 210 l 2
 127 152.666992188 138.666992188 112.5 162 89.5 c 0
 185.333007812 66.5 217.666015625 55 258.999023438 55 c 0
 294.999023438 55 323.166015625 63.6669921875 343.499023438 81 c 0
 363.83203125 98.3330078125 373.999023438 122.333007812 373.999023438 153 c 2
 373.999023438 156 l 1
 439.999023438 156 l 1
 439.999023438 151 l 2
 439.999023438 103.666992188 423.499023438 65.6669921875 390.499023438 37 c 0
 357.499023438 8.3330078125 311.999023438 -6 253.999023438 -6 c 0
 194.666015625 -6 147.333007812 11.6669921875 112 47 c 0
 76.6669921875 82.3330078125 59 137.333007812 59 212 c 2
 59 300 l 2
 59 372.666992188 76.6669921875 426.5 112 461.5 c 0
 147.333007812 496.5 194 514 252 514 c 0
 310 514 356.5 496.5 391.5 461.5 c 0
 426.5 426.5 444 372.666992188 444 300 c 2
 444 240 l 1
 127 240 l 1
161 418.5 m 0
 138.333007812 396.166992188 127 357.333007812 127 302 c 2
 127 291 l 1
 376 291 l 1
 376 309 l 2
 376 361.666992188 365 398.666992188 343 420 c 0
 321 441.333007812 290.666992188 452 252 452 c 0
 214 452 183.666992188 440.833007812 161 418.5 c 0
128 663.999023438 m 1
 204 663.999023438 l 1
 204 577.999023438 l 1
 128 577.999023438 l 1
 128 663.999023438 l 1
299 663.999023438 m 1
 375 663.999023438 l 1
 375 577.999023438 l 1
 299 577.999023438 l 1
 299 663.999023438 l 1
EndSplineSet
EndChar

StartChar: igrave
Encoding: 236 236 173
Width: 234
GlyphClass: 2
Flags: W
LayerCount: 2
Fore
SplineSet
83 507 m 1
 151 507 l 1
 151 0 l 1
 83 0 l 1
 83 507 l 1
-39 697 m 1
 45 697 l 1
 144 572 l 1
 81 572 l 1
 -39 697 l 1
EndSplineSet
EndChar

StartChar: iacute
Encoding: 237 237 174
Width: 234
GlyphClass: 2
Flags: W
LayerCount: 2
Fore
SplineSet
83 507 m 1
 151 507 l 1
 151 0 l 1
 83 0 l 1
 83 507 l 1
172 697 m 1
 256 697 l 1
 136 572 l 1
 73 572 l 1
 172 697 l 1
EndSplineSet
EndChar

StartChar: icircumflex
Encoding: 238 238 175
Width: 234
GlyphClass: 2
Flags: W
LayerCount: 2
Fore
SplineSet
83 507 m 1
 151 507 l 1
 151 0 l 1
 83 0 l 1
 83 507 l 1
89 706 m 1
 144 706 l 1
 251 562 l 1
 189 562 l 1
 117 657 l 1
 44 562 l 1
 -18 562 l 1
 89 706 l 1
EndSplineSet
EndChar

StartChar: idieresis
Encoding: 239 239 176
Width: 234
GlyphClass: 2
Flags: W
LayerCount: 2
Fore
SplineSet
83 507 m 1
 151 507 l 1
 151 0 l 1
 83 0 l 1
 83 507 l 1
-7 664 m 1
 69 664 l 1
 69 578 l 1
 -7 578 l 1
 -7 664 l 1
164 664 m 1
 240 664 l 1
 240 578 l 1
 164 578 l 1
 164 664 l 1
EndSplineSet
EndChar

StartChar: eth
Encoding: 240 240 177
Width: 496
GlyphClass: 2
Flags: W
LayerCount: 2
Fore
SplineSet
417.5 384.5 m 0
 430.5 347.5 437 308.33203125 437 266.999023438 c 2
 437 211.999023438 l 2
 437 138.666015625 420.5 83.4990234375 387.5 46.4990234375 c 0
 354.5 9.4990234375 307.666992188 -9.0009765625 247 -9.0009765625 c 0
 187 -9.0009765625 140.666992188 9.33203125 108 45.9990234375 c 0
 75.3330078125 82.666015625 59 136.333007812 59 207 c 2
 59 262 l 2
 59 330 74.1669921875 382.333007812 104.5 419 c 0
 134.833007812 455.666992188 177 474 231 474 c 0
 258.333984375 474 281.666992188 469.333007812 301 460 c 1
 233 553 l 1
 131 522 l 1
 116 576 l 1
 198 601 l 1
 134 690 l 1
 216 690 l 1
 266 622 l 1
 365 652 l 1
 380 598 l 1
 301 574 l 1
 357 496 l 2
 384.333007812 458.666992188 404.5 421.5 417.5 384.5 c 0
368 261.999023438 m 2
 368 361.33203125 328.333007812 410.999023438 249 410.999023438 c 0
 167.666992188 410.999023438 127 361.999023438 127 263.999023438 c 2
 127 206.999023438 l 2
 127 106.33203125 167.666992188 55.9990234375 249 55.9990234375 c 0
 328.333007812 55.9990234375 368 105.999023438 368 205.999023438 c 2
 368 261.999023438 l 2
EndSplineSet
EndChar

StartChar: ntilde
Encoding: 241 241 178
Width: 522
GlyphClass: 2
Flags: W
LayerCount: 2
Fore
SplineSet
75 507 m 1
 142 506.999023438 l 1
 142 444.999023438 l 1
 156.666992188 467.666015625 175.833984375 484.666015625 199.5 495.999023438 c 0
 223.166992188 507.33203125 249.666992188 512.999023438 279 512.999023438 c 0
 333 512.999023438 374.5 497.166015625 403.5 465.499023438 c 0
 432.5 433.83203125 447 389.665039062 447 332.999023438 c 2
 447 -0.0009765625 l 1
 379 -0.0009765625 l 1
 379 322.999023438 l 2
 379 364.999023438 368.666992188 396.999023438 348 418.999023438 c 0
 327.333007812 440.999023438 298.666015625 451.999023438 262 451.999023438 c 0
 226 451.999023438 197.166992188 440.83203125 175.5 418.499023438 c 0
 153.833007812 396.166015625 143 364.333007812 143 323 c 2
 143 0 l 1
 75 0 l 1
 75 507 l 1
138 629.999023438 m 1
 149.333007812 643.33203125 160.333007812 653.001953125 171 659.001953125 c 0
 181.666992188 665.001953125 193.666992188 668.001953125 207 668.001953125 c 0
 217.666992188 668.001953125 227.333984375 666.334960938 236 663.001953125 c 0
 244.666992188 659.668945312 255 654.668945312 267 648.001953125 c 0
 277 642.001953125 285.833007812 637.334960938 293.5 634.001953125 c 0
 301.166992188 630.668945312 309.666992188 629.001953125 319 629.001953125 c 0
 331 629.001953125 341.5 631.834960938 350.5 637.501953125 c 0
 359.5 643.170898438 371 653.337890625 385 668.001953125 c 1
 385 607.001953125 l 1
 363.666992188 582.334960938 340.666992188 570.001953125 316 570.001953125 c 0
 304.666992188 570.001953125 294.666992188 571.668945312 286 575.001953125 c 0
 277.333007812 578.334960938 266.666015625 583.66796875 254 591.000976562 c 0
 252 592.333984375 247.666992188 594.666992188 241 598 c 0
 234.333007812 601.333007812 228 603.833007812 222 605.5 c 0
 216 607.166992188 210.333007812 608 205 608 c 0
 192.333007812 608 181.333007812 605.166992188 172 599.5 c 0
 162.666015625 593.833007812 151.333007812 583.666015625 138 568.999023438 c 1
 138 629.999023438 l 1
EndSplineSet
EndChar

StartChar: ograve
Encoding: 242 242 179
Width: 505
GlyphClass: 2
Flags: W
LayerCount: 2
Fore
SplineSet
112 43.5 m 0
 76.6669921875 76.5 59 129.333007812 59 202 c 2
 59 306 l 2
 59 378 76.6669921875 430.666992188 112 464 c 0
 147.333007812 497.333007812 194.666015625 514 253.999023438 514 c 0
 311.999023438 514 358.499023438 497.333007812 393.499023438 464 c 0
 428.499023438 430.666992188 445.999023438 378 445.999023438 306 c 2
 445.999023438 202 l 2
 445.999023438 130 428.499023438 77.3330078125 393.499023438 44 c 0
 358.499023438 10.6669921875 311.999023438 -6 253.999023438 -6 c 0
 194.666015625 -6 147.333007812 10.5 112 43.5 c 0
344.5 88.5 m 0
 366.833007812 110.833007812 378 149.999023438 378 205.999023438 c 2
 378 301.999023438 l 2
 378 357.333007812 366.833007812 396.166015625 344.5 418.499023438 c 0
 322.166992188 440.83203125 292 451.999023438 254 451.999023438 c 0
 214.666992188 451.999023438 183.666992188 440.83203125 161 418.499023438 c 0
 138.333007812 396.166015625 127 357.333007812 127 302 c 2
 127 206 l 2
 127 150 138.333007812 110.833007812 161 88.5 c 0
 183.666992188 66.1669921875 214.666992188 55 254 55 c 0
 292 55 322.166992188 66.1669921875 344.5 88.5 c 0
126 696.999023438 m 1
 210 696.999023438 l 1
 309 571.999023438 l 1
 246 571.999023438 l 1
 126 696.999023438 l 1
EndSplineSet
EndChar

StartChar: oacute
Encoding: 243 243 180
Width: 505
GlyphClass: 2
Flags: W
LayerCount: 2
Fore
SplineSet
112 43.5 m 0
 76.6669921875 76.5 59 129.333007812 59 202 c 2
 59 306 l 2
 59 378 76.6669921875 430.666992188 112 464 c 0
 147.333007812 497.333007812 194.666015625 514 253.999023438 514 c 0
 311.999023438 514 358.499023438 497.333007812 393.499023438 464 c 0
 428.499023438 430.666992188 445.999023438 378 445.999023438 306 c 2
 445.999023438 202 l 2
 445.999023438 130 428.499023438 77.3330078125 393.499023438 44 c 0
 358.499023438 10.6669921875 311.999023438 -6 253.999023438 -6 c 0
 194.666015625 -6 147.333007812 10.5 112 43.5 c 0
344.5 88.5 m 0
 366.833007812 110.833007812 378 149.999023438 378 205.999023438 c 2
 378 301.999023438 l 2
 378 357.333007812 366.833007812 396.166015625 344.5 418.499023438 c 0
 322.166992188 440.83203125 292 451.999023438 254 451.999023438 c 0
 214.666992188 451.999023438 183.666992188 440.83203125 161 418.499023438 c 0
 138.333007812 396.166015625 127 357.333007812 127 302 c 2
 127 206 l 2
 127 150 138.333007812 110.833007812 161 88.5 c 0
 183.666992188 66.1669921875 214.666992188 55 254 55 c 0
 292 55 322.166992188 66.1669921875 344.5 88.5 c 0
276 696.999023438 m 1
 360 696.999023438 l 1
 240 571.999023438 l 1
 177 571.999023438 l 1
 276 696.999023438 l 1
EndSplineSet
EndChar

StartChar: ocircumflex
Encoding: 244 244 181
Width: 505
GlyphClass: 2
Flags: W
LayerCount: 2
Fore
SplineSet
112 43.5 m 0
 76.6669921875 76.5 59 129.333007812 59 202 c 2
 59 306 l 2
 59 378 76.6669921875 430.666992188 112 464 c 0
 147.333007812 497.333007812 194.666015625 514 253.999023438 514 c 0
 311.999023438 514 358.499023438 497.333007812 393.499023438 464 c 0
 428.499023438 430.666992188 445.999023438 378 445.999023438 306 c 2
 445.999023438 202 l 2
 445.999023438 130 428.499023438 77.3330078125 393.499023438 44 c 0
 358.499023438 10.6669921875 311.999023438 -6 253.999023438 -6 c 0
 194.666015625 -6 147.333007812 10.5 112 43.5 c 0
344.5 88.5 m 0
 366.833007812 110.833007812 378 149.999023438 378 205.999023438 c 2
 378 301.999023438 l 2
 378 357.333007812 366.833007812 396.166015625 344.5 418.499023438 c 0
 322.166992188 440.83203125 292 451.999023438 254 451.999023438 c 0
 214.666992188 451.999023438 183.666992188 440.83203125 161 418.499023438 c 0
 138.333007812 396.166015625 127 357.333007812 127 302 c 2
 127 206 l 2
 127 150 138.333007812 110.833007812 161 88.5 c 0
 183.666992188 66.1669921875 214.666992188 55 254 55 c 0
 292 55 322.166992188 66.1669921875 344.5 88.5 c 0
224 705.999023438 m 1
 279 705.999023438 l 1
 386 561.999023438 l 1
 324 561.999023438 l 1
 252 656.999023438 l 1
 179 561.999023438 l 1
 117 561.999023438 l 1
 224 705.999023438 l 1
EndSplineSet
EndChar

StartChar: otilde
Encoding: 245 245 182
Width: 505
GlyphClass: 2
Flags: W
LayerCount: 2
Fore
SplineSet
112 43.5 m 0
 76.6669921875 76.5 59 129.333007812 59 202 c 2
 59 306 l 2
 59 378 76.6669921875 430.666992188 112 464 c 0
 147.333007812 497.333007812 194.666015625 514 253.999023438 514 c 0
 311.999023438 514 358.499023438 497.333007812 393.499023438 464 c 0
 428.499023438 430.666992188 445.999023438 378 445.999023438 306 c 2
 445.999023438 202 l 2
 445.999023438 130 428.499023438 77.3330078125 393.499023438 44 c 0
 358.499023438 10.6669921875 311.999023438 -6 253.999023438 -6 c 0
 194.666015625 -6 147.333007812 10.5 112 43.5 c 0
344.5 88.5 m 0
 366.833007812 110.833007812 378 149.999023438 378 205.999023438 c 2
 378 301.999023438 l 2
 378 357.333007812 366.833007812 396.166015625 344.5 418.499023438 c 0
 322.166992188 440.83203125 292 451.999023438 254 451.999023438 c 0
 214.666992188 451.999023438 183.666992188 440.83203125 161 418.499023438 c 0
 138.333007812 396.166015625 127 357.333007812 127 302 c 2
 127 206 l 2
 127 150 138.333007812 110.833007812 161 88.5 c 0
 183.666992188 66.1669921875 214.666992188 55 254 55 c 0
 292 55 322.166992188 66.1669921875 344.5 88.5 c 0
128 629.999023438 m 1
 139.333007812 643.33203125 150.333984375 653.001953125 161.000976562 659.001953125 c 0
 171.66796875 665.001953125 183.66796875 668.001953125 197.000976562 668.001953125 c 0
 207.66796875 668.001953125 217.334960938 666.334960938 226.000976562 663.001953125 c 0
 234.66796875 659.668945312 245.000976562 654.668945312 257.000976562 648.001953125 c 0
 267.000976562 642.001953125 275.833984375 637.334960938 283.500976562 634.001953125 c 0
 291.16796875 630.668945312 299.66796875 629.001953125 309.000976562 629.001953125 c 0
 321.000976562 629.001953125 331.500976562 631.834960938 340.500976562 637.501953125 c 0
 349.500976562 643.170898438 361.000976562 653.337890625 375.000976562 668.001953125 c 1
 375.000976562 607.001953125 l 1
 353.66796875 582.334960938 330.66796875 570.001953125 306.000976562 570.001953125 c 0
 294.66796875 570.001953125 284.66796875 571.668945312 276.000976562 575.001953125 c 0
 267.333007812 578.334960938 256.666015625 583.66796875 244 591.000976562 c 0
 242 592.333984375 237.666992188 594.666992188 231 598 c 0
 224.333007812 601.333007812 218 603.833007812 212 605.5 c 0
 206 607.166992188 200.333007812 608 195 608 c 0
 182.333007812 608 171.333007812 605.166992188 162 599.5 c 0
 152.666015625 593.833007812 141.333007812 583.666015625 128 568.999023438 c 1
 128 629.999023438 l 1
EndSplineSet
EndChar

StartChar: odieresis
Encoding: 246 246 183
Width: 505
GlyphClass: 2
Flags: W
LayerCount: 2
Fore
SplineSet
112 43.5 m 0
 76.6669921875 76.5 59 129.333007812 59 202 c 2
 59 306 l 2
 59 378 76.6669921875 430.666992188 112 464 c 0
 147.333007812 497.333007812 194.666015625 514 253.999023438 514 c 0
 311.999023438 514 358.499023438 497.333007812 393.499023438 464 c 0
 428.499023438 430.666992188 445.999023438 378 445.999023438 306 c 2
 445.999023438 202 l 2
 445.999023438 130 428.499023438 77.3330078125 393.499023438 44 c 0
 358.499023438 10.6669921875 311.999023438 -6 253.999023438 -6 c 0
 194.666015625 -6 147.333007812 10.5 112 43.5 c 0
344.5 88.5 m 0
 366.833007812 110.833007812 378 149.999023438 378 205.999023438 c 2
 378 301.999023438 l 2
 378 357.333007812 366.833007812 396.166015625 344.5 418.499023438 c 0
 322.166992188 440.83203125 292 451.999023438 254 451.999023438 c 0
 214.666992188 451.999023438 183.666992188 440.83203125 161 418.499023438 c 0
 138.333007812 396.166015625 127 357.333007812 127 302 c 2
 127 206 l 2
 127 150 138.333007812 110.833007812 161 88.5 c 0
 183.666992188 66.1669921875 214.666992188 55 254 55 c 0
 292 55 322.166992188 66.1669921875 344.5 88.5 c 0
128 663.999023438 m 1
 204 663.999023438 l 1
 204 577.999023438 l 1
 128 577.999023438 l 1
 128 663.999023438 l 1
299 663.999023438 m 1
 375 663.999023438 l 1
 375 577.999023438 l 1
 299 577.999023438 l 1
 299 663.999023438 l 1
EndSplineSet
EndChar

StartChar: divide
Encoding: 247 247 184
Width: 512
GlyphClass: 2
Flags: W
LayerCount: 2
Fore
SplineSet
222 384 m 0
 212.666992188 393.333984375 208.000976562 404.665039062 208.000976562 417.998046875 c 0
 208.000976562 431.333007812 212.66796875 442.666015625 222.000976562 451.998046875 c 0
 231.333984375 461.331054688 242.666992188 465.998046875 256 465.998046875 c 0
 269.333984375 465.998046875 280.666992188 461.331054688 289.999023438 451.998046875 c 0
 299.33203125 442.665039062 303.999023438 431.33203125 303.999023438 417.999023438 c 0
 303.999023438 404.666015625 299.33203125 393.333007812 289.999023438 384 c 0
 280.666015625 374.666992188 269.333007812 370 256 370 c 0
 242.666015625 370 231.333007812 374.666992188 222 384 c 0
57.0009765625 308.998046875 m 1
 455.000976562 308.998046875 l 1
 455.000976562 242.998046875 l 1
 57.0009765625 242.998046875 l 1
 57.0009765625 308.998046875 l 1
222.000976562 101.998046875 m 0
 212.66796875 111.331054688 208.001953125 122.665039062 208.001953125 135.998046875 c 0
 208.001953125 149.331054688 212.668945312 160.6640625 222.001953125 169.997070312 c 0
 231.334960938 179.330078125 242.66796875 183.997070312 256.000976562 183.997070312 c 0
 269.334960938 183.997070312 280.66796875 179.330078125 290 169.997070312 c 0
 299.333007812 160.663085938 304 149.330078125 304 135.997070312 c 0
 304 122.6640625 299.333007812 111.331054688 290 101.998046875 c 0
 280.666992188 92.6650390625 269.333984375 87.998046875 256.000976562 87.998046875 c 0
 242.666992188 87.998046875 231.333984375 92.6650390625 222.000976562 101.998046875 c 0
EndSplineSet
EndChar

StartChar: oslash
Encoding: 248 248 185
Width: 505
GlyphClass: 2
Flags: W
LayerCount: 2
Fore
SplineSet
400 457 m 1
 430.666992188 422.333007812 446 372 446 306 c 2
 446 202 l 2
 446 130 428.5 77.3330078125 393.5 44 c 0
 358.5 10.6669921875 312 -6 254 -6 c 0
 206.666992188 -6 167.333984375 4 136.000976562 24 c 1
 103.000976562 -30 l 1
 59.0009765625 -30 l 1
 107.000976562 49 l 1
 75.0009765625 84.3330078125 59.0009765625 135.333007812 59.0009765625 202 c 2
 59.0009765625 306 l 2
 59.0009765625 378 76.66796875 430.666992188 112.000976562 464 c 0
 147.333984375 497.333007812 194.666992188 514 254 514 c 0
 300.666992188 514 339.666992188 503.333007812 371 482 c 1
 402 533 l 1
 446 533 l 1
 400 457 l 1
145 111 m 1
 337 425.999023438 l 1
 317 443.33203125 289.333007812 451.999023438 254 451.999023438 c 0
 214.666992188 451.999023438 183.666992188 440.83203125 161 418.499023438 c 0
 138.333007812 396.166015625 127 357.333007812 127 302 c 2
 127 206 l 2
 127 168 133 136.333007812 145 111 c 1
361 393.999023438 m 1
 170 79.9990234375 l 1
 189.333007812 63.33203125 217.333007812 54.9990234375 254 54.9990234375 c 0
 292 54.9990234375 322.166992188 66.166015625 344.5 88.4990234375 c 0
 366.833007812 110.83203125 378 149.999023438 378 205.999023438 c 2
 378 301.999023438 l 2
 378 339.33203125 372.333007812 369.999023438 361 393.999023438 c 1
EndSplineSet
EndChar

StartChar: ugrave
Encoding: 249 249 186
Width: 522
GlyphClass: 2
Flags: W
LayerCount: 2
Fore
SplineSet
121.5 43.5 m 0
 90.5 76.5 75 124 75 186 c 2
 75 507 l 1
 143 507 l 1
 143 195 l 2
 143 148.333007812 152 113.333007812 170 90 c 0
 188 66.6669921875 218.333007812 55 261 55 c 0
 303.666992188 55 334 66.3330078125 352 89 c 0
 370 111.666992188 379 147 379 195 c 2
 379 507 l 1
 447 507 l 1
 447 186 l 2
 447 124 431.5 76.5 400.5 43.5 c 0
 369.5 10.5 322.666992188 -6 260 -6 c 0
 198.666992188 -6 152.5 10.5 121.5 43.5 c 0
135 697 m 1
 219 697 l 1
 318 572 l 1
 255 572 l 1
 135 697 l 1
EndSplineSet
EndChar

StartChar: uacute
Encoding: 250 250 187
Width: 522
GlyphClass: 2
Flags: W
LayerCount: 2
Fore
SplineSet
121.5 43.5 m 0
 90.5 76.5 75 124 75 186 c 2
 75 507 l 1
 143 507 l 1
 143 195 l 2
 143 148.333007812 152 113.333007812 170 90 c 0
 188 66.6669921875 218.333007812 55 261 55 c 0
 303.666992188 55 334 66.3330078125 352 89 c 0
 370 111.666992188 379 147 379 195 c 2
 379 507 l 1
 447 507 l 1
 447 186 l 2
 447 124 431.5 76.5 400.5 43.5 c 0
 369.5 10.5 322.666992188 -6 260 -6 c 0
 198.666992188 -6 152.5 10.5 121.5 43.5 c 0
285 697 m 1
 369 697 l 1
 249 572 l 1
 186 572 l 1
 285 697 l 1
EndSplineSet
EndChar

StartChar: ucircumflex
Encoding: 251 251 188
Width: 522
GlyphClass: 2
Flags: W
LayerCount: 2
Fore
SplineSet
121.5 43.5 m 0
 90.5 76.5 75 124 75 186 c 2
 75 507 l 1
 143 507 l 1
 143 195 l 2
 143 148.333007812 152 113.333007812 170 90 c 0
 188 66.6669921875 218.333007812 55 261 55 c 0
 303.666992188 55 334 66.3330078125 352 89 c 0
 370 111.666992188 379 147 379 195 c 2
 379 507 l 1
 447 507 l 1
 447 186 l 2
 447 124 431.5 76.5 400.5 43.5 c 0
 369.5 10.5 322.666992188 -6 260 -6 c 0
 198.666992188 -6 152.5 10.5 121.5 43.5 c 0
233 706 m 1
 288 706 l 1
 395 562 l 1
 333 562 l 1
 261 657 l 1
 188 562 l 1
 126 562 l 1
 233 706 l 1
EndSplineSet
EndChar

StartChar: udieresis
Encoding: 252 252 189
Width: 522
GlyphClass: 2
Flags: W
LayerCount: 2
Fore
SplineSet
121.5 43.5 m 0
 90.5 76.5 75 124 75 186 c 2
 75 507 l 1
 143 507 l 1
 143 195 l 2
 143 148.333007812 152 113.333007812 170 90 c 0
 188 66.6669921875 218.333007812 55 261 55 c 0
 303.666992188 55 334 66.3330078125 352 89 c 0
 370 111.666992188 379 147 379 195 c 2
 379 507 l 1
 447 507 l 1
 447 186 l 2
 447 124 431.5 76.5 400.5 43.5 c 0
 369.5 10.5 322.666992188 -6 260 -6 c 0
 198.666992188 -6 152.5 10.5 121.5 43.5 c 0
137 664 m 1
 213 664 l 1
 213 578 l 1
 137 578 l 1
 137 664 l 1
308 664 m 1
 384 664 l 1
 384 578 l 1
 308 578 l 1
 308 664 l 1
EndSplineSet
EndChar

StartChar: yacute
Encoding: 253 253 190
Width: 439
GlyphClass: 2
Flags: W
LayerCount: 2
Fore
SplineSet
425 507 m 1
 230 -55 l 2
 218 -89 201.5 -113.666992188 180.5 -129 c 0
 159.5 -144.333007812 131.666992188 -152 97 -152 c 2
 67 -152 l 1
 67 -90 l 1
 92 -90 l 2
 116.666992188 -90 135.166992188 -85 147.5 -75 c 0
 159.833007812 -65 170 -48.6669921875 178 -26 c 2
 188 5 l 1
 14 507 l 1
 88 507 l 1
 221 104 l 1
 354 507 l 1
 425 507 l 1
243 697 m 1
 327 697 l 1
 207 572 l 1
 144 572 l 1
 243 697 l 1
EndSplineSet
EndChar

StartChar: thorn
Encoding: 254 254 191
Width: 510
GlyphClass: 2
Flags: W
LayerCount: 2
Fore
SplineSet
75 690 m 1
 143.000976562 690.000976562 l 1
 143.000976562 436.000976562 l 1
 157.000976562 461.334960938 175.16796875 480.66796875 197.500976562 494 c 0
 219.833984375 507.333007812 245.666992188 514 275 514 c 0
 327 514 369.333007812 497.166992188 402 463.5 c 0
 434.666992188 429.833007812 451 377.333007812 451 306 c 2
 451 202 l 2
 451 130.666992188 435 78.1669921875 403 44.5 c 0
 371 10.8330078125 330 -6 280 -6 c 0
 216.666992188 -6 171 18.3330078125 143 67 c 1
 143 -152 l 1
 75 -152 l 1
 75 690 l 1
383.000976562 206.000976562 m 2
 383.001953125 302 l 2
 383.001953125 402 344.001953125 452 266.001953125 452 c 0
 225.334960938 452 194.66796875 437.833007812 174.000976562 409.5 c 0
 153.333984375 381.166992188 143.000976562 343.333984375 143.000976562 296.000976562 c 2
 143.000976562 207.000976562 l 2
 143.000976562 162.333984375 153.833984375 125.833984375 175.500976562 97.5009765625 c 0
 197.16796875 69.16796875 228.66796875 55.0009765625 270.000976562 55.0009765625 c 0
 345.333984375 55.0009765625 383.000976562 105.333984375 383.000976562 206.000976562 c 2
EndSplineSet
EndChar

StartChar: ydieresis
Encoding: 255 255 192
Width: 439
GlyphClass: 2
Flags: W
LayerCount: 2
Fore
SplineSet
425 507 m 1
 230 -55 l 2
 218 -89 201.5 -113.666992188 180.5 -129 c 0
 159.5 -144.333007812 131.666992188 -152 97 -152 c 2
 67 -152 l 1
 67 -90 l 1
 92 -90 l 2
 116.666992188 -90 135.166992188 -85 147.5 -75 c 0
 159.833007812 -65 170 -48.6669921875 178 -26 c 2
 188 5 l 1
 14 507 l 1
 88 507 l 1
 221 104 l 1
 354 507 l 1
 425 507 l 1
95 664 m 1
 171 664 l 1
 171 578 l 1
 95 578 l 1
 95 664 l 1
266 664 m 1
 342 664 l 1
 342 578 l 1
 266 578 l 1
 266 664 l 1
EndSplineSet
EndChar

StartChar: dotlessi
Encoding: 305 305 193
Width: 234
GlyphClass: 2
Flags: W
LayerCount: 2
Fore
SplineSet
83 507 m 1
 151 507 l 1
 151 0 l 1
 83 0 l 1
 83 507 l 1
EndSplineSet
EndChar

StartChar: OE
Encoding: 338 338 194
Width: 893
GlyphClass: 2
Flags: W
LayerCount: 2
Fore
SplineSet
543 624 m 1
 543 458 l 2
 543.666992188 450.666992188 544 439.333984375 544 424.000976562 c 2
 544 384.000976562 l 1
 794 384.000976562 l 1
 794 318.000976562 l 1
 544 318.000976562 l 1
 544 267.000976562 l 2
 544 251.666992188 543.666992188 240.333984375 543 233.000976562 c 2
 543 66.0009765625 l 1
 845 66.0009765625 l 1
 845 0.0009765625 l 1
 471 0.0009765625 l 1
 471 49.0009765625 l 1
 430.333007812 11.0009765625 374.666015625 -7.9990234375 304 -7.9990234375 c 0
 230.666992188 -7.9990234375 172.666992188 13.0009765625 130 55.0009765625 c 0
 87.3330078125 97.0009765625 66 164.000976562 66 256.000976562 c 2
 66 435.000976562 l 2
 66 526.333984375 87.5 593.166992188 130.5 635.5 c 0
 173.5 677.833007812 231.666992188 699 305 699 c 0
 375.666992188 699 431 680 471 642 c 1
 471 690 l 1
 845 690 l 1
 845 624 l 1
 543 624 l 1
471 252 m 2
 471 432.000976562 l 2
 471 566.000976562 416 633.000976562 306 633.000976562 c 0
 250.666992188 633.000976562 209 617.16796875 181 585.500976562 c 0
 153 553.833984375 139 502.666992188 139 432 c 2
 139 252 l 2
 139 184.666992188 153.166992188 135.666992188 181.5 105 c 0
 209.833007812 74.3330078125 251.333007812 59 306 59 c 0
 416 59 471 123.333007812 471 252 c 2
EndSplineSet
EndChar

StartChar: oe
Encoding: 339 339 195
Width: 822
GlyphClass: 2
Flags: W
LayerCount: 2
Fore
SplineSet
446 240 m 1
 446 210.000976562 l 2
 446 152.66796875 457.666992188 112.500976562 481 89.5009765625 c 0
 504.333007812 66.5009765625 536.666015625 55.0009765625 577.999023438 55.0009765625 c 0
 613.999023438 55.0009765625 642.166015625 63.66796875 662.499023438 81.0009765625 c 0
 682.83203125 98.333984375 692.999023438 122.333984375 692.999023438 153.000976562 c 2
 692.999023438 156.000976562 l 1
 758.999023438 156.000976562 l 1
 758.999023438 151.000976562 l 2
 758.999023438 103.66796875 742.499023438 65.66796875 709.499023438 37.0009765625 c 0
 676.499023438 8.333984375 630.999023438 -5.9990234375 572.999023438 -5.9990234375 c 0
 499.666015625 -5.9990234375 446.333007812 19.0009765625 413 69.0009765625 c 1
 381.666992188 19.0009765625 328.666992188 -5.9990234375 254 -5.9990234375 c 0
 194.666992188 -5.9990234375 147.333984375 10.5009765625 112.000976562 43.5009765625 c 0
 76.66796875 76.5009765625 59.0009765625 129.333984375 59.0009765625 202.000976562 c 2
 59.0009765625 306.000976562 l 2
 59.0009765625 378.000976562 76.66796875 430.66796875 112.000976562 464.000976562 c 0
 147.333984375 497.333984375 194.666992188 514.000976562 254 514.000976562 c 0
 328 514.000976562 381 489.000976562 413 439.000976562 c 1
 429.666992188 464.334960938 451.5 483.16796875 478.5 495.5 c 0
 505.5 507.833007812 536 514 570 514 c 0
 628.666992188 514 675.5 496.5 710.5 461.5 c 0
 745.5 426.5 763 372.666992188 763 300 c 2
 763 240 l 1
 446 240 l 1
378 302.000976562 m 2
 378 357.334960938 366.833007812 396.166992188 344.5 418.5 c 0
 322.166992188 440.833007812 292 452 254 452 c 0
 214.666992188 452 183.666992188 440.833007812 161 418.5 c 0
 138.333007812 396.166992188 127 357.333984375 127 302.000976562 c 2
 127 206.000976562 l 2
 127 150.000976562 138.333007812 110.833984375 161 88.5009765625 c 0
 183.666992188 66.16796875 214.666992188 55.0009765625 254 55.0009765625 c 0
 292 55.0009765625 322.166992188 66.16796875 344.5 88.5009765625 c 0
 366.833007812 110.833984375 378 150.000976562 378 206.000976562 c 2
 378 302.000976562 l 2
479.5 418.5 m 0
 457.166992188 396.166992188 446 357.333007812 446 302 c 2
 446 291 l 1
 694 291 l 1
 694 309 l 2
 694 361 683 397.833007812 661 419.5 c 0
 639 441.166992188 609 452 571 452 c 0
 532.333007812 452 501.833007812 440.833007812 479.5 418.5 c 0
EndSplineSet
EndChar

StartChar: Scaron
Encoding: 352 352 196
Width: 546
GlyphClass: 2
Flags: W
LayerCount: 2
Fore
SplineSet
101 45 m 0
 61.6669921875 79 38.9970703125 129.001953125 32.9970703125 195.001953125 c 1
 104.997070312 195.001953125 l 1
 114.330078125 103.668945312 168.997070312 58.001953125 268.997070312 58.001953125 c 0
 320.997070312 58.001953125 360.497070312 69.001953125 387.497070312 91.001953125 c 0
 414.497070312 113.001953125 427.997070312 145.001953125 427.997070312 187.001953125 c 0
 427.997070312 225.001953125 417.330078125 253.668945312 395.997070312 273.001953125 c 0
 374.6640625 292.3359375 342.331054688 305.668945312 298.998046875 313.000976562 c 2
 220.998046875 326.000976562 l 2
 164.998046875 335.333984375 121.998046875 354.500976562 91.998046875 383.500976562 c 0
 61.998046875 412.500976562 46.998046875 453.333984375 46.998046875 506.000976562 c 0
 46.998046875 566.66796875 67.3310546875 614.000976562 107.998046875 648.000976562 c 0
 148.665039062 682.000976562 202.33203125 699.000976562 268.999023438 699.000976562 c 0
 330.33203125 699.000976562 380.499023438 683.16796875 419.499023438 651.500976562 c 0
 458.499023438 619.833984375 481.666015625 571.666992188 488.999023438 507 c 1
 416.999023438 507 l 1
 408.999023438 593 359.33203125 636 267.999023438 636 c 0
 220.666015625 636 183.833007812 624.833007812 157.5 602.5 c 0
 131.166992188 580.166992188 118 549.666992188 118 511 c 0
 118 477 128.166992188 450.5 148.5 431.5 c 0
 168.833007812 412.5 199.666015625 399.333007812 240.999023438 392 c 2
 320.999023438 378 l 2
 378.999023438 368 423.33203125 348 453.999023438 318 c 0
 484.666015625 288 499.999023438 245.666992188 499.999023438 191 c 0
 499.999023438 128.333007812 478.999023438 79.8330078125 436.999023438 45.5 c 0
 394.999023438 11.1669921875 337.33203125 -6 263.999023438 -6 c 0
 194.666015625 -6 140.333007812 11 101 45 c 0
137.997070312 890.001953125 m 1
 199.997070312 890.001953125 l 1
 272.997070312 795.001953125 l 1
 344.997070312 890.001953125 l 1
 406.997070312 890.001953125 l 1
 299.997070312 746.001953125 l 1
 244.997070312 746.001953125 l 1
 137.997070312 890.001953125 l 1
EndSplineSet
EndChar

StartChar: scaron
Encoding: 353 353 197
Width: 462
GlyphClass: 2
Flags: W
LayerCount: 2
Fore
SplineSet
97 34 m 0
 63.6669921875 60.6669921875 46.998046875 96.6650390625 46.998046875 141.998046875 c 2
 46.998046875 145.998046875 l 1
 112.998046875 145.998046875 l 1
 112.998046875 142.998046875 l 2
 112.998046875 114.998046875 123.831054688 92.8310546875 145.498046875 76.498046875 c 0
 167.165039062 60.1650390625 196.33203125 51.998046875 232.999023438 51.998046875 c 0
 270.999023438 51.998046875 300.83203125 59.6650390625 322.499023438 74.998046875 c 0
 344.166015625 90.3310546875 354.999023438 112.331054688 354.999023438 140.998046875 c 0
 354.999023438 166.331054688 347.499023438 184.998046875 332.499023438 196.998046875 c 0
 317.499023438 208.998046875 293.33203125 217.998046875 259.999023438 223.998046875 c 2
 196.999023438 234.998046875 l 2
 147.666015625 243.665039062 111.666015625 258.33203125 88.9990234375 278.999023438 c 0
 66.33203125 299.666015625 54.9990234375 329.666015625 54.9990234375 368.999023438 c 0
 54.9990234375 412.999023438 71.33203125 448.166015625 103.999023438 474.499023438 c 0
 136.666015625 500.83203125 178.999023438 513.999023438 230.999023438 513.999023438 c 0
 286.999023438 513.999023438 331.666015625 501.166015625 364.999023438 475.499023438 c 0
 398.33203125 449.83203125 414.999023438 416.33203125 414.999023438 374.999023438 c 2
 414.999023438 368.999023438 l 1
 348.999023438 368.999023438 l 1
 348.999023438 371.999023438 l 2
 348.999023438 398.666015625 338.666015625 419.666015625 317.999023438 434.999023438 c 0
 297.33203125 450.33203125 268.999023438 457.999023438 232.999023438 457.999023438 c 0
 197.666015625 457.999023438 170.166015625 450.33203125 150.499023438 434.999023438 c 0
 130.83203125 419.666015625 120.999023438 398.666015625 120.999023438 371.999023438 c 0
 120.999023438 349.999023438 127.999023438 332.83203125 141.999023438 320.499023438 c 0
 155.999023438 308.166015625 178.33203125 299.333007812 208.999023438 294 c 2
 274.999023438 282 l 2
 324.999023438 272.666992188 361.83203125 257.5 385.499023438 236.5 c 0
 409.166015625 215.5 420.999023438 185 420.999023438 145 c 0
 420.999023438 97 403.666015625 59.8330078125 368.999023438 33.5 c 0
 334.33203125 7.1669921875 287.999023438 -6 229.999023438 -6 c 0
 174.666015625 -6 130.333007812 7.3330078125 97 34 c 0
95.998046875 706.998046875 m 1
 157.998046875 706.998046875 l 1
 230.998046875 611.998046875 l 1
 302.998046875 706.998046875 l 1
 364.998046875 706.998046875 l 1
 257.998046875 562.998046875 l 1
 202.998046875 562.998046875 l 1
 95.998046875 706.998046875 l 1
EndSplineSet
EndChar

StartChar: Ydieresis
Encoding: 376 376 198
Width: 499
GlyphClass: 2
Flags: W
LayerCount: 2
Fore
SplineSet
286 289 m 1
 286 0 l 1
 213 0 l 1
 213 290 l 1
 7 690 l 1
 86 690 l 1
 249 359 l 1
 413 690 l 1
 492 690 l 1
 286 289 l 1
126 847 m 1
 202 847 l 1
 202 761 l 1
 126 761 l 1
 126 847 l 1
297 847 m 1
 373 847 l 1
 373 761 l 1
 297 761 l 1
 297 847 l 1
EndSplineSet
EndChar

StartChar: Zcaron
Encoding: 381 381 199
Width: 516
GlyphClass: 2
Flags: W
LayerCount: 2
Fore
SplineSet
480 66 m 1
 480 0 l 1
 40 0 l 1
 40 66 l 1
 394 624 l 1
 53 624 l 1
 53 690 l 1
 477 690 l 1
 477 624 l 1
 123 66 l 1
 480 66 l 1
123 890 m 1
 185 890 l 1
 258 795 l 1
 330 890 l 1
 392 890 l 1
 285 746 l 1
 230 746 l 1
 123 890 l 1
EndSplineSet
EndChar

StartChar: zcaron
Encoding: 382 382 200
Width: 456
GlyphClass: 2
Flags: W
LayerCount: 2
Fore
SplineSet
397 444 m 1
 135 63 l 1
 397 63 l 1
 397 0 l 1
 59 0 l 1
 59 63 l 1
 319 444 l 1
 59 444 l 1
 59 507 l 1
 397 507 l 1
 397 444 l 1
93 707 m 1
 155 707 l 1
 228 612 l 1
 300 707 l 1
 362 707 l 1
 255 563 l 1
 200 563 l 1
 93 707 l 1
EndSplineSet
EndChar

StartChar: florin
Encoding: 402 402 201
Width: 406
GlyphClass: 2
Flags: W
LayerCount: 2
Fore
SplineSet
13 -86 m 1
 40.9990234375 -85.998046875 l 2
 67.666015625 -85.998046875 87.166015625 -80.3310546875 99.4990234375 -68.998046875 c 0
 111.83203125 -57.6650390625 120.33203125 -35.998046875 124.999023438 -3.998046875 c 2
 176.999023438 347.001953125 l 1
 91.9990234375 347.001953125 l 1
 91.9990234375 410.001953125 l 1
 186.999023438 410.001953125 l 1
 206.999023438 542.001953125 l 2
 214.999023438 594.668945312 230.83203125 632.501953125 254.499023438 655.501953125 c 0
 278.166015625 678.501953125 313.666015625 690.001953125 360.999023438 690.001953125 c 2
 392.999023438 690.001953125 l 1
 392.999023438 624.001953125 l 1
 359.999023438 624.001953125 l 2
 334.666015625 624.001953125 315.833007812 618.168945312 303.5 606.501953125 c 0
 291.166992188 594.834960938 282.666992188 573.66796875 278 543.000976562 c 2
 257 410.000976562 l 1
 362 410.000976562 l 1
 362 347.000976562 l 1
 247 347.000976562 l 1
 195 -1.9990234375 l 2
 187 -56.666015625 171.333007812 -95.3330078125 148 -118 c 0
 124.666992188 -140.666992188 89 -152 41 -152 c 2
 13 -152 l 1
 13 -86 l 1
EndSplineSet
EndChar

StartChar: circumflex
Encoding: 710 710 202
Width: 500
GlyphClass: 2
Flags: W
LayerCount: 2
Fore
SplineSet
222 706 m 1
 277 706 l 1
 384 562 l 1
 322 562 l 1
 250 657 l 1
 177 562 l 1
 115 562 l 1
 222 706 l 1
EndSplineSet
EndChar

StartChar: caron
Encoding: 711 711 203
Width: 500
GlyphClass: 2
Flags: W
LayerCount: 2
Fore
SplineSet
115 707 m 1
 177 707 l 1
 250 612 l 1
 322 707 l 1
 384 707 l 1
 277 563 l 1
 222 563 l 1
 115 707 l 1
EndSplineSet
EndChar

StartChar: dotaccent
Encoding: 729 729 204
Width: 500
GlyphClass: 2
Flags: W
LayerCount: 2
Fore
SplineSet
214 680 m 1
 286 680 l 1
 286 590 l 1
 214 590 l 1
 214 680 l 1
EndSplineSet
EndChar

StartChar: ring
Encoding: 730 730 205
Width: 500
GlyphClass: 2
Flags: W
LayerCount: 2
Fore
SplineSet
184.5 585 m 0
 167.5 602.333007812 159 624 159 650 c 0
 159 676.666992188 167.5 698.666992188 184.5 716 c 0
 201.5 733.333007812 223.333007812 742 250 742 c 0
 276 742 297.666992188 733.333007812 315 716 c 0
 332.333007812 698.666992188 341 676.666992188 341 650 c 0
 341 624 332.333007812 602.333007812 315 585 c 0
 297.666992188 567.666992188 276 559 250 559 c 0
 223.333007812 559 201.5 567.666992188 184.5 585 c 0
287 612 m 0
 297 622 302 634.66796875 302 650.000976562 c 0
 302 665.333984375 297 678.166992188 287 688.5 c 0
 277 698.833007812 264.666992188 704 250 704 c 0
 235.333007812 704 223 698.833007812 213 688.5 c 0
 203 678.166015625 198 665.333007812 198 650 c 0
 198 634.666992188 203 622 213 612 c 0
 223 602 235.333007812 597 250 597 c 0
 264.666992188 597 277 602 287 612 c 0
EndSplineSet
EndChar

StartChar: tilde
Encoding: 732 732 206
Width: 500
GlyphClass: 2
Flags: W
LayerCount: 2
Fore
SplineSet
126 630 m 1
 137.333007812 643.333007812 148.333007812 653.002929688 159 659.002929688 c 0
 169.666992188 665.002929688 181.666992188 668.002929688 195 668.002929688 c 0
 205.666992188 668.002929688 215.333984375 666.3359375 224 663.002929688 c 0
 232.666992188 659.669921875 243 654.669921875 255 648.002929688 c 0
 265 642.002929688 273.833007812 637.3359375 281.5 634.002929688 c 0
 289.166992188 630.669921875 297.666992188 629.002929688 307 629.002929688 c 0
 319 629.002929688 329.5 631.8359375 338.5 637.502929688 c 0
 347.5 643.171875 359 653.338867188 373 668.002929688 c 1
 373 607.002929688 l 1
 351.666992188 582.3359375 328.666992188 570.002929688 304 570.002929688 c 0
 292.666992188 570.002929688 282.666992188 571.669921875 274 575.002929688 c 0
 265.333007812 578.3359375 254.666015625 583.668945312 241.999023438 591.001953125 c 0
 239.999023438 592.334960938 235.666015625 594.66796875 228.999023438 598.000976562 c 0
 222.33203125 601.333984375 215.999023438 603.833984375 209.999023438 605.500976562 c 0
 203.999023438 607.16796875 198.33203125 608.000976562 192.999023438 608.000976562 c 0
 180.33203125 608.000976562 169.33203125 605.16796875 159.999023438 599.500976562 c 0
 150.666015625 593.833984375 139.333007812 583.666992188 126 569 c 1
 126 630 l 1
EndSplineSet
EndChar

StartChar: gravecomb
Encoding: 768 768 207
Width: 0
GlyphClass: 2
Flags: W
LayerCount: 2
Fore
SplineSet
-126 697 m 1
 -42 697 l 1
 57 572 l 1
 -6 572 l 1
 -126 697 l 1
EndSplineSet
EndChar

StartChar: acutecomb
Encoding: 769 769 208
Width: 0
GlyphClass: 2
Flags: W
LayerCount: 2
Fore
SplineSet
24 697 m 1
 108 697 l 1
 -12 572 l 1
 -75 572 l 1
 24 697 l 1
EndSplineSet
EndChar

StartChar: uni0302
Encoding: 770 770 209
Width: 0
GlyphClass: 2
Flags: W
LayerCount: 2
Fore
SplineSet
-28 706 m 1
 27 706 l 1
 134 562 l 1
 72 562 l 1
 0 657 l 1
 -73 562 l 1
 -135 562 l 1
 -28 706 l 1
EndSplineSet
EndChar

StartChar: tildecomb
Encoding: 771 771 210
Width: 0
GlyphClass: 2
Flags: W
LayerCount: 2
Fore
SplineSet
-124 630 m 1
 -112.666992188 643.333007812 -101.66796875 653.002929688 -91.0009765625 659.002929688 c 0
 -80.333984375 665.002929688 -68.333984375 668.002929688 -55.0009765625 668.002929688 c 0
 -44.333984375 668.002929688 -34.6669921875 666.3359375 -26 663.002929688 c 0
 -17.3330078125 659.669921875 -7 654.669921875 5 648.002929688 c 0
 15 642.002929688 23.8330078125 637.3359375 31.5 634.002929688 c 0
 39.1669921875 630.669921875 47.6669921875 629.002929688 57 629.002929688 c 0
 69 629.002929688 79.5 631.8359375 88.5 637.502929688 c 0
 97.5 643.171875 109 653.338867188 123 668.002929688 c 1
 123 607.002929688 l 1
 101.666992188 582.3359375 78.6669921875 570.002929688 54 570.002929688 c 0
 42.6669921875 570.002929688 32.6669921875 571.669921875 24 575.002929688 c 0
 15.3330078125 578.3359375 4.666015625 583.668945312 -8.0009765625 591.001953125 c 0
 -10.0009765625 592.334960938 -14.333984375 594.66796875 -21.0009765625 598.000976562 c 0
 -27.66796875 601.333984375 -34.0009765625 603.833984375 -40.0009765625 605.500976562 c 0
 -46.0009765625 607.16796875 -51.66796875 608.000976562 -57.0009765625 608.000976562 c 0
 -69.66796875 608.000976562 -80.66796875 605.16796875 -90.0009765625 599.500976562 c 0
 -99.333984375 593.833984375 -110.666992188 583.666992188 -124 569 c 1
 -124 630 l 1
EndSplineSet
EndChar

StartChar: uni0308
Encoding: 776 776 211
Width: 0
GlyphClass: 2
Flags: W
LayerCount: 2
Fore
SplineSet
-124 664 m 1
 -48 664 l 1
 -48 578 l 1
 -124 578 l 1
 -124 664 l 1
47 664 m 1
 123 664 l 1
 123 578 l 1
 47 578 l 1
 47 664 l 1
EndSplineSet
EndChar

StartChar: uni030A
Encoding: 778 778 212
Width: 0
GlyphClass: 2
Flags: W
LayerCount: 2
Fore
SplineSet
-65.5 585 m 0
 -82.5 602.333007812 -91 624 -91 650 c 0
 -91 676.666992188 -82.5 698.666992188 -65.5 716 c 0
 -48.5 733.333007812 -26.6669921875 742 0 742 c 0
 26 742 47.6669921875 733.333007812 65 716 c 0
 82.3330078125 698.666992188 91 676.666992188 91 650 c 0
 91 624 82.3330078125 602.333007812 65 585 c 0
 47.6669921875 567.666992188 26 559 0 559 c 0
 -26.6669921875 559 -48.5 567.666992188 -65.5 585 c 0
37 612 m 0
 47 622 52 634.66796875 52 650.000976562 c 0
 52 665.333984375 47 678.166992188 37 688.5 c 0
 27 698.833007812 14.6669921875 704 0 704 c 0
 -14.6669921875 704 -27 698.833007812 -37 688.5 c 0
 -47 678.166015625 -52 665.333007812 -52 650 c 0
 -52 634.666992188 -47 622 -37 612 c 0
 -27 602 -14.6669921875 597 0 597 c 0
 14.6669921875 597 27 602 37 612 c 0
EndSplineSet
EndChar

StartChar: endash
Encoding: 8211 8211 213
Width: 417
GlyphClass: 2
Flags: W
LayerCount: 2
Fore
SplineSet
0 380 m 1
 417 380 l 1
 417 314 l 1
 0 314 l 1
 0 380 l 1
EndSplineSet
EndChar

StartChar: emdash
Encoding: 8212 8212 214
Width: 833
GlyphClass: 2
Flags: W
LayerCount: 2
Fore
SplineSet
0 380 m 1
 833 380 l 1
 833 314 l 1
 0 314 l 1
 0 380 l 1
EndSplineSet
EndChar

StartChar: quoteleft
Encoding: 8216 8216 215
Width: 172
GlyphClass: 2
Flags: W
LayerCount: 2
Fore
SplineSet
119 495 m 1
 53 495 l 1
 53 663 l 1
 119 725 l 1
 119 495 l 1
67 690 m 1024
EndSplineSet
EndChar

StartChar: quoteright
Encoding: 8217 8217 216
Width: 172
GlyphClass: 2
Flags: W
LayerCount: 2
Fore
SplineSet
53 690 m 1
 119 690 l 1
 119 522 l 1
 53 460 l 1
 53 690 l 1
EndSplineSet
EndChar

StartChar: quotesinglbase
Encoding: 8218 8218 217
Width: 172
GlyphClass: 2
Flags: W
LayerCount: 2
Fore
SplineSet
53 93 m 1
 119 93 l 1
 119 -75 l 1
 53 -137 l 1
 53 93 l 1
EndSplineSet
EndChar

StartChar: quotedblleft
Encoding: 8220 8220 218
Width: 308
GlyphClass: 2
Flags: W
LayerCount: 2
Fore
SplineSet
118 495 m 1
 52 495 l 1
 52 663 l 1
 118 725 l 1
 118 495 l 1
255 495 m 1
 189 495 l 1
 189 663 l 1
 255 725 l 1
 255 495 l 1
103 690 m 1024
EndSplineSet
EndChar

StartChar: quotedblright
Encoding: 8221 8221 219
Width: 308
GlyphClass: 2
Flags: W
LayerCount: 2
Fore
SplineSet
53 691 m 1
 119 691 l 1
 119 523 l 1
 53 461 l 1
 53 691 l 1
190 691 m 1
 256 691 l 1
 256 523 l 1
 190 461 l 1
 190 691 l 1
EndSplineSet
EndChar

StartChar: quotedblbase
Encoding: 8222 8222 220
Width: 308
GlyphClass: 2
Flags: W
LayerCount: 2
Fore
SplineSet
189 93 m 1
 255 93 l 1
 255 -75 l 1
 189 -137 l 1
 189 93 l 1
53 93 m 1
 119 93 l 1
 119 -75 l 1
 53 -137 l 1
 53 93 l 1
EndSplineSet
EndChar

StartChar: dagger
Encoding: 8224 8224 221
Width: 527
GlyphClass: 2
Flags: W
LayerCount: 2
Fore
SplineSet
452 381 m 1
 300 381 l 1
 300 -152 l 1
 227 -152 l 1
 227 381 l 1
 75 381 l 1
 75 446 l 1
 227 446 l 1
 227 690 l 1
 300 690 l 1
 300 446 l 1
 452 446 l 1
 452 381 l 1
EndSplineSet
EndChar

StartChar: daggerdbl
Encoding: 8225 8225 222
Width: 527
GlyphClass: 2
Flags: W
LayerCount: 2
Fore
SplineSet
300 384 m 1
 300 157 l 1
 452 157 l 1
 452 91 l 1
 300 91 l 1
 300 -152 l 1
 227 -152 l 1
 227 91 l 1
 75 91 l 1
 75 157 l 1
 227 157 l 1
 227 384 l 1
 75 384 l 1
 75 450 l 1
 227 450 l 1
 227 690 l 1
 300 690 l 1
 300 450 l 1
 452 450 l 1
 452 384 l 1
 300 384 l 1
EndSplineSet
EndChar

StartChar: bullet
Encoding: 8226 8226 223
Width: 471
GlyphClass: 2
Flags: W
LayerCount: 2
Fore
SplineSet
147.5 220.5 m 0
 124.5 243.5 112.999023438 272.666992188 112.999023438 308 c 0
 112.999023438 343.333007812 124.499023438 372.5 147.499023438 395.5 c 0
 170.499023438 418.5 199.666015625 430 234.999023438 430 c 0
 270.333007812 430 299.666015625 418.5 322.999023438 395.5 c 0
 346.33203125 372.5 357.999023438 343.333007812 357.999023438 308 c 0
 357.999023438 272.666992188 346.33203125 243.5 322.999023438 220.5 c 0
 299.666015625 197.5 270.333007812 186 235 186 c 0
 199.666992188 186 170.5 197.5 147.5 220.5 c 0
EndSplineSet
EndChar

StartChar: ellipsis
Encoding: 8230 8230 224
Width: 664
GlyphClass: 2
Flags: W
LayerCount: 2
Fore
SplineSet
53 92 m 1
 141 92 l 1
 141 0 l 1
 53 0 l 1
 53 92 l 1
523 92 m 1
 611 92 l 1
 611 0 l 1
 523 0 l 1
 523 92 l 1
288 92 m 1
 376 92 l 1
 376 0 l 1
 288 0 l 1
 288 92 l 1
EndSplineSet
EndChar

